#N canvas 2404 166 1207 753 10;
#X obj 79 49 adc~;
#X floatatom 144 201 5 0 0 2 Audio_gate_volume_threshold_(0-1) - -
;
#X floatatom 144 234 5 0 0 2 Delay_time_before_closing_audio_gate_(ms)
- -;
#X obj 161 257 tgl 15 0 empty empty On/Off 17 7 0 10 -262144 -1 -1
1 1;
#X obj 120 302 tgl 15 0 empty empty Gate_status 17 7 0 10 -262144 -1
-1 0 1;
#X obj 107 326 bng 15 250 50 0 empty empty New_file_recorded 17 7 0
10 -262144 -1 -1;
#X obj 80 278 voice_recorder;
#X obj 390 71 set_audio_settings;
#X obj 390 48 loadbang;
#X obj 142 670 udpsend;
#X msg 196 646 disconnect;
#X obj 47 623 loadbang;
#X obj 179 693 tgl 15 0 empty empty empty 17 7 0 10 -262144 -1 -1 1
1;
#N canvas 859 298 788 260 osc_format 0;
#X obj 134 146 list trim;
#X obj 11 187 packOSC;
#X obj 11 17 inlet;
#X obj 11 212 outlet;
#X msg 11 60 /new_file_recorded;
#X obj 134 17 inlet;
#X obj 134 60 list prepend /gate_status;
#X obj 292 146 list trim;
#X obj 292 17 inlet;
#X obj 292 60 list prepend /voices;
#X obj 421 146 list trim;
#X obj 421 17 inlet;
#X obj 575 145 list trim;
#X obj 575 16 inlet;
#X obj 575 59 list prepend /output_rms;
#X obj 421 60 list prepend /input_rms;
#X connect 0 0 1 0;
#X connect 1 0 3 0;
#X connect 2 0 4 0;
#X connect 4 0 1 0;
#X connect 5 0 6 0;
#X connect 6 0 0 0;
#X connect 7 0 1 0;
#X connect 8 0 9 0;
#X connect 9 0 7 0;
#X connect 10 0 1 0;
#X connect 11 0 15 0;
#X connect 12 0 1 0;
#X connect 13 0 14 0;
#X connect 14 0 12 0;
#X connect 15 0 10 0;
#X restore 105 623 pd osc_format;
#X obj 144 73 unpackOSC;
#X text 241 49 FROM MAIN;
#X text 192 670 TO MAIN;
#X obj 144 49 udpreceive 7900;
#X msg 47 646 connect 127.0.0.1 7901;
#X obj 80 301 t b b;
#X obj 47 535 loadbang;
#X msg 47 558 1;
#X obj 47 600 metro 10000;
#X obj 47 580 tgl 15 0 empty empty empty 17 7 0 10 -262144 -1 -1 1
1;
#X obj 639 666 dac~ 1 2;
#X obj 354 264 t b a;
#X obj 449 264 t b a;
#X obj 543 264 t b a;
#X obj 354 295 read_sf voice0;
#X obj 449 295 read_sf voice1;
#X obj 543 295 read_sf voice2;
#N canvas 0 96 1920 1104 double_buffer 0;
#X obj 84 381 t a b;
#X obj 111 403 bng 15 250 50 0 empty empty empty 17 7 0 10 -262144
-1 -1;
#X obj 65 546 *~ 1;
#X obj 109 546 *~ 1;
#X obj 29 383 vsl 15 128 0 1 0 0 empty empty empty 0 -9 0 10 -262144
-1 -1 0 1;
#X obj 65 584 dac~ 1 2;
#X obj 165 271 cyclone/counter 1;
#X obj 248 338 route 0 1;
#X obj 248 313 list prepend 0;
#X obj 84 346 route 0 1;
#X obj 84 321 list prepend 0;
#X obj 165 298 expr 1 - $f1;
#X msg 84 216 bang;
#X obj 84 298 list;
#X obj 65 425 read_sf;
#X obj 292 381 t a b;
#X obj 319 403 bng 15 250 50 0 empty empty empty 17 7 0 10 -262144
-1 -1;
#X obj 273 425 read_sf;
#X obj 312 556 route stop;
#X obj 84 101 delay 500;
#X obj 84 124 spigot;
#X obj 135 55 t f f;
#X obj 178 78 < 1;
#X floatatom 135 33 5 0 0 0 - - -;
#X obj 84 239 t b b b;
#X obj 105 275 t a b;
#X obj 132 298 bng 15 250 50 0 empty empty empty 17 7 0 10 -262144
-1 -1;
#X obj 312 579 bng 15 250 50 0 empty empty empty 17 7 0 10 -262144
-1 -1;
#X obj 84 146 bng 15 250 50 0 empty empty empty 17 7 0 10 -262144 -1
-1;
#X obj 135 78 * 5000;
#X obj 65 403 bng 15 250 50 0 empty empty empty 17 7 0 10 -262144 -1
-1;
#X obj 273 403 bng 15 250 50 0 empty empty empty 17 7 0 10 -262144
-1 -1;
#X obj 207 78 > 1;
#X obj 178 101 change;
#X obj 178 124 sel 1;
#X connect 0 0 14 1;
#X connect 0 1 1 0;
#X connect 2 0 5 0;
#X connect 3 0 5 1;
#X connect 4 0 2 1;
#X connect 4 0 3 1;
#X connect 6 0 8 1;
#X connect 6 0 11 0;
#X connect 7 0 30 0;
#X connect 7 1 31 0;
#X connect 8 0 7 0;
#X connect 9 0 0 0;
#X connect 9 1 15 0;
#X connect 10 0 9 0;
#X connect 11 0 10 1;
#X connect 12 0 24 0;
#X connect 13 0 10 0;
#X connect 14 0 2 0;
#X connect 15 0 17 1;
#X connect 15 1 16 0;
#X connect 17 0 2 0;
#X connect 18 0 27 0;
#X connect 18 0 19 0;
#X connect 19 0 20 0;
#X connect 20 0 28 0;
#X connect 20 0 12 0;
#X connect 21 0 29 0;
#X connect 21 1 22 0;
#X connect 22 0 20 1;
#X connect 22 0 33 0;
#X connect 23 0 21 0;
#X connect 24 0 13 0;
#X connect 24 1 8 0;
#X connect 24 2 6 0;
#X connect 25 0 13 1;
#X connect 25 1 26 0;
#X connect 29 0 19 1;
#X connect 30 0 14 0;
#X connect 31 0 17 0;
#X connect 33 0 34 0;
#X connect 34 0 12 0;
#X restore 972 662 pd double_buffer;
#X obj 144 99 routeOSC /gate_threshold /delay_time /on_off /exported_file
/volume;
#X obj 972 607 tgl 15 0 empty empty empty 17 7 0 10 -262144 -1 -1 0
1;
#X msg 972 627 \; pd dsp \$1;
#X obj 451 474 env~;
#X obj 638 422 *~ 1;
#X obj 683 422 *~ 1;
#X obj 637 264 t b a;
#X obj 731 264 t b a;
#N canvas 1256 351 664 495 process_rms 0;
#X obj 119 93 / 100;
#X obj 119 137 * 100;
#X obj 119 160 int;
#X obj 119 183 / 100;
#X obj 119 114 + 0.004;
#X obj 119 32 inlet;
#X obj 48 296 outlet;
#X obj 48 244 change;
#X obj 48 114 loadbang;
#X msg 48 137 1;
#X obj 48 218 float;
#X obj 48 160 metro 50;
#X connect 0 0 4 0;
#X connect 1 0 2 0;
#X connect 2 0 3 0;
#X connect 3 0 10 1;
#X connect 4 0 1 0;
#X connect 5 0 0 0;
#X connect 7 0 6 0;
#X connect 8 0 9 0;
#X connect 9 0 11 0;
#X connect 10 0 7 0;
#X connect 11 0 10 0;
#X restore 451 497 pd process_rms;
#X obj 451 563 spigot;
#X obj 484 519 loadbang;
#X msg 484 542 1;
#X obj 637 295 read_sf voice3;
#X obj 731 295 read_sf voice4;
#X obj 825 264 t b a;
#X obj 674 184 route voice0 voice1 voice2 voice3 voice4 voice5;
#X obj 825 295 read_sf voice5;
#X obj 354 185 route voice0 voice1 voice2 voice3 voice4 voice5;
#N canvas 2541 320 521 695 voice0_dsp 0;
#X obj 103 23 inlet~;
#X obj 61 573 outlet~;
#X msg 26 259 info;
#X obj 27 312 print;
#X floatatom 147 130 5 0 0 0 - - -;
#X obj 102 164 hip~ 600;
#X obj 26 288 plugin~ valve;
#X obj 63 230 loadbang;
#X obj 123 573 outlet~;
#X msg 20 431 info;
#X obj 20 479 print;
#X obj 20 455 plugin~ Plate, f 14;
#X obj 21 353 loadbang;
#X msg 21 385 control bandwidth 0.5 \, control tail 0.1 \, control
damping 0.5 \, control blend 0.2;
#X obj 61 536 *~ 0.99;
#X obj 124 536 *~ 0.01;
#X msg 63 259 control #1 0.4 \, control #2 0.8;
#X connect 0 0 5 0;
#X connect 2 0 6 0;
#X connect 4 0 5 1;
#X connect 5 0 6 1;
#X connect 6 0 3 0;
#X connect 6 1 11 1;
#X connect 7 0 16 0;
#X connect 9 0 11 0;
#X connect 11 0 10 0;
#X connect 11 1 14 0;
#X connect 11 2 15 0;
#X connect 12 0 13 0;
#X connect 13 0 11 0;
#X connect 14 0 1 0;
#X connect 15 0 8 0;
#X connect 16 0 6 0;
#X restore 354 318 pd voice0_dsp;
#N canvas 2737 228 437 720 voice5_dsp 0;
#X obj 95 27 inlet~;
#X msg 19 217 info;
#X obj 20 274 print;
#X floatatom 140 100 5 0 0 0 - - -;
#X obj 95 134 hip~ 600;
#X obj 19 250 plugin~ valve;
#X obj 54 188 loadbang;
#X obj 55 551 outlet~;
#X obj 117 551 outlet~;
#X msg 14 409 info;
#X obj 14 457 print;
#X obj 14 433 plugin~ Plate, f 14;
#X obj 15 331 loadbang;
#X msg 15 363 control bandwidth 0.5 \, control tail 0.1 \, control
damping 0.5 \, control blend 0.2;
#X obj 55 514 *~ 0.01;
#X obj 118 514 *~ 0.99;
#X msg 54 217 control #1 0.4 \, control #2 0.8;
#X connect 0 0 4 0;
#X connect 1 0 5 0;
#X connect 3 0 4 1;
#X connect 4 0 5 1;
#X connect 5 0 2 0;
#X connect 5 1 11 1;
#X connect 6 0 16 0;
#X connect 9 0 11 0;
#X connect 11 0 10 0;
#X connect 11 1 14 0;
#X connect 11 2 15 0;
#X connect 12 0 13 0;
#X connect 13 0 11 0;
#X connect 14 0 7 0;
#X connect 15 0 8 0;
#X connect 16 0 5 0;
#X restore 826 318 pd voice5_dsp;
#N canvas 2033 274 764 634 voice4_dsp 0;
#X obj 91 19 inlet~;
#X obj 62 556 outlet~;
#X msg 16 417 info;
#X obj 17 465 print;
#X obj 110 556 outlet~;
#X obj 16 441 plugin~ lcrDelay;
#X msg 17 240 info;
#X obj 17 288 print;
#X obj 17 264 plugin~ Plate;
#X obj 17 167 loadbang;
#X obj 17 326 loadbang;
#X msg 17 199 control bandwidth 0.5 \, control tail 0.75 \, control
damping 0.25 \, control blend 0.5;
#X msg 17 361 control #1 1150 \, control #2 33 \, control #3 1850 \,
control #4 33 \, control #5 1250 \, control #6 33 \, control #7 80
\, control #11 0.5;
#X obj 92 137 bob~;
#X obj 102 69 loadbang;
#X obj 102 92 t b b;
#X floatatom 160 69 5 0 0 0 - - -;
#X floatatom 203 66 5 0 0 0 - - -;
#X msg 206 312 control #11 \$1;
#X floatatom 206 289 5 0 0 0 - - -;
#X floatatom 228 118 5 0 0 0 - - -;
#X msg 228 140 control blend \$1;
#X obj 377 167 loadbang;
#X obj 389 327 loadbang;
#X msg 377 199 control bandwidth 0.5 \, control tail 0.75 \, control
damping 0.25 \, control blend 0.5;
#X msg 129 113 0;
#X msg 102 113 360;
#X msg 389 361 control #1 100 \, control #2 33 \, control #3 200 \,
control #4 33 \, control #5 150 \, control #6 33 \, control #7 30 \,
control #11 0.25;
#X connect 0 0 13 0;
#X connect 2 0 5 0;
#X connect 5 0 3 0;
#X connect 5 1 1 0;
#X connect 5 2 4 0;
#X connect 6 0 8 0;
#X connect 8 0 7 0;
#X connect 8 1 5 1;
#X connect 8 2 5 2;
#X connect 9 0 11 0;
#X connect 10 0 12 0;
#X connect 13 0 8 1;
#X connect 14 0 15 0;
#X connect 15 0 26 0;
#X connect 15 1 25 0;
#X connect 16 0 13 1;
#X connect 17 0 13 2;
#X connect 18 0 5 0;
#X connect 19 0 18 0;
#X connect 20 0 21 0;
#X connect 21 0 8 0;
#X connect 22 0 24 0;
#X connect 23 0 27 0;
#X connect 24 0 8 0;
#X connect 25 0 13 2;
#X connect 26 0 13 1;
#X connect 27 0 5 0;
#X restore 731 319 pd voice4_dsp;
#N canvas 506 163 478 799 voice1_dsp 0;
#X obj 113 24 inlet~;
#X obj 68 687 outlet~;
#X obj 155 687 outlet~;
#X msg 31 429 info;
#X obj 31 477 print;
#X obj 45 536 delwrite~ voice1_delay1 40;
#X obj 213 536 delwrite~ voice1_delay2 50;
#X obj 46 557 delread~ voice1_delay1 40;
#X obj 214 557 delread~ voice1_delay2 50;
#X msg 31 188 info;
#X obj 31 237 print;
#X obj 31 213 plugin~ EqFA4p;
#X msg 66 188 control a.act 0;
#X msg 31 141 control a.act 1 \, control a.f 100 \, control a.bw 2
\, control a.gain 3;
#X obj 31 453 plugin~ Plate, f 14;
#X msg 32 383 control bandwidth 0.5 \, control tail 0.1 \, control
damping 0.5 \, control blend 0.2;
#X obj 32 351 loadbang;
#X obj 31 110 loadbang;
#X floatatom 223 19 5 0 0 0 - - -;
#X obj 113 47 *~ 0.7;
#X connect 0 0 19 0;
#X connect 3 0 14 0;
#X connect 7 0 1 0;
#X connect 8 0 2 0;
#X connect 9 0 11 0;
#X connect 11 0 10 0;
#X connect 11 1 14 1;
#X connect 12 0 11 0;
#X connect 13 0 11 0;
#X connect 14 0 4 0;
#X connect 14 1 1 0;
#X connect 14 1 5 0;
#X connect 14 2 2 0;
#X connect 14 2 6 0;
#X connect 15 0 14 0;
#X connect 16 0 15 0;
#X connect 17 0 13 0;
#X connect 18 0 19 1;
#X connect 19 0 11 1;
#X restore 450 318 pd voice1_dsp;
#X obj 450 422 *~ 1;
#X obj 525 422 *~ 1;
#N canvas 3260 296 439 799 voice2_dsp 0;
#X obj 73 699 outlet~;
#X obj 116 699 outlet~;
#X msg 33 463 info;
#X obj 33 511 print;
#X msg 28 222 info;
#X obj 28 271 print;
#X obj 33 487 plugin~ Plate, f 14;
#X obj 34 385 loadbang;
#X obj 28 144 loadbang;
#X msg 34 417 control bandwidth 0.5 \, control tail 0.2 \, control
damping 0.5 \, control blend 0.3;
#X obj 28 247 plugin~ ChorusI;
#X msg 28 175 control t 10 \, control width 2 \, control rate 0.05
\, control blend 0.5 \, control feedforward 0.25 \, control feedback
0.25;
#X obj 115 27 inlet~;
#X floatatom 225 42 5 0 0 0 - - -;
#X obj 115 70 *~ 1;
#X obj 115 610 *~ 0.05;
#X obj 74 610 *~ 0.95;
#X connect 2 0 6 0;
#X connect 4 0 10 0;
#X connect 6 0 3 0;
#X connect 6 1 16 0;
#X connect 6 2 15 0;
#X connect 7 0 9 0;
#X connect 8 0 11 0;
#X connect 9 0 6 0;
#X connect 10 0 5 0;
#X connect 10 1 6 1;
#X connect 11 0 10 0;
#X connect 12 0 14 0;
#X connect 13 0 14 1;
#X connect 14 0 10 1;
#X connect 15 0 1 0;
#X connect 16 0 0 0;
#X restore 543 318 pd voice2_dsp;
#N canvas 2556 320 452 752 voice3_dsp 0;
#X obj 71 661 outlet~;
#X obj 112 661 outlet~;
#X msg 31 488 info;
#X obj 31 536 print;
#X msg 31 159 info;
#X obj 31 208 print;
#X obj 31 184 plugin~ EqFA4p;
#X msg 66 159 control a.act 0;
#X obj 31 512 plugin~ Plate, f 14;
#X obj 32 410 loadbang;
#X obj 31 81 loadbang;
#X obj 113 31 inlet~;
#X floatatom 223 46 5 0 0 0 - - -;
#X obj 113 74 *~ 1;
#X msg 31 112 control a.act 1 \, control a.f 100 \, control a.bw 2
\, control a.gain -6;
#X msg 32 442 control bandwidth 0.5 \, control tail 0.3 \, control
damping 0.5 \, control blend 0.4;
#X msg 37 302 info;
#X obj 37 353 print;
#X obj 37 329 plugin~ valve;
#X obj 37 248 loadbang;
#X msg 37 277 control #1 0.9 \, control #2 0.8;
#X obj 111 589 *~ 0.95;
#X obj 70 589 *~ 0.05;
#X connect 2 0 8 0;
#X connect 4 0 6 0;
#X connect 6 0 5 0;
#X connect 6 1 18 1;
#X connect 7 0 6 0;
#X connect 8 0 3 0;
#X connect 8 1 22 0;
#X connect 8 2 21 0;
#X connect 9 0 15 0;
#X connect 10 0 14 0;
#X connect 11 0 13 0;
#X connect 12 0 13 1;
#X connect 13 0 6 1;
#X connect 14 0 6 0;
#X connect 15 0 8 0;
#X connect 16 0 18 0;
#X connect 18 0 17 0;
#X connect 18 1 8 1;
#X connect 19 0 20 0;
#X connect 20 0 18 0;
#X connect 21 0 1 0;
#X connect 22 0 0 0;
#X restore 637 318 pd voice3_dsp;
#X obj 379 685 homemade/rec_sf;
#X msg 453 645 open;
#X obj 648 607 homemade/rec_sf;
#X obj 899 459 tgl 15 0 empty empty empty 17 7 0 10 -262144 -1 -1 0
1;
#X msg 722 567 open;
#X obj 783 611 homemade/rec_sf;
#X msg 857 571 open;
#X obj 513 626 tgl 15 0 empty empty empty 17 7 0 10 -262144 -1 -1 0
1;
#X connect 0 0 6 0;
#X connect 0 0 58 0;
#X connect 1 0 6 1;
#X connect 2 0 6 2;
#X connect 3 0 6 3;
#X connect 4 0 13 1;
#X connect 6 0 19 0;
#X connect 6 1 4 0;
#X connect 6 2 13 3;
#X connect 8 0 7 0;
#X connect 9 0 12 0;
#X connect 10 0 9 0;
#X connect 11 0 18 0;
#X connect 13 0 9 0;
#X connect 14 0 32 0;
#X connect 17 0 14 0;
#X connect 18 0 9 0;
#X connect 19 0 13 0;
#X connect 19 1 5 0;
#X connect 20 0 21 0;
#X connect 21 0 23 0;
#X connect 22 0 18 0;
#X connect 23 0 22 0;
#X connect 25 0 28 0;
#X connect 25 1 28 1;
#X connect 26 0 29 0;
#X connect 26 1 29 1;
#X connect 27 0 30 0;
#X connect 27 1 30 1;
#X connect 28 0 50 0;
#X connect 28 1 13 2;
#X connect 29 0 53 0;
#X connect 29 1 13 2;
#X connect 30 0 56 0;
#X connect 30 1 13 2;
#X connect 32 0 1 0;
#X connect 32 1 2 0;
#X connect 32 2 3 0;
#X connect 32 3 49 0;
#X connect 32 4 47 0;
#X connect 33 0 34 0;
#X connect 35 0 40 0;
#X connect 36 0 24 0;
#X connect 36 0 60 0;
#X connect 37 0 24 1;
#X connect 37 0 63 0;
#X connect 38 0 44 0;
#X connect 38 1 44 1;
#X connect 39 0 45 0;
#X connect 39 1 45 1;
#X connect 40 0 41 0;
#X connect 41 0 13 4;
#X connect 42 0 43 0;
#X connect 43 0 41 1;
#X connect 44 0 57 0;
#X connect 44 1 13 2;
#X connect 45 0 52 0;
#X connect 45 1 13 2;
#X connect 46 0 48 0;
#X connect 46 1 48 1;
#X connect 47 0 28 3;
#X connect 47 1 29 3;
#X connect 47 2 30 3;
#X connect 47 3 44 3;
#X connect 47 4 45 3;
#X connect 47 5 48 3;
#X connect 48 0 51 0;
#X connect 48 1 13 2;
#X connect 49 0 25 0;
#X connect 49 1 26 0;
#X connect 49 2 27 0;
#X connect 49 3 38 0;
#X connect 49 4 39 0;
#X connect 49 5 46 0;
#X connect 50 0 36 0;
#X connect 50 1 37 0;
#X connect 51 0 36 0;
#X connect 51 1 37 0;
#X connect 52 0 36 0;
#X connect 52 1 37 0;
#X connect 53 0 36 0;
#X connect 53 0 54 0;
#X connect 53 1 37 0;
#X connect 53 1 55 0;
#X connect 54 0 35 0;
#X connect 55 0 35 0;
#X connect 56 0 36 0;
#X connect 56 1 37 0;
#X connect 57 0 36 0;
#X connect 57 1 37 0;
#X connect 59 0 58 1;
#X connect 61 0 60 1;
#X connect 61 0 63 1;
#X connect 61 0 58 1;
#X connect 62 0 60 1;
#X connect 64 0 63 1;
#X connect 65 0 58 1;
