#N canvas 105 69 1630 736 12;
#X obj 15 888 udpsend;
#X msg 15 70 disconnect;
#X obj 28 860 packOSC;
#X msg 15 41 connect 127.0.0.1 1337;
#X obj 15 18 loadbang;
#X obj 1643 533 hsl 128 15 0 1 0 0 empty empty empty -2 -8 0 10 -262144
-1 -1 0 1;
#X text 1637 512 Eyes Openness;
#X obj 934 616 hsl 128 15 0 1 0 0 empty empty empty -2 -8 0 10 -262144
-1 -1 6400 1;
#X obj 1076 616 hsl 128 15 0 1 0 0 empty empty empty -2 -8 0 10 -262144
-1 -1 5300 1;
#X obj 1504 533 hsl 128 15 0 1 0 0 empty empty empty -2 -8 0 10 -262144
-1 -1 6400 1;
#X text 1498 512 Mouth Openness;
#X obj 73 290 tgl 15 0 empty empty empty 17 7 0 10 -262144 -1 -1 0
1;
#X text 71 272 Face Detected;
#X obj 73 482 metro 1000;
#X obj 73 506 int;
#X obj 102 506 + 1;
#X obj 73 388 sel 1;
#X msg 73 443 1;
#X msg 105 443 0;
#X msg 151 443 1;
#X msg 185 443 0;
#X obj 151 482 metro 1000;
#X obj 151 507 int;
#X obj 180 507 + 1;
#X obj 73 631 % 5;
#X msg 73 695 /encode;
#X obj 822 669 hsl 128 15 0 1 0 0 empty empty empty -2 -8 0 10 -262144
-1 -1 0 1;
#X obj 325 577 bng 15 250 50 0 empty empty empty 17 7 0 10 -262144
-1 -1;
#X obj 448 576 bng 15 250 50 0 empty empty empty 17 7 0 10 -262144
-1 -1;
#X text 928 596 Jitter speed;
#X text 1070 595 Jitter amplitude;
#X msg 965 695 /jitter_speed \$1;
#X text 1498 466 DIRECTIONS------------------------->;
#X obj 73 560 send interaction_time;
#X obj 151 585 send idle_time;
#X obj 766 18 receive interaction_time;
#X obj 943 18 receive idle_time;
#X obj 893 146 + 0.01;
#X floatatom 820 191 5 0 0 0 - - -;
#X obj 943 69 t b f;
#X obj 820 130 float;
#X obj 766 69 t b f;
#X obj 820 156 clip 0 1;
#X obj 820 215 change;
#X obj 15 914 tgl 15 0 empty empty empty 17 7 0 10 -262144 -1 -1 1
1;
#X obj 73 656 sel 4;
#X msg 943 44 0.01;
#X msg 766 44 -0.01;
#X obj 520 602 bng 15 250 50 0 empty empty empty 17 7 0 10 -262144
-1 -1;
#X msg 520 632 0;
#X obj 85 860 print;
#X obj 28 830 t a a;
#X obj 1407 697 list prepend /directions;
#X obj 1407 723 list trim;
#X msg 1546 648 eye_openness \$1;
#X obj 1501 553 * 40;
#X obj 1501 578 - 20;
#X msg 1407 648 in_awe \$1;
#X obj 1640 553 * 40;
#X obj 1640 578 - 20;
#X obj 1246 563 bng 15 250 50 0 empty empty empty 17 7 0 10 -262144
-1 -1;
#X floatatom 520 666 5 0 0 0 - - -;
#X floatatom 661 602 5 0 0 0 - - -;
#X msg 521 695 /goto_user_face \$1;
#X msg 662 695 /goto_dataset_face \$1;
#X msg 820 695 /user_vs_dataset \$1;
#X msg 1107 695 /jitter_amplitude \$1;
#X msg 1246 583 0;
#X msg 1248 695 /save_face \$1;
#X obj 1246 627 bng 15 250 50 0 empty empty empty 17 7 0 10 -262144
-1 -1;
#X msg 1246 647 1;
#X text 1243 545 Save final to dataset faces;
#X text 1243 609 Encode and save last detected face to user faces;
#X text 816 649 User vs dataset;
#X msg 260 695 /goto_rdm_user_face;
#X msg 383 695 /goto_rdm_dataset_face;
#X text 517 584 Go to user face x;
#X text 658 584 Go to dataset face x;
#X text 322 559 Go to random user face;
#X text 445 559 Go to random dataset face;
#X obj 477 424 bng 15 250 50 0 empty empty empty 17 7 0 10 -262144
-1 -1;
#X text 474 407 Generate random dataset face;
#X msg 478 460 /generate_rdm_dataset_face;
#X connect 0 0 44 0;
#X connect 1 0 0 0;
#X connect 2 0 0 0;
#X connect 3 0 0 0;
#X connect 4 0 3 0;
#X connect 5 0 58 0;
#X connect 7 0 31 0;
#X connect 8 0 66 0;
#X connect 9 0 55 0;
#X connect 11 0 16 0;
#X connect 13 0 14 0;
#X connect 14 0 15 0;
#X connect 14 0 24 0;
#X connect 14 0 33 0;
#X connect 15 0 14 1;
#X connect 16 0 17 0;
#X connect 16 0 20 0;
#X connect 16 1 18 0;
#X connect 16 1 19 0;
#X connect 17 0 13 0;
#X connect 18 0 13 0;
#X connect 18 0 14 0;
#X connect 19 0 21 0;
#X connect 20 0 21 0;
#X connect 20 0 22 0;
#X connect 21 0 22 0;
#X connect 22 0 23 0;
#X connect 22 0 34 0;
#X connect 23 0 22 1;
#X connect 24 0 45 0;
#X connect 25 0 51 0;
#X connect 26 0 65 0;
#X connect 27 0 74 0;
#X connect 28 0 75 0;
#X connect 31 0 51 0;
#X connect 35 0 47 0;
#X connect 36 0 46 0;
#X connect 37 0 40 1;
#X connect 38 0 43 0;
#X connect 39 0 40 0;
#X connect 39 1 37 1;
#X connect 40 0 42 0;
#X connect 41 0 40 0;
#X connect 41 1 37 1;
#X connect 42 0 37 0;
#X connect 42 0 38 0;
#X connect 43 0 26 0;
#X connect 45 0 25 0;
#X connect 46 0 39 0;
#X connect 47 0 41 0;
#X connect 48 0 49 0;
#X connect 49 0 61 0;
#X connect 51 0 2 0;
#X connect 51 1 50 0;
#X connect 52 0 53 0;
#X connect 53 0 51 0;
#X connect 54 0 52 0;
#X connect 55 0 56 0;
#X connect 56 0 57 0;
#X connect 57 0 52 0;
#X connect 58 0 59 0;
#X connect 59 0 54 0;
#X connect 60 0 67 0;
#X connect 61 0 63 0;
#X connect 62 0 64 0;
#X connect 63 0 51 0;
#X connect 64 0 51 0;
#X connect 65 0 51 0;
#X connect 66 0 51 0;
#X connect 67 0 68 0;
#X connect 68 0 51 0;
#X connect 69 0 70 0;
#X connect 70 0 68 0;
#X connect 74 0 51 0;
#X connect 75 0 51 0;
#X connect 80 0 82 0;
#X connect 82 0 51 0;
