#N struct 1036-draw-item float x float y float c float a float b;
#N struct 1037-rectangle float x float c;
#N struct 1037-pixel float x0 float y0 float x1 float y1;
#N canvas 105 123 1674 911 12;
#X obj 1469 157 bng 15 250 50 0 empty empty empty 17 7 0 10 -262144
-1 -1;
#X obj 1276 157 bng 15 250 50 0 empty empty empty 17 7 0 10 -262144
-1 -1;
#X text 1270 132 PITCH IN MIDI;
#X obj 972 163 bng 15 250 50 0 empty empty empty 17 7 0 10 -262144
-1 -1;
#X text 966 138 PITCH CONFIDENCE;
#X msg 972 182 1;
#X obj 786 157 bng 15 250 50 0 empty empty empty 17 7 0 10 -262144
-1 -1;
#X obj 30 9 inlet;
#X obj 30 62 t b b b b b b;
#X obj 1121 624 list length;
#X obj 972 581 t l l;
#X text 972 672 F0 Confidence;
#X text 1277 673 F0;
#X obj 30 865 outlet;
#X obj 657 403 cnv 20 100 20 empty empty MFCC_EXPLORER 20 12 0 14 -260097
-66577 0;
#X text 34 886 Done;
#X text 1463 132 LENGHT IN SAMPLES;
#X obj 1501 26 inlet;
#N canvas 2622 522 305 263 mstosamps 0;
#X obj 48 165 * 16;
#X msg 73 116 16000;
#X obj 73 141 / 1000;
#X obj 73 89 loadbang;
#X text 256 42 Sample rate;
#X obj 48 44 inlet;
#X obj 48 190 outlet;
#X text 89 44 Milliseconds;
#X text 97 189 Num Samples;
#X obj 214 42 inlet;
#X connect 0 0 6 0;
#X connect 1 0 2 0;
#X connect 2 0 0 1;
#X connect 3 0 1 0;
#X connect 5 0 0 0;
#X connect 9 0 2 0;
#X restore 1501 238 pd mstosamps;
#X obj 1469 265 float;
#X obj 1469 397 * 1;
#X floatatom 1487 373 5 0 0 0 - - -;
#X text 1469 673 Length in Samples;
#X obj 1486 327 cnv 15 100 20 empty empty Tempo 20 12 0 14 -4032 -66577
0;
#X obj 498 347 cyclone/pak 0.5 0.5;
#X floatatom 498 316 5 0 0 0 - - -;
#X obj 498 270 cnv 15 100 20 empty empty Noise 20 12 0 14 -4032 -66577
0;
#X floatatom 649 316 5 0 0 0 - - -;
#X obj 649 270 cnv 15 100 20 empty empty Tone 20 12 0 14 -4032 -66577
0;
#X msg 649 377 bang;
#X floatatom 649 432 5 0 0 1 Label - -;
#X floatatom 1501 53 5 0 0 0 - - -;
#X obj 30 777 cyclone/counter;
#X msg 541 633 bang;
#X msg 518 699 bang;
#X obj 30 171 bng 15 250 50 0 empty empty empty 17 7 0 10 -262144 -1
-1;
#X msg 53 622 bang;
#X msg 30 698 bang;
#X text 27 149 BUILD AUDIO FROM USER INPUT;
#X text 761 133 BUILD AUDIO FROM DATASET;
#N canvas 525 227 1094 760 dataset_audio_builder 0;
#X floatatom 649 487 10 0 0 0 - - -;
#X obj 197 26 inlet;
#X obj 197 484 fluid.bufcompose;
#X obj 197 699 outlet;
#X msg 150 575 bang;
#X obj 383 288 float;
#X obj 197 55 unpack f f;
#X text 273 56 Start Numframes;
#X obj 319 288 + 0;
#X floatatom 319 345 10 0 0 0 - - -;
#X msg 351 209 bang;
#X obj 319 264 float;
#X obj 287 234 t f b;
#X obj 351 234 t 0 0;
#X text 318 364 deststartframe;
#X obj 31 26 inlet;
#X msg 31 51 bang;
#X obj 430 321 + 0;
#X floatatom 430 346 10 0 0 0 - - -;
#X text 429 363 total frames;
#X obj 197 552 < 16000;
#X obj 197 576 sel 1;
#X obj 264 88 t f f f;
#X floatatom 264 162 10 0 0 0 - - -;
#X text 263 181 numframes;
#X floatatom 197 119 10 0 0 0 - - -;
#X text 196 138 startframe;
#X obj 197 347 pack f f f;
#X obj 197 523 float;
#X obj 446 166 dac~;
#X obj 197 608 del 0;
#X obj 31 77 t b b b;
#X obj 288 582 sel 0;
#X obj 288 697 outlet;
#X text 336 698 done;
#X obj 649 463 int;
#X obj 288 607 t b b;
#X obj 617 645 float;
#X obj 649 28 inlet;
#X obj 446 88 bng 15 250 50 0 empty \$1_play_dataset_audio Play_dataset_audio
17 7 0 10 -262144 -1 -1;
#X obj 446 135 *~ 0.15;
#X obj 703 373 print;
#X obj 446 110 tabplay~ dataset_audio_temp_\$0;
#X obj 617 697 array size dataset_audio_temp_\$0;
#X obj 316 484 array define dataset_audio_temp_\$0;
#X msg 197 422 reset \, destination \$1 \, source audio_corpus \, startframe
\$2 \, numframes \$3 \, numchans 1 \, gain 1 \, deststartframe \$4
\, bang;
#X obj 197 388 list prepend dataset_audio_temp_\$0;
#X obj 288 632 symbol dataset_audio_temp_\$0;
#X obj 695 339 list append dataset_audio_temp_\$0;
#X obj 704 301 bng 15 250 50 0 empty empty empty 17 7 0 10 -262144
-1 -1;
#X obj 574 85 cnv 15 100 20 empty empty empty 20 12 0 14 -4032 -66577
0;
#X connect 1 0 6 0;
#X connect 2 0 28 0;
#X connect 4 0 30 0;
#X connect 5 0 8 1;
#X connect 6 0 25 0;
#X connect 6 0 27 0;
#X connect 6 1 22 0;
#X connect 8 0 5 0;
#X connect 8 0 9 0;
#X connect 8 0 17 0;
#X connect 8 0 27 2;
#X connect 10 0 13 0;
#X connect 11 0 8 0;
#X connect 12 0 11 1;
#X connect 12 1 11 0;
#X connect 13 0 11 1;
#X connect 13 1 5 0;
#X connect 15 0 16 0;
#X connect 16 0 31 0;
#X connect 17 0 18 0;
#X connect 17 0 28 1;
#X connect 20 0 21 0;
#X connect 20 0 32 0;
#X connect 21 0 30 0;
#X connect 22 0 23 0;
#X connect 22 0 27 1;
#X connect 22 1 12 0;
#X connect 22 2 17 1;
#X connect 27 0 46 0;
#X connect 28 0 20 0;
#X connect 30 0 3 0;
#X connect 31 0 4 0;
#X connect 31 1 10 0;
#X connect 32 0 36 0;
#X connect 35 0 20 1;
#X connect 35 0 37 1;
#X connect 35 0 0 0;
#X connect 36 0 47 0;
#X connect 36 1 37 0;
#X connect 37 0 43 0;
#X connect 38 0 35 0;
#X connect 39 0 42 0;
#X connect 40 0 29 0;
#X connect 40 0 29 1;
#X connect 42 0 40 0;
#X connect 45 0 2 0;
#X connect 46 0 45 0;
#X connect 47 0 33 0;
#X connect 48 0 41 0;
#X connect 49 0 48 0;
#X restore 786 403 pd dataset_audio_builder;
#N canvas 846 148 853 866 user_audio_builder 0;
#X floatatom 648 632 10 0 0 0 - - -;
#X obj 197 630 fluid.bufcompose;
#X obj 383 436 float;
#X text 273 204 Start Numframes;
#X obj 319 436 + 0;
#X floatatom 319 493 10 0 0 0 - - -;
#X msg 351 357 bang;
#X obj 319 412 float;
#X obj 287 382 t f b;
#X obj 351 382 t 0 0;
#X text 318 512 deststartframe;
#X obj 29 15 inlet;
#X msg 29 40 bang;
#X obj 430 469 + 0;
#X floatatom 430 494 10 0 0 0 - - -;
#X text 429 511 total frames;
#X obj 197 698 < 16000;
#X obj 197 722 sel 1;
#X obj 264 236 t f f f;
#X floatatom 264 310 10 0 0 0 - - -;
#X text 263 329 numframes;
#X floatatom 197 267 10 0 0 0 - - -;
#X text 196 286 startframe;
#X obj 197 506 pack f f f;
#X obj 197 669 float;
#X obj 529 342 dac~;
#X obj 197 754 del 0;
#X obj 288 728 sel 0;
#X obj 288 817 outlet;
#X text 336 818 done;
#X obj 649 609 int;
#X obj 288 753 t b b;
#X obj 617 791 float;
#X msg 29 111 bang;
#X obj 197 153 array size analysis_buffer;
#X obj 773 752 print;
#X obj 649 11 inlet;
#X obj 29 69 t b b;
#X obj 197 203 t b f;
#X msg 197 228 0;
#X obj 529 291 *~ 0.15;
#X obj 529 242 bng 15 250 50 0 empty \$1_play_user_audio Play_user_audio
17 7 0 10 -262144 -1 -1;
#X obj 316 630 array define user_audio_temp_\$0;
#X obj 617 817 array size user_audio_temp_\$0;
#X obj 529 266 tabplay~ user_audio_temp_\$0;
#X obj 197 535 list prepend user_audio_temp_\$0;
#X msg 197 568 reset \, destination \$1 \, source analysis_buffer \,
startframe \$2 \, numframes \$3 \, numchans 1 \, gain 1 \, deststartframe
\$4 \, bang;
#X obj 288 789 symbol user_audio_temp_\$0;
#X obj 639 241 cnv 15 100 20 empty empty empty 20 12 0 14 -4032 -66577
0;
#X connect 1 0 24 0;
#X connect 2 0 4 1;
#X connect 4 0 2 0;
#X connect 4 0 5 0;
#X connect 4 0 13 0;
#X connect 4 0 23 2;
#X connect 6 0 9 0;
#X connect 7 0 4 0;
#X connect 8 0 7 1;
#X connect 8 1 7 0;
#X connect 9 0 7 1;
#X connect 9 1 2 0;
#X connect 11 0 12 0;
#X connect 12 0 37 0;
#X connect 13 0 14 0;
#X connect 13 0 24 1;
#X connect 16 0 17 0;
#X connect 16 0 27 0;
#X connect 17 0 26 0;
#X connect 18 0 19 0;
#X connect 18 0 23 1;
#X connect 18 1 8 0;
#X connect 18 2 13 1;
#X connect 23 0 45 0;
#X connect 24 0 16 0;
#X connect 26 0 33 0;
#X connect 27 0 31 0;
#X connect 30 0 16 1;
#X connect 30 0 32 1;
#X connect 30 0 0 0;
#X connect 31 0 47 0;
#X connect 31 1 32 0;
#X connect 32 0 43 0;
#X connect 33 0 34 0;
#X connect 34 0 38 0;
#X connect 36 0 30 0;
#X connect 37 0 33 0;
#X connect 37 1 6 0;
#X connect 38 0 39 0;
#X connect 38 1 18 0;
#X connect 39 0 21 0;
#X connect 39 0 23 0;
#X connect 40 0 25 0;
#X connect 40 0 25 1;
#X connect 41 0 44 0;
#X connect 44 0 40 0;
#X connect 45 0 46 0;
#X connect 46 0 1 0;
#X connect 47 0 28 0;
#X restore 30 417 pd user_audio_builder;
#N canvas 2622 612 305 263 mstosamps 0;
#X obj 73 141 / 1000;
#X obj 73 89 loadbang;
#X text 256 42 Sample rate;
#X obj 48 44 inlet;
#X obj 48 190 outlet;
#X text 89 44 Milliseconds;
#X text 97 189 Num Samples;
#X obj 214 42 inlet;
#X msg 73 116 48000;
#X obj 48 165 * 48;
#X connect 0 0 9 1;
#X connect 1 0 8 0;
#X connect 3 0 9 0;
#X connect 7 0 0 0;
#X connect 8 0 0 0;
#X connect 9 0 4 0;
#X restore 815 156 pd mstosamps;
#N canvas 2622 672 305 263 mstosamps 0;
#X obj 73 141 / 1000;
#X obj 73 89 loadbang;
#X text 256 42 Sample rate;
#X obj 48 44 inlet;
#X obj 48 190 outlet;
#X text 89 44 Milliseconds;
#X text 97 189 Num Samples;
#X obj 214 42 inlet;
#X msg 73 116 48000;
#X obj 48 165 * 48;
#X connect 0 0 9 1;
#X connect 1 0 8 0;
#X connect 3 0 9 0;
#X connect 7 0 0 0;
#X connect 8 0 0 0;
#X connect 9 0 4 0;
#X restore 174 169 pd mstosamps;
#X obj 30 802 sel 3;
#X text 719 719 lo_hz=20.0 \, hi_hz=8000.0 \, fft_size=1024 \, mel_bins=128
\, mfcc_bins=30 \, overlap=512 \, pad_end=True);
#X obj 30 34 t b l;
#X obj 1276 178 list;
#X obj 1308 331 list length;
#X obj 1276 203 t l l;
#X msg 564 544 source \$1;
#X obj 518 518 t b b a;
#X obj 518 660 fluid.bufloudness -source dataset_audio_temp -features
dataset-loudness -sr 48000 -hopsize 256;
#X obj 1469 648 array size \$1_audio_source;
#X obj 1276 648 array set \$1_pitch-0;
#X obj 1308 356 array size \$1_pitch-0;
#X obj 1121 648 array size \$1_pitch-1;
#X obj 972 648 array set \$1_pitch-1;
#X obj 643 519 symbol \$1_dataset-mfcc;
#X msg 643 544 features \$1;
#X msg 803 544 features \$1;
#X obj 803 519 symbol \$1_dataset-loudness;
#X obj 643 493 loadbang;
#X msg 76 530 source \$1;
#X msg 155 530 features \$1;
#X msg 296 530 features \$1;
#X obj 155 479 loadbang;
#X obj 30 492 t b b a;
#X obj 155 505 symbol \$1_user-mfcc;
#X obj 296 505 symbol \$1_user-loudness;
#X obj 1487 348 r \$1_sld_tempo_snd;
#X obj 649 291 r \$1_sld_tone_snd;
#X obj 498 291 r \$1_sld_noise_snd;
#X obj 498 403 mfcc_explorer_light_v3;
#X obj 240 474 bng 15 250 50 0 empty empty empty 17 7 0 10 -262144
-1 -1;
#X obj 30 659 fluid.bufloudness -source user_audio_temp -features user-loudness
-sr 48000 -hopsize 256;
#X obj 53 567 fluid.bufmfcc 30 -source user_audio_temp -features user-mfcc
-minfreq 20 -maxfreq 8000 -numbands 128 -numcoeffs 30 -sr 48000 -fftsettings
1024 -startcoeff 0;
#X obj 541 578 fluid.bufmfcc 30 -source dataset_audio_temp -features
dataset-mfcc -minfreq 20 -maxfreq 8000 -numbands 128 -numcoeffs 30
-sr 48000 -fftsettings 1024 -startcoeff 0;
#X connect 0 0 19 0;
#X connect 1 0 47 0;
#X connect 3 0 5 0;
#X connect 5 0 10 0;
#X connect 6 0 40 0;
#X connect 7 0 46 0;
#X connect 8 0 35 0;
#X connect 8 1 6 0;
#X connect 8 2 32 2;
#X connect 8 3 3 0;
#X connect 8 4 1 0;
#X connect 8 5 0 0;
#X connect 9 0 56 0;
#X connect 10 0 57 0;
#X connect 10 1 9 0;
#X connect 17 0 18 0;
#X connect 17 0 42 0;
#X connect 17 0 43 0;
#X connect 17 0 31 0;
#X connect 18 0 19 1;
#X connect 19 0 20 0;
#X connect 20 0 53 0;
#X connect 21 0 20 1;
#X connect 24 0 73 0;
#X connect 25 0 24 0;
#X connect 27 0 24 1;
#X connect 29 0 73 1;
#X connect 32 0 44 0;
#X connect 33 0 32 0;
#X connect 34 0 32 0;
#X connect 35 0 41 0;
#X connect 36 0 32 0;
#X connect 37 0 32 0;
#X connect 40 0 29 0;
#X connect 40 1 51 0;
#X connect 41 0 67 0;
#X connect 42 0 40 2;
#X connect 43 0 41 1;
#X connect 44 0 13 0;
#X connect 46 0 8 0;
#X connect 46 1 47 1;
#X connect 47 0 49 0;
#X connect 48 0 55 0;
#X connect 49 0 54 0;
#X connect 49 1 48 0;
#X connect 50 0 52 0;
#X connect 50 0 77 0;
#X connect 51 0 52 0;
#X connect 51 1 77 0;
#X connect 51 2 50 0;
#X connect 52 0 34 0;
#X connect 58 0 59 0;
#X connect 59 0 77 0;
#X connect 60 0 52 0;
#X connect 61 0 60 0;
#X connect 62 0 61 0;
#X connect 62 0 58 0;
#X connect 63 0 75 0;
#X connect 63 0 76 0;
#X connect 64 0 76 0;
#X connect 65 0 75 0;
#X connect 66 0 68 0;
#X connect 66 0 69 0;
#X connect 67 0 75 0;
#X connect 67 1 76 0;
#X connect 67 2 63 0;
#X connect 68 0 64 0;
#X connect 69 0 65 0;
#X connect 70 0 21 0;
#X connect 71 0 27 0;
#X connect 72 0 25 0;
#X connect 73 0 40 1;
#X connect 73 1 30 0;
#X connect 74 0 68 0;
#X connect 74 0 69 0;
#X connect 75 0 37 0;
#X connect 76 0 36 0;
#X connect 77 0 33 0;
