#N struct 1060-draw-item float x float y float c float a float b;
#N struct 1061-rectangle float x float c;
#N struct 1061-pixel float x0 float y0 float x1 float y1;
#N canvas 1952 114 1701 806 12;
#X obj 1469 146 bng 15 250 50 0 empty empty empty 17 7 0 10 -262144
-1 -1;
#X obj 1269 146 bng 15 250 50 0 empty empty empty 17 7 0 10 -262144
-1 -1;
#X text 1263 121 PITCH IN MIDI;
#X obj 993 152 bng 15 250 50 0 empty empty empty 17 7 0 10 -262144
-1 -1;
#X text 987 127 PITCH CONFIDENCE;
#X msg 993 171 1;
#X obj 661 148 bng 15 250 50 0 empty empty empty 17 7 0 10 -262144
-1 -1;
#X obj 661 168 t b b b;
#X msg 767 256 bang;
#X obj 780 316 list;
#X obj 661 345 list;
#X obj 686 316 list prepend;
#X text 655 123 LOUDNESS IN DB;
#X obj 42 415 mfcc_explorer;
#X obj 266 149 bng 15 250 50 0 empty empty empty 17 7 0 10 -262144
-1 -1;
#X obj 326 335 / 100;
#X obj 326 310 random 100;
#X obj 266 172 t b b b;
#X obj 405 335 / 100;
#X obj 405 310 random 100;
#X obj 326 363 pack;
#X text 433 205 RESOLUTION;
#X obj 42 638 array set mfcc-0;
#X obj 168 638 array size mfcc-0;
#X obj 405 229 t f f;
#N canvas 1259 239 450 523 uzi_mfccs 0;
#X msg 105 194 symbol mfccs-\$1;
#X obj 51 153 t b f f;
#X obj 53 29 inlet;
#X obj 51 278 outlet;
#X obj 105 278 outlet;
#X obj 53 74 t b f;
#X floatatom 51 225 5 0 0 0 - - -;
#X msg 196 112 set \$1;
#X obj 53 111 cyclone/uzi 30 0;
#X connect 0 0 4 0;
#X connect 1 0 6 0;
#X connect 1 1 0 0;
#X connect 2 0 5 0;
#X connect 5 0 8 0;
#X connect 5 1 7 0;
#X connect 6 0 3 0;
#X connect 7 0 6 0;
#X connect 8 2 1 0;
#X restore 168 611 pd uzi_mfccs;
#X text 262 125 MFCC;
#X obj 405 279 t b f;
#X obj 42 467 drip;
#X obj 42 524 cyclone/counter;
#X obj 42 443 t l b;
#X obj 42 492 t b f;
#X msg 42 550 symbol mfccs-\$1;
#X obj 42 611 float;
#X obj 42 575 t b s;
#X obj 19 15 inlet;
#X obj 19 45 t b b b b b b;
#X obj 811 614 list length;
#X obj 661 571 t l l;
#X text 661 664 LOUDNESS;
#X obj 661 638 array set loudness-0;
#X obj 811 638 array size loudness-0;
#X obj 1121 613 list length;
#X obj 993 570 t l l;
#X text 993 661 F0 Confidence;
#X obj 993 637 array set pitch-1;
#X obj 1121 637 array size pitch-1;
#X text 1270 662 F0;
#X obj 1469 637 array size audio_source;
#X obj 19 739 outlet;
#X obj 142 415 cnv 20 100 20 empty empty MFCC_EXPLORER 20 12 0 14 -260097
-66577 0;
#X msg 1269 253 copy array_score;
#X text 23 760 Done;
#X obj 686 197 cyclone/uzi 60;
#X obj 289 253 cyclone/uzi 150 0;
#X text 1463 121 LENGHT IN SAMPLES;
#X obj 1378 563 loadbang;
#X msg 1378 588 pitch-0;
#X obj 1269 637 maxlib/arraycopy;
#X obj 1378 613 symbol;
#X obj 1301 217 array size pitch-0;
#X obj 1301 191 array size array_score;
#X obj 1269 166 t b b;
#X obj 1501 15 inlet;
#N canvas 2622 462 305 263 mstosamps 0;
#X obj 48 165 * 16;
#X msg 73 116 16000;
#X obj 73 141 / 1000;
#X obj 73 89 loadbang;
#X text 256 42 Sample rate;
#X obj 48 44 inlet;
#X obj 48 190 outlet;
#X text 89 44 Milliseconds;
#X text 97 189 Num Samples;
#X obj 214 42 inlet;
#X connect 0 0 6 0;
#X connect 1 0 2 0;
#X connect 2 0 0 1;
#X connect 3 0 1 0;
#X connect 5 0 0 0;
#X connect 9 0 2 0;
#X restore 1501 227 pd mstosamps;
#X obj 1469 254 float;
#X text 41 664 MFCC;
#X obj 1573 550 print;
#X obj 686 222 cyclone/drunk 60 6;
#X obj 686 247 - 70;
#X msg 405 205 1;
#X msg 326 387 11;
#X obj 1469 386 * 1;
#X obj 1487 337 r sld_tempo_snd;
#X floatatom 1487 362 5 0 0 0 - - -;
#X text 354 387 ZONE;
#X text 1469 662 Length in Samples;
#X obj 1486 316 cnv 15 100 20 empty empty empty 20 12 0 14 -4032 -66577
0;
#X obj 42 359 cyclone/pak 0.5 0.5;
#X floatatom 42 328 5 0 0 0 - - -;
#X obj 42 282 cnv 15 100 20 empty empty empty 20 12 0 14 -4032 -66577
0;
#X floatatom 172 328 5 0 0 0 - - -;
#X obj 172 282 cnv 15 100 20 empty empty empty 20 12 0 14 -4032 -66577
0;
#X obj 42 303 r sld_noise_snd;
#X obj 172 303 r sld_tone_snd;
#X text 188 282 Tone;
#X text 58 282 Noise;
#X text 1502 316 Tempo;
#X connect 0 0 65 0;
#X connect 1 0 62 0;
#X connect 3 0 5 0;
#X connect 5 0 43 0;
#X connect 6 0 7 0;
#X connect 7 0 10 0;
#X connect 7 1 53 0;
#X connect 7 2 8 0;
#X connect 8 0 11 1;
#X connect 9 0 11 1;
#X connect 10 0 38 0;
#X connect 11 0 9 0;
#X connect 11 0 10 1;
#X connect 13 0 30 0;
#X connect 14 0 17 0;
#X connect 15 0 20 0;
#X connect 16 0 15 0;
#X connect 17 1 54 0;
#X connect 17 2 70 0;
#X connect 18 0 20 1;
#X connect 19 0 18 0;
#X connect 20 0 71 0;
#X connect 24 0 54 1;
#X connect 24 1 25 0;
#X connect 25 0 23 0;
#X connect 25 1 23 1;
#X connect 27 0 19 0;
#X connect 27 0 16 0;
#X connect 27 1 22 1;
#X connect 28 0 31 0;
#X connect 29 0 32 0;
#X connect 30 0 28 0;
#X connect 30 1 29 2;
#X connect 31 0 29 0;
#X connect 31 1 33 1;
#X connect 32 0 34 0;
#X connect 33 0 22 0;
#X connect 34 0 33 0;
#X connect 34 1 22 2;
#X connect 35 0 36 0;
#X connect 36 0 49 0;
#X connect 36 1 14 0;
#X connect 36 2 6 0;
#X connect 36 3 3 0;
#X connect 36 4 1 0;
#X connect 36 5 0 0;
#X connect 37 0 41 0;
#X connect 38 0 40 0;
#X connect 38 1 37 0;
#X connect 42 0 46 0;
#X connect 43 0 45 0;
#X connect 43 1 42 0;
#X connect 51 0 58 0;
#X connect 53 0 68 0;
#X connect 54 2 27 0;
#X connect 56 0 57 0;
#X connect 57 0 59 0;
#X connect 59 0 58 1;
#X connect 61 0 60 0;
#X connect 62 0 51 0;
#X connect 62 1 61 0;
#X connect 63 0 64 0;
#X connect 64 0 65 1;
#X connect 65 0 72 0;
#X connect 68 0 69 0;
#X connect 69 0 11 0;
#X connect 70 0 24 0;
#X connect 71 0 13 1;
#X connect 72 0 48 0;
#X connect 72 0 67 0;
#X connect 73 0 74 0;
#X connect 74 0 72 1;
#X connect 78 0 13 0;
#X connect 79 0 78 0;
#X connect 81 0 78 1;
#X connect 83 0 79 0;
#X connect 84 0 81 0;
