#N canvas 1258 238 450 560 12;
#X obj 158 251 list store;
#X obj 230 140 list prepend append;
#X obj 230 166 list trim;
#X obj 190 311 list length;
#X obj 81 252 random;
#X msg 81 278 get \$1 1;
#X obj 158 277 t l l;
#X obj 81 311 list store;
#X obj 158 22 inlet;
#X obj 230 22 inlet;
#X obj 81 22 inlet;
#X obj 81 400 outlet;
#X connect 0 0 6 0;
#X connect 1 0 2 0;
#X connect 2 0 0 0;
#X connect 3 0 4 1;
#X connect 4 0 5 0;
#X connect 5 0 7 0;
#X connect 6 0 7 1;
#X connect 6 1 3 0;
#X connect 7 0 11 0;
#X connect 8 0 0 0;
#X connect 9 0 1 0;
#X connect 10 0 4 0;
