#N canvas 944 196 678 675 12;
#X msg 38 420 open 0;
#X msg 38 446 close 0;
#X msg 37 472 devices;
#X obj 113 605 comport 0 9600;
#X obj 113 43 inlet;
#X floatatom 113 68 5 0 0 1 State - -;
#N canvas 2302 861 450 300 lfo 0;
#X obj 42 126 line 0;
#X obj 42 71 tgl 15 0 empty empty empty 17 7 0 10 -262144 -1 -1 1 1
;
#X obj 147 163 <= 0.01;
#X obj 205 163 >= 0.99;
#X obj 147 213 sel 1;
#X obj 205 213 sel 1;
#X msg 147 238 1;
#X msg 205 238 0;
#X obj 42 21 loadbang;
#X msg 42 46 1;
#X obj 42 239 outlet;
#X obj 147 188 change;
#X obj 205 188 change;
#X msg 42 97 \$1 2500;
#X msg 115 73 0 0;
#X obj 115 21 inlet;
#X obj 115 46 t b b;
#X connect 0 0 2 0;
#X connect 0 0 3 0;
#X connect 0 0 10 0;
#X connect 1 0 13 0;
#X connect 2 0 11 0;
#X connect 3 0 12 0;
#X connect 4 0 6 0;
#X connect 5 0 7 0;
#X connect 6 0 1 0;
#X connect 7 0 1 0;
#X connect 8 0 9 0;
#X connect 9 0 1 0;
#X connect 11 0 4 0;
#X connect 12 0 5 0;
#X connect 13 0 0 0;
#X connect 14 0 0 0;
#X connect 15 0 16 0;
#X connect 16 0 14 0;
#X connect 16 1 6 0;
#X restore 174 338 pd lfo;
#X floatatom 113 338 5 0 0 0 - - -;
#X obj 236 44 inlet;
#X obj 236 338 float;
#X obj 113 90 == 0;
#X obj 113 187 sel 1;
#X msg 113 267 1;
#X obj 158 187 sel 0;
#X obj 158 242 t b b;
#X obj 113 371 cyclone/switch 2 1;
#X msg 190 267 2;
#X obj 38 369 loadbang;
#X obj 38 394 delay 2500;
#X obj 236 69 / 1;
#X obj 113 574 spigot;
#X obj 152 554 tgl 15 0 empty empty empty 17 7 0 10 -262144 -1 -1 1
1;
#X floatatom 172 575 5 0 0 0 - - -;
#X msg 174 311 bang;
#X obj 113 242 t b b;
#N canvas 2186 96 883 479 rms_to_led 0;
#X obj 65 88 > 0;
#X obj 26 152 spigot;
#X obj 26 58 t f f;
#X obj 97 152 sel 0;
#X obj 157 177 delay 2000;
#X obj 26 235 line 0;
#X msg 26 203 \$1 0;
#X msg 157 202 0 750;
#X obj 26 26 inlet;
#X obj 26 309 outlet;
#X obj 224 152 r delay_user_input_to_face_encode;
#X obj 533 173 line 0;
#X obj 616 124 == 1;
#X obj 616 174 sel 1;
#X obj 616 149 change;
#X msg 533 124 1;
#X obj 533 33 inlet;
#X msg 566 124 0 200;
#X obj 65 113 t f f;
#X msg 97 202 0.8 250;
#X connect 0 0 18 0;
#X connect 1 0 6 0;
#X connect 2 0 1 0;
#X connect 2 1 0 0;
#X connect 3 0 4 0;
#X connect 3 0 19 0;
#X connect 4 0 7 0;
#X connect 5 0 9 0;
#X connect 6 0 5 0;
#X connect 7 0 5 0;
#X connect 8 0 2 0;
#X connect 10 0 4 1;
#X connect 11 0 12 0;
#X connect 11 0 9 0;
#X connect 12 0 14 0;
#X connect 13 0 17 0;
#X connect 14 0 13 0;
#X connect 15 0 11 0;
#X connect 16 0 15 0;
#X connect 17 0 11 0;
#X connect 18 0 3 0;
#X connect 18 1 1 1;
#X connect 19 0 5 0;
#X restore 236 311 pd rms_to_led;
#X obj 113 115 change;
#X obj 219 605 outlet;
#X msg 219 575 /led_ring_luminosity \$1;
#X obj 116 424 hsl 128 15 0 1 0 0 empty empty empty -2 -8 0 10 -262144
-1 -1 0 1;
#X obj 113 446 cyclone/scale 0 1 0 1 2;
#X obj 113 472 cyclone/scale 0 1 1 30;
#X obj 396 42 inlet;
#X connect 0 0 3 0;
#X connect 1 0 3 0;
#X connect 2 0 3 0;
#X connect 4 0 5 0;
#X connect 5 0 10 0;
#X connect 6 0 15 1;
#X connect 7 0 15 0;
#X connect 8 0 19 0;
#X connect 9 0 15 2;
#X connect 10 0 26 0;
#X connect 11 0 24 0;
#X connect 12 0 7 0;
#X connect 13 0 14 0;
#X connect 14 0 25 1;
#X connect 14 1 16 0;
#X connect 15 0 30 0;
#X connect 16 0 7 0;
#X connect 17 0 18 0;
#X connect 18 0 0 0;
#X connect 19 0 25 0;
#X connect 20 0 3 0;
#X connect 21 0 20 1;
#X connect 22 0 3 0;
#X connect 23 0 6 0;
#X connect 24 0 12 0;
#X connect 24 1 23 0;
#X connect 25 0 9 0;
#X connect 26 0 13 0;
#X connect 26 0 11 0;
#X connect 28 0 27 0;
#X connect 29 0 30 0;
#X connect 30 0 31 0;
#X connect 30 0 28 0;
#X connect 31 0 20 0;
#X connect 32 0 21 0;
