#N struct 1011-draw-item float x float y float c float a float b;
#N struct 1012-rectangle float x float c;
#N struct 1012-pixel float x0 float y0 float x1 float y1;
#N canvas 1920 96 1920 1104 12;
#X obj 184 51 cnv 15 300 300 empty empty VOICE_ANALYSIS 20 12 0 14
-261234 -66577 0;
#X obj 591 50 cnv 15 300 360 empty empty FROM_MELODY_GENERATOR 20 12
0 14 -261682 -66577 0;
#X obj 184 380 cnv 15 300 400 empty empty MELODY_GENERATOR 20 12 0
14 -261682 -66577 0;
#X obj 591 422 cnv 15 300 290 empty empty VOICE_GENERATOR 20 12 0 14
-204786 -66577 0;
#X obj 174 723 udpsend;
#X msg 228 699 disconnect;
#X obj 64 676 loadbang;
#X obj 211 746 tgl 15 0 empty empty empty 17 7 0 10 -262144 -1 -1 1
1;
#X obj 213 426 bng 15 250 50 0 empty empty empty 17 7 0 10 -262144
-1 -1;
#X obj 603 121 unpackOSC;
#X obj 603 147 routeOSC /exported_file;
#X text 228 722 TO MELODY GENERATOR;
#X text 716 97 FROM MELODY GENERATOR;
#X floatatom 191 472 5 0 0 0 - - -;
#X floatatom 191 496 5 0 0 0 - - -;
#X text 232 472 Number of MIDI files to generate;
#X text 232 520 Melody temperature;
#X floatatom 191 520 5 0 0 0 - - -;
#X obj 603 284 midi2array;
#X msg 603 248 \$1/midi_score;
#X obj 603 225 symbol;
#X text 232 544 Melody primer MIDI (filepath);
#X text 232 497 Number of steps;
#X text 232 424 Predict;
#X obj 222 327 bng 15 250 50 0 empty empty empty 17 7 0 10 -262144
-1 -1;
#X text 234 304 Midi filepath;
#X obj 603 172 t a b;
#X obj 635 196 bng 15 250 50 0 empty empty empty 17 7 0 10 -262144
-1 -1;
#X msg 64 699 connect 127.0.0.1 8001;
#X obj 603 97 udpreceive 8000;
#X obj 603 348 bng 15 250 50 0 empty empty empty 17 7 0 10 -262144
-1 -1;
#X text 233 447 Midi file output directory (folderpath);
#N canvas 97 261 1681 268 osc_format 0;
#X obj 11 162 list trim;
#X obj 11 187 packOSC;
#X msg 11 88 /predict;
#X obj 79 88 list prepend /output_dir;
#X obj 256 88 list prepend /num_outputs;
#X obj 440 88 list prepend /num_steps;
#X obj 610 88 list prepend /temperature;
#X obj 792 88 list prepend /primer_midi;
#X obj 256 62 int;
#X obj 440 62 int;
#X obj 11 18 inlet;
#X obj 79 18 inlet;
#X obj 256 18 inlet;
#X obj 440 20 inlet;
#X obj 610 20 inlet;
#X obj 792 20 inlet;
#X obj 11 212 outlet;
#X obj 975 20 inlet;
#X obj 1214 20 inlet;
#X obj 975 88 list prepend /primer_steps_scaler;
#X obj 1214 88 list prepend /num_steps_scaler;
#X obj 1434 20 inlet;
#X obj 1434 88 list prepend /primer_toggle;
#X connect 0 0 1 0;
#X connect 1 0 16 0;
#X connect 2 0 0 0;
#X connect 3 0 0 0;
#X connect 4 0 0 0;
#X connect 5 0 0 0;
#X connect 6 0 0 0;
#X connect 7 0 0 0;
#X connect 8 0 4 0;
#X connect 9 0 5 0;
#X connect 10 0 2 0;
#X connect 11 0 3 0;
#X connect 12 0 8 0;
#X connect 13 0 9 0;
#X connect 14 0 6 0;
#X connect 15 0 7 0;
#X connect 17 0 19 0;
#X connect 18 0 20 0;
#X connect 19 0 0 0;
#X connect 20 0 0 0;
#X connect 21 0 22 0;
#X connect 22 0 0 0;
#X restore 132 647 pd osc_format;
#N canvas 96 114 1262 884 ddsp_buffers 0;
#N canvas 0 22 450 278 (subpatch) 0;
#X array pitch-0 600 float 2;
#X coords 0 4000 600 20 500 30 1 0 0;
#X restore 368 640 graph;
#N canvas 0 22 450 278 (subpatch) 0;
#X array pitch-1 1 float 2;
#X coords 0 1 1 0 500 30 1 0 0;
#X restore 368 688 graph;
#N canvas 0 22 450 278 (subpatch) 0;
#X array phoneme 1 float 0;
#X coords 0 75 1 0 500 30 1 0 0;
#X restore 368 759 graph;
#N canvas 0 22 450 278 (subpatch) 0;
#X array audio_source 192000 float 0;
#X coords 0 1 191999 -1 500 30 1 0 0;
#X restore 369 822 graph;
#N canvas 0 22 450 278 (subpatch) 0;
#X array dataset-mfcc-0 282 float 0;
#X coords 0 300 281 -300 300 15 1 0 0;
#X restore 636 19 graph;
#N canvas 0 22 450 278 (subpatch) 0;
#X array dataset-mfcc-1 282 float 0;
#X coords 0 300 281 -300 300 15 1 0 0;
#X restore 636 51 graph;
#N canvas 0 22 450 278 (subpatch) 0;
#X array dataset-mfcc-2 282 float 0;
#X coords 0 300 281 -300 300 15 1 0 0;
#X restore 636 84 graph;
#N canvas 0 22 450 278 (subpatch) 0;
#X array dataset-mfcc-3 282 float 0;
#X coords 0 300 281 -300 300 15 1 0 0;
#X restore 636 116 graph;
#N canvas 0 22 450 278 (subpatch) 0;
#X array dataset-mfcc-4 282 float 0;
#X coords 0 300 281 -300 300 15 1 0 0;
#X restore 637 149 graph;
#N canvas 0 22 450 278 (subpatch) 0;
#X array dataset-mfcc-5 282 float 0;
#X coords 0 300 281 -300 300 15 1 0 0;
#X restore 637 181 graph;
#N canvas 0 22 450 278 (subpatch) 0;
#X array dataset-mfcc-6 282 float 0;
#X coords 0 300 281 -300 300 15 1 0 0;
#X restore 637 213 graph;
#N canvas 0 22 450 278 (subpatch) 0;
#X array dataset-mfcc-7 282 float 0;
#X coords 0 300 281 -300 300 15 1 0 0;
#X restore 637 246 graph;
#N canvas 0 22 450 278 (subpatch) 0;
#X array dataset-mfcc-8 282 float 0;
#X coords 0 300 281 -300 300 15 1 0 0;
#X restore 637 278 graph;
#N canvas 0 22 450 278 (subpatch) 0;
#X array dataset-mfcc-9 282 float 0;
#X coords 0 300 281 -300 300 15 1 0 0;
#X restore 637 313 graph;
#N canvas 0 22 450 278 (subpatch) 0;
#X array dataset-mfcc-10 282 float 0;
#X coords 0 300 281 -300 300 15 1 0 0;
#X restore 637 348 graph;
#N canvas 0 22 450 278 (subpatch) 0;
#X array dataset-mfcc-11 282 float 0;
#X coords 0 300 281 -300 300 15 1 0 0;
#X restore 637 383 graph;
#N canvas 0 22 450 278 (subpatch) 0;
#X array dataset-mfcc-12 282 float 0;
#X coords 0 300 281 -300 300 15 1 0 0;
#X restore 637 417 graph;
#N canvas 0 22 450 278 (subpatch) 0;
#X array dataset-mfcc-13 282 float 0;
#X coords 0 300 281 -300 300 15 1 0 0;
#X restore 638 450 graph;
#N canvas 0 22 450 278 (subpatch) 0;
#X array dataset-mfcc-14 282 float 0;
#X coords 0 300 281 -300 300 15 1 0 0;
#X restore 638 484 graph;
#N canvas 0 22 450 278 (subpatch) 0;
#X array dataset-mfcc-15 282 float 0;
#X coords 0 300 281 -300 300 15 1 0 0;
#X restore 942 19 graph;
#N canvas 0 22 450 278 (subpatch) 0;
#X array dataset-mfcc-16 282 float 0;
#X coords 0 300 281 -300 300 15 1 0 0;
#X restore 942 51 graph;
#N canvas 0 22 450 278 (subpatch) 0;
#X array dataset-mfcc-17 282 float 0;
#X coords 0 300 281 -300 300 15 1 0 0;
#X restore 942 84 graph;
#N canvas 0 22 450 278 (subpatch) 0;
#X array dataset-mfcc-18 282 float 0;
#X coords 0 300 281 -300 300 15 1 0 0;
#X restore 942 116 graph;
#N canvas 0 22 450 278 (subpatch) 0;
#X array dataset-mfcc-19 282 float 0;
#X coords 0 300 281 -300 300 15 1 0 0;
#X restore 943 149 graph;
#N canvas 0 22 450 278 (subpatch) 0;
#X array dataset-mfcc-20 282 float 0;
#X coords 0 300 281 -300 300 15 1 0 0;
#X restore 943 181 graph;
#N canvas 0 22 450 278 (subpatch) 0;
#X array dataset-mfcc-21 282 float 0;
#X coords 0 300 281 -300 300 15 1 0 0;
#X restore 943 213 graph;
#N canvas 0 22 450 278 (subpatch) 0;
#X array dataset-mfcc-22 282 float 0;
#X coords 0 300 281 -300 300 15 1 0 0;
#X restore 943 246 graph;
#N canvas 0 22 450 278 (subpatch) 0;
#X array dataset-mfcc-23 282 float 0;
#X coords 0 300 281 -300 300 15 1 0 0;
#X restore 943 278 graph;
#N canvas 0 22 450 278 (subpatch) 0;
#X array dataset-mfcc-24 282 float 0;
#X coords 0 300 281 -300 300 15 1 0 0;
#X restore 943 313 graph;
#N canvas 0 22 450 278 (subpatch) 0;
#X array dataset-mfcc-25 282 float 0;
#X coords 0 300 281 -300 300 15 1 0 0;
#X restore 943 348 graph;
#N canvas 0 22 450 278 (subpatch) 0;
#X array dataset-mfcc-26 282 float 0;
#X coords 0 300 281 -300 300 15 1 0 0;
#X restore 943 383 graph;
#N canvas 0 22 450 278 (subpatch) 0;
#X array dataset-mfcc-27 282 float 0;
#X coords 0 300 281 -300 300 15 1 0 0;
#X restore 943 417 graph;
#N canvas 0 22 450 278 (subpatch) 0;
#X array dataset-mfcc-28 282 float 0;
#X coords 0 300 281 -300 300 15 1 0 0;
#X restore 944 450 graph;
#N canvas 0 22 450 278 (subpatch) 0;
#X array dataset-mfcc-29 282 float 0;
#X coords 0 300 281 -300 300 15 1 0 0;
#X restore 944 484 graph;
#N canvas 0 22 450 278 (subpatch) 0;
#X array dataset-loudness-0 2251 float 2;
#X coords 0 6 2251 -80 500 30 1 0 0;
#X restore 637 526 graph;
#N canvas 0 22 450 278 (subpatch) 0;
#X array dataset-loudness-1 2251 float 2;
#X coords 0 6 2251 -80 500 30 1 0 0;
#X restore 638 575 graph;
#N canvas 0 22 450 278 (subpatch) 0;
#X array user-mfcc-0 282 float 0;
#X coords 0 300 281 -300 300 15 1 0 0;
#X restore 20 19 graph;
#N canvas 0 22 450 278 (subpatch) 0;
#X array user-mfcc-1 282 float 0;
#X coords 0 300 281 -300 300 15 1 0 0;
#X restore 20 51 graph;
#N canvas 0 22 450 278 (subpatch) 0;
#X array user-mfcc-2 282 float 0;
#X coords 0 300 281 -300 300 15 1 0 0;
#X restore 20 84 graph;
#N canvas 0 22 450 278 (subpatch) 0;
#X array user-mfcc-3 282 float 0;
#X coords 0 300 281 -300 300 15 1 0 0;
#X restore 20 116 graph;
#N canvas 0 22 450 278 (subpatch) 0;
#X array user-mfcc-4 282 float 0;
#X coords 0 300 281 -300 300 15 1 0 0;
#X restore 21 149 graph;
#N canvas 0 22 450 278 (subpatch) 0;
#X array user-mfcc-5 282 float 0;
#X coords 0 300 281 -300 300 15 1 0 0;
#X restore 21 181 graph;
#N canvas 0 22 450 278 (subpatch) 0;
#X array user-mfcc-6 282 float 0;
#X coords 0 300 281 -300 300 15 1 0 0;
#X restore 21 213 graph;
#N canvas 0 22 450 278 (subpatch) 0;
#X array user-mfcc-7 282 float 0;
#X coords 0 300 281 -300 300 15 1 0 0;
#X restore 21 246 graph;
#N canvas 0 22 450 278 (subpatch) 0;
#X array user-mfcc-8 282 float 0;
#X coords 0 300 281 -300 300 15 1 0 0;
#X restore 21 278 graph;
#N canvas 0 22 450 278 (subpatch) 0;
#X array user-mfcc-9 282 float 0;
#X coords 0 300 281 -300 300 15 1 0 0;
#X restore 21 313 graph;
#N canvas 0 22 450 278 (subpatch) 0;
#X array user-mfcc-10 282 float 0;
#X coords 0 300 281 -300 300 15 1 0 0;
#X restore 21 348 graph;
#N canvas 0 22 450 278 (subpatch) 0;
#X array user-mfcc-11 282 float 0;
#X coords 0 300 281 -300 300 15 1 0 0;
#X restore 21 383 graph;
#N canvas 0 22 450 278 (subpatch) 0;
#X array user-mfcc-12 282 float 0;
#X coords 0 300 281 -300 300 15 1 0 0;
#X restore 21 417 graph;
#N canvas 0 22 450 278 (subpatch) 0;
#X array user-mfcc-13 282 float 0;
#X coords 0 300 281 -300 300 15 1 0 0;
#X restore 22 450 graph;
#N canvas 0 22 450 278 (subpatch) 0;
#X array user-mfcc-14 282 float 0;
#X coords 0 300 281 -300 300 15 1 0 0;
#X restore 22 484 graph;
#N canvas 0 22 450 278 (subpatch) 0;
#X array user-mfcc-15 282 float 0;
#X coords 0 300 281 -300 300 15 1 0 0;
#X restore 326 19 graph;
#N canvas 0 22 450 278 (subpatch) 0;
#X array user-mfcc-16 282 float 0;
#X coords 0 300 281 -300 300 15 1 0 0;
#X restore 326 51 graph;
#N canvas 0 22 450 278 (subpatch) 0;
#X array user-mfcc-17 282 float 0;
#X coords 0 300 281 -300 300 15 1 0 0;
#X restore 326 84 graph;
#N canvas 0 22 450 278 (subpatch) 0;
#X array user-mfcc-18 282 float 0;
#X coords 0 300 281 -300 300 15 1 0 0;
#X restore 326 116 graph;
#N canvas 0 22 450 278 (subpatch) 0;
#X array user-mfcc-19 282 float 0;
#X coords 0 300 281 -300 300 15 1 0 0;
#X restore 327 149 graph;
#N canvas 0 22 450 278 (subpatch) 0;
#X array user-mfcc-20 282 float 0;
#X coords 0 300 281 -300 300 15 1 0 0;
#X restore 327 181 graph;
#N canvas 0 22 450 278 (subpatch) 0;
#X array user-mfcc-21 282 float 0;
#X coords 0 300 281 -300 300 15 1 0 0;
#X restore 327 213 graph;
#N canvas 0 22 450 278 (subpatch) 0;
#X array user-mfcc-22 282 float 0;
#X coords 0 300 281 -300 300 15 1 0 0;
#X restore 327 246 graph;
#N canvas 0 22 450 278 (subpatch) 0;
#X array user-mfcc-23 282 float 0;
#X coords 0 300 281 -300 300 15 1 0 0;
#X restore 327 278 graph;
#N canvas 0 22 450 278 (subpatch) 0;
#X array user-mfcc-24 282 float 0;
#X coords 0 300 281 -300 300 15 1 0 0;
#X restore 327 313 graph;
#N canvas 0 22 450 278 (subpatch) 0;
#X array user-mfcc-25 282 float 0;
#X coords 0 300 281 -300 300 15 1 0 0;
#X restore 327 348 graph;
#N canvas 0 22 450 278 (subpatch) 0;
#X array user-mfcc-26 282 float 0;
#X coords 0 300 281 -300 300 15 1 0 0;
#X restore 327 383 graph;
#N canvas 0 22 450 278 (subpatch) 0;
#X array user-mfcc-27 282 float 0;
#X coords 0 300 281 -300 300 15 1 0 0;
#X restore 327 417 graph;
#N canvas 0 22 450 278 (subpatch) 0;
#X array user-mfcc-28 282 float 0;
#X coords 0 300 281 -300 300 15 1 0 0;
#X restore 328 450 graph;
#N canvas 0 22 450 278 (subpatch) 0;
#X array user-mfcc-29 282 float 0;
#X coords 0 300 281 -300 300 15 1 0 0;
#X restore 328 484 graph;
#N canvas 0 22 450 278 (subpatch) 0;
#X array user-loudness-0 2251 float 2;
#X coords 0 6 2251 -80 500 30 1 0 0;
#X restore 21 523 graph;
#N canvas 0 22 450 278 (subpatch) 0;
#X array user-loudness-1 2251 float 2;
#X coords 0 6 2251 -80 500 30 1 0 0;
#X restore 22 572 graph;
#X restore 767 379 pd ddsp_buffers;
#X obj 566 659 udpsend;
#X msg 620 635 disconnect;
#X obj 456 612 loadbang;
#X obj 603 682 tgl 15 0 empty empty empty 17 7 0 10 -262144 -1 -1 1
1;
#X text 620 658 TO DDSP;
#X msg 456 635 connect 127.0.0.1 8201;
#N canvas 1933 196 1883 731 send_audio_features 0;
#X obj 1281 429 list prepend /f0;
#X obj 1083 429 list prepend /f0_confidence;
#X obj 918 429 list prepend /phonemes;
#X obj 1414 404 array size audio_source;
#X obj 1414 429 list prepend /num_samples;
#X obj 918 405 array get phoneme;
#X obj 1603 540 outlet;
#X obj 1083 404 array get pitch-1;
#X obj 1281 404 array get pitch-0;
#X obj 1603 328 cnv 15 100 20 empty empty Loudness_scaler 20 12 0 14
-4032 -66577 0;
#X obj 1603 348 r sld_ld_scaler_snd;
#X obj 1603 245 cnv 15 100 20 empty empty Pitch_scaler 20 12 0 14 -4032
-66577 0;
#X obj 1603 265 r sld_pitch_scaler_snd;
#X obj 1603 291 list prepend /pitch_scaler;
#X obj 700 429 list prepend /dataset_loudness;
#X obj 502 429 list prepend /user_loudness;
#N canvas 2646 442 450 523 uzi_dataset_mfccs 0;
#X msg 78 169 30;
#X obj 53 63 bng 15 250 50 0 empty empty empty 17 7 0 10 -262144 -1
-1;
#X obj 53 86 t b b;
#X obj 78 146 loadbang;
#X obj 53 231 t b f f;
#X obj 53 29 inlet;
#X obj 53 356 outlet;
#X obj 107 356 outlet;
#X obj 162 356 outlet;
#X obj 53 111 cyclone/uzi 30 0;
#X obj 53 193 cyclone/counter;
#X msg 107 272 symbol dataset-mfcc-\$1;
#X msg 162 308 /dataset_mfcc-\$1;
#X connect 0 0 10 1;
#X connect 1 0 2 0;
#X connect 2 0 9 0;
#X connect 2 1 10 2;
#X connect 3 0 0 0;
#X connect 4 0 6 0;
#X connect 4 1 11 0;
#X connect 4 2 12 0;
#X connect 5 0 1 0;
#X connect 9 0 10 0;
#X connect 10 0 4 0;
#X connect 11 0 7 0;
#X connect 12 0 8 0;
#X restore 295 372 pd uzi_dataset_mfccs;
#X obj 295 403 array get dataset-mfcc-0;
#N canvas 2626 426 450 523 uzi_user_mfccs 0;
#X msg 78 197 30;
#X obj 53 63 bng 15 250 50 0 empty empty empty 17 7 0 10 -262144 -1
-1;
#X obj 53 86 t b b;
#X obj 78 174 loadbang;
#X obj 53 256 t b f f;
#X obj 53 29 inlet;
#X obj 53 381 outlet;
#X obj 107 381 outlet;
#X obj 162 381 outlet;
#X obj 53 111 cyclone/uzi 30 0;
#X obj 53 221 cyclone/counter;
#X msg 107 297 symbol user-mfcc-\$1;
#X msg 162 333 /user_mfcc-\$1;
#X connect 0 0 10 1;
#X connect 1 0 2 0;
#X connect 2 0 9 0;
#X connect 2 1 10 2;
#X connect 3 0 0 0;
#X connect 4 0 6 0;
#X connect 4 1 11 0;
#X connect 4 2 12 0;
#X connect 5 0 1 0;
#X connect 9 0 10 0;
#X connect 10 0 4 0;
#X connect 11 0 7 0;
#X connect 12 0 8 0;
#X restore 91 372 pd uzi_user_mfccs;
#X obj 91 403 array get user-mfcc-0;
#X obj 502 403 array get user-loudness-0;
#X obj 700 403 array get dataset-loudness-0;
#X obj 295 429 list prepend /dataset_mfcc-0;
#X obj 91 429 list prepend /user_mfcc-0;
#X obj 1603 147 cnv 15 100 20 empty empty Loudness_extrapolate 20 12
0 14 -4032 -66577 0;
#X obj 1603 62 cnv 15 100 20 empty empty MFCC_extrapolate 20 12 0 14
-4032 -66577 0;
#X obj 1603 167 r sld_loudness_xtr_snd;
#X obj 1603 83 r sld_mfcc_xtr_snd;
#X obj 1603 111 list prepend /mfcc_extrapolate;
#X obj 1603 195 list prepend /loudness_extrapolate;
#X obj 52 128 inlet;
#X msg 52 153 bang;
#X obj 175 127 loadbang;
#X msg 175 152 20;
#N canvas 196 196 543 449 delayed_trigers 0;
#X obj 46 36 inlet;
#X obj 362 154 del 0;
#X msg 46 61 bang;
#X obj 312 177 del 0;
#X obj 262 206 del 0;
#X obj 212 236 del 0;
#X obj 162 265 del 0;
#X obj 112 295 del 0;
#X obj 62 325 del 0;
#X floatatom 394 128 5 0 0 0 - - -;
#X obj 394 78 loadbang;
#X msg 394 103 20;
#X obj 62 378 outlet;
#X obj 112 378 outlet;
#X obj 162 378 outlet;
#X obj 212 378 outlet;
#X obj 262 378 outlet;
#X obj 312 378 outlet;
#X obj 362 378 outlet;
#X obj 443 112 del 0;
#X obj 443 378 outlet;
#X obj 395 41 inlet;
#X obj 13 354 del 0;
#X obj 13 378 outlet;
#X connect 0 0 2 0;
#X connect 1 0 3 0;
#X connect 1 0 18 0;
#X connect 2 0 19 0;
#X connect 3 0 4 0;
#X connect 3 0 17 0;
#X connect 4 0 5 0;
#X connect 4 0 16 0;
#X connect 5 0 6 0;
#X connect 5 0 15 0;
#X connect 6 0 7 0;
#X connect 6 0 14 0;
#X connect 7 0 8 0;
#X connect 7 0 13 0;
#X connect 8 0 12 0;
#X connect 8 0 22 0;
#X connect 9 0 8 1;
#X connect 9 0 7 1;
#X connect 9 0 6 1;
#X connect 9 0 5 1;
#X connect 9 0 4 1;
#X connect 9 0 3 1;
#X connect 9 0 1 1;
#X connect 9 0 22 1;
#X connect 10 0 11 0;
#X connect 11 0 9 0;
#X connect 19 0 20 0;
#X connect 19 0 1 0;
#X connect 21 0 9 0;
#X connect 22 0 23 0;
#X restore 52 187 pd delayed_trigers;
#X obj 52 542 outlet;
#X text 57 562 Done;
#X text 207 151 Millisencondes between bangs;
#X obj 1604 373 list prepend /loudness_scaler;
#X connect 0 0 6 0;
#X connect 1 0 6 0;
#X connect 2 0 6 0;
#X connect 3 0 4 0;
#X connect 4 0 6 0;
#X connect 5 0 2 0;
#X connect 7 0 1 0;
#X connect 8 0 0 0;
#X connect 10 0 38 0;
#X connect 12 0 13 0;
#X connect 13 0 6 0;
#X connect 14 0 6 0;
#X connect 15 0 6 0;
#X connect 16 0 17 0;
#X connect 16 1 17 2;
#X connect 16 2 22 1;
#X connect 17 0 22 0;
#X connect 18 0 19 0;
#X connect 18 1 19 2;
#X connect 18 2 23 1;
#X connect 19 0 23 0;
#X connect 20 0 15 0;
#X connect 21 0 14 0;
#X connect 22 0 6 0;
#X connect 23 0 6 0;
#X connect 26 0 29 0;
#X connect 27 0 28 0;
#X connect 28 0 6 0;
#X connect 29 0 6 0;
#X connect 30 0 31 0;
#X connect 31 0 34 0;
#X connect 32 0 33 0;
#X connect 33 0 34 1;
#X connect 34 0 35 0;
#X connect 34 1 18 0;
#X connect 34 2 16 0;
#X connect 34 3 20 0;
#X connect 34 4 21 0;
#X connect 34 5 5 0;
#X connect 34 6 7 0;
#X connect 34 7 8 0;
#X connect 34 8 3 0;
#X connect 38 0 6 0;
#X restore 460 482 pd send_audio_features;
#N canvas 919 346 382 260 osc_format 0;
#X obj 11 162 list trim;
#X obj 11 187 packOSC;
#X obj 131 18 inlet;
#X obj 11 18 inlet;
#X obj 11 212 outlet;
#X obj 11 88 list prepend /predict;
#X connect 0 0 1 0;
#X connect 1 0 4 0;
#X connect 2 0 0 0;
#X connect 3 0 5 0;
#X connect 5 0 0 0;
#X restore 523 529 pd osc_format;
#X obj 603 508 bng 15 250 50 0 empty empty Predict_only 17 7 0 10 -262144
-1 -1;
#X msg 191 544 none;
#X text 621 346 ddsp buffers filled;
#X obj 603 462 bng 15 250 50 0 empty empty Send_vocal_params_AND_predict
17 7 0 10 -262144 -1 -1;
#X obj 1420 818 hsl 200 15 0.1 4 0 0 sld_tempo_snd sld_tempo_rcv <-fast---------TEMPO--------slow->
-2 -8 0 10 -262144 -1 -1 4592 1;
#X floatatom 1417 838 5 0 0 0 - - -;
#X obj 1420 887 hsl 200 15 0 6 0 0 sld_density_snd sld_density_rcv
<-scarse------DENSITY------dense-> -2 -8 0 10 -262144 -1 -1 9950 1
;
#X floatatom 1417 907 5 0 0 0 - - -;
#X obj 1414 540 hsl 200 15 0 1 0 0 sld_tone_snd sld_tone_rcv <-high---------TONE----------low->
-2 -8 0 10 -262144 -1 -1 14925 1;
#X floatatom 1411 560 5 0 0 0 - - -;
#X obj 1414 609 hsl 200 15 0 1 0 0 sld_noise_snd sld_noise_rcv <-more---------NOISE--------less->
-2 -8 0 10 -262144 -1 -1 14925 1;
#X floatatom 1411 629 5 0 0 0 - - -;
#X obj 1413 380 hsl 200 15 0.0625 4 0 0 sld_pitch_scaler_snd sld_pitch_scaler_rcv
<-low------PITCH-SCALER-----high-> -2 -8 0 10 -262144 -1 -1 4738 1
;
#X floatatom 1410 400 6 0 0 0 - - -;
#N canvas 1055 107 468 691 sliders_init 0;
#X obj 260 509 loadbang;
#X msg 260 534 1;
#X obj 260 559 s sld_tempo_rcv;
#X obj 260 585 loadbang;
#X obj 260 635 s sld_density_rcv;
#X obj 260 274 loadbang;
#X obj 260 353 loadbang;
#X obj 260 403 s sld_noise_rcv;
#X obj 261 12 loadbang;
#X obj 260 324 s sld_tone_rcv;
#X obj 261 90 loadbang;
#X obj 260 432 loadbang;
#X obj 261 62 s sld_pitch_scaler_rcv;
#X obj 261 140 s sld_ld_scaler_rcv;
#X msg 260 457 1;
#X obj 260 482 s sld_temperature_rcv;
#X obj 10 13 loadbang;
#X obj 10 63 s toggle_primer_rcv;
#X obj 10 94 loadbang;
#X obj 10 144 s sld_silence_rcv;
#X obj 10 174 loadbang;
#X obj 10 224 s radio_num_voices_rcv;
#X msg 10 199 0;
#X obj 10 253 loadbang;
#X obj 10 334 loadbang;
#X obj 10 414 loadbang;
#X obj 10 303 s sld_melody_xtr_rcv;
#X obj 10 384 s sld_loudness_xtr_rcv;
#X obj 10 464 s sld_mfcc_xtr_rcv;
#X msg 10 119 0.15;
#X msg 10 38 1;
#X msg 10 278 1;
#X msg 10 439 1;
#X msg 260 610 3;
#X msg 10 359 1;
#X msg 260 299 0.75;
#X msg 260 378 0.75;
#X msg 261 115 -48;
#X msg 261 37 1;
#X connect 0 0 1 0;
#X connect 1 0 2 0;
#X connect 3 0 33 0;
#X connect 5 0 35 0;
#X connect 6 0 36 0;
#X connect 8 0 38 0;
#X connect 10 0 37 0;
#X connect 11 0 14 0;
#X connect 14 0 15 0;
#X connect 16 0 30 0;
#X connect 18 0 29 0;
#X connect 20 0 22 0;
#X connect 22 0 21 0;
#X connect 23 0 31 0;
#X connect 24 0 34 0;
#X connect 25 0 32 0;
#X connect 29 0 19 0;
#X connect 30 0 17 0;
#X connect 31 0 26 0;
#X connect 32 0 28 0;
#X connect 33 0 4 0;
#X connect 34 0 27 0;
#X connect 35 0 9 0;
#X connect 36 0 7 0;
#X connect 37 0 13 0;
#X connect 38 0 12 0;
#X restore 1506 67 pd sliders_init;
#X obj 13 425 cnv 15 100 20 empty empty empty 20 12 0 14 -4032 -66577
0;
#X obj 1413 445 hsl 200 15 -72 24 0 0 sld_ld_scaler_snd sld_ld_scaler_rcv
<-low--------LD-SCALER------high-> -2 -8 0 10 -262144 -1 -1 4975 1
;
#X floatatom 1410 465 6 0 0 0 - - -;
#X obj 1420 954 hsl 200 15 0.1 3 0 0 sld_temperature_snd sld_temperature_rcv
<-low-------TEMPERATURE-----high-> -2 -8 0 10 -262144 -1 -1 6176 1
;
#X floatatom 1417 974 6 0 0 0 - - -;
#X text 19 425 Melody temperature;
#X text 1633 800 \\\; | \; | \; | \; | \; |Melody \; | \; | \; | \;
| \; / \;;
#X obj 13 446 r sld_temperature_snd;
#X text 1628 521 \\\; | \; | \; |Timbre \; | \; | \; / \;;
#X obj 1418 701 tgl 15 0 toggle_primer_snd toggle_primer_rcv MELODY:_Invent/imitate
17 7 0 10 -262144 -1 -1 1 1;
#X obj 1416 134 hsl 200 15 0 1 0 0 sld_silence_snd sld_silence_rcv
<-non-stop------SILENCE-----stop-> -2 -8 0 10 -262144 -1 -1 2985 1
;
#X floatatom 1413 154 6 0 0 0 - - -;
#X obj 1414 69 hradio 15 1 0 3 radio_num_voices_snd radio_num_voices_rcv
NUMBER_OF_VOICES 0 -8 0 10 -262144 -1 -1 0;
#X floatatom 1414 89 5 0 0 0 - - -;
#X obj 1421 747 hsl 200 15 0 1 0 0 sld_melody_xtr_snd sld_melody_xtr_rcv
<-only----INCLUDE-PRIMER---never-> -2 -8 0 10 -262144 -1 -1 19900 1
;
#X floatatom 1418 767 6 0 0 0 - - -;
#X obj 1415 291 hsl 200 15 0 1 0 0 sld_loudness_xtr_snd sld_loudness_xtr_rcv
<-imitate-LOUDNESS-XTRPOL-invent-> -2 -8 0 10 -262144 -1 -1 19900 1
;
#X floatatom 1412 311 6 0 0 0 - - -;
#X obj 1415 233 hsl 200 15 0 1 0 0 sld_mfcc_xtr_snd sld_mfcc_xtr_rcv
<-imitate---MFCC-XTRPOL---invent-> -2 -8 0 10 -262144 -1 -1 19900 1
;
#X floatatom 1412 253 6 0 0 0 - - -;
#X floatatom 191 569 5 0.1 1 1 Primer_steps_scaler - -;
#X floatatom 191 593 5 0.05 1 1 Num_steps_scaler - -;
#X obj 98 227 voice_analysis_v4;
#X obj 217 208 hsl 128 15 0 1 0 0 empty empty How_many_files_to_go_back_to_(0-1)
-2 -8 0 10 -262144 -1 -1 0 1;
#X obj 214 174 bng 15 250 50 0 empty empty Start_analysis 17 7 0 10
-262144 -1 -1;
#X msg 3 403 ../melody_generator/generated;
#X obj 213 616 tgl 15 0 empty toggle_primer_snd PRIMER:End_of_last(OFF)/User(ON)
17 7 0 10 -262144 -1 -1 1 1;
#X obj 603 318 generate_buffer_content_v2;
#X obj 190 303 t a b;
#X floatatom 794 211 5 0 0 0 - - -;
#X obj 543 289 bng 15 250 50 0 empty empty empty 17 7 0 10 -262144
-1 -1;
#X obj 12 486 cnv 15 100 20 empty empty Silence 20 12 0 14 -4032 -66577
0;
#X obj 12 507 r sld_melody_xtr_snd;
#X obj 10 565 expr 1 - $f1;
#X obj 12 532 clip 0.05 1;
#X obj 1697 55 bng 15 250 50 0 play_record_buffer empty Play_record_buffer
17 7 0 10 -262144 -1 -1;
#X obj 1697 75 bng 15 250 50 0 play_analysis_buffer empty Play_analysis_buffer
17 7 0 10 -262144 -1 -1;
#X obj 1697 96 bng 15 250 50 0 play_primer_midi empty Play_primer_midi
17 7 0 10 -262144 -1 -1;
#X obj 1697 116 bng 15 250 50 0 play_midi_score empty Play_midi_score
17 7 0 10 -262144 -1 -1;
#X obj 1697 136 bng 15 250 50 0 play_dataset_audio empty Play_dataset_audio
17 7 0 10 -262144 -1 -1;
#X obj 1697 156 bng 15 250 50 0 play_user_audio empty Play_user_audio
17 7 0 10 -262144 -1 -1;
#X obj 1697 176 bng 15 250 50 0 play_DDSP_voice empty Play_DDSP_voice
17 7 0 10 -262144 -1 -1;
#X obj 1697 195 tgl 15 0 empty empty empty 17 7 0 10 -262144 -1 -1
0 1;
#X msg 1697 215 \; pd dsp \$1;
#X obj 1032 143 cnv 15 300 400 empty empty AUDIO_PROCESS 20 12 0 14
-261234 -66577 0;
#X obj 1048 173 cnv 15 260 150 empty empty IN 20 12 0 14 -261682 -66577
0;
#X obj 1048 394 cnv 15 260 130 empty empty OUT 20 12 0 14 -261682 -66577
0;
#X floatatom 1046 224 5 0 0 1 Audio_gate_volume_threshold_(0-1) - -
;
#X floatatom 1046 249 5 0 0 1 Delay_time_before_closing_audio_gate_(ms)
- -;
#X obj 900 342 unpackOSC;
#X text 1012 319 FROM DDSP;
#X obj 900 366 routeOSC /exported_file;
#X obj 900 318 udpreceive 8200;
#X obj 1067 426 bng 15 250 50 0 empty empty DDSP:_New_file 17 7 0 10
-262144 -1 -1;
#X obj 1068 204 tgl 15 0 empty empty On/Off 17 7 0 10 -262144 -1 -1
0 1;
#X obj 1068 275 tgl 15 0 empty empty Gate_status 17 7 0 10 -262144
-1 -1 0 1;
#X obj 1067 296 bng 15 250 50 0 empty empty New_file_recorded 17 7
0 10 -262144 -1 -1;
#X obj 1067 466 bng 15 250 50 0 empty empty Read_sf_stoped 17 7 0 10
-262144 -1 -1;
#X obj 1013 576 udpsend;
#X msg 1067 552 disconnect;
#X obj 903 529 loadbang;
#X obj 1050 599 tgl 15 0 empty empty empty 17 7 0 10 -262144 -1 -1
1 1;
#X text 1067 576 TO AUDIO PROCESS;
#X msg 903 552 connect 127.0.0.1 7900;
#N canvas 129 520 1101 268 osc_format 0;
#X obj 11 162 list trim;
#X obj 11 187 packOSC;
#X obj 11 20 inlet;
#X obj 217 20 inlet;
#X obj 11 212 outlet;
#X obj 395 20 inlet;
#X obj 545 20 inlet;
#X obj 11 88 list prepend /gate_threshold;
#X obj 217 88 list prepend /delay_time;
#X obj 395 88 list prepend /on_off;
#X obj 545 88 list prepend /exported_file;
#X obj 743 20 inlet;
#X obj 743 88 list prepend /out_volume;
#X obj 921 20 inlet;
#X obj 921 88 list prepend /silence;
#X connect 0 0 1 0;
#X connect 1 0 4 0;
#X connect 2 0 7 0;
#X connect 3 0 8 0;
#X connect 5 0 9 0;
#X connect 6 0 10 0;
#X connect 7 0 0 0;
#X connect 8 0 0 0;
#X connect 9 0 0 0;
#X connect 10 0 0 0;
#X connect 11 0 12 0;
#X connect 12 0 0 0;
#X connect 13 0 14 0;
#X connect 14 0 0 0;
#X restore 970 529 pd osc_format;
#X obj 899 80 unpackOSC;
#X obj 899 56 udpreceive 7901;
#X text 1010 56 FROM AUDIO PROCESS;
#X obj 899 104 routeOSC /gate_status /new_file_recorded /play_head
;
#X obj 1070 499 hsl 128 15 0 1 0 0 empty empty Out_volume -2 -8 0 10
-262144 -1 -1 0 1;
#X obj 899 129 route start stop;
#X obj 1067 446 bng 15 250 50 0 empty empty Read_sf_started 17 7 0
10 -262144 -1 -1;
#X obj 1067 753 cnv 15 100 20 empty empty Started 20 12 0 14 -4032
-66577 0;
#X obj 1067 774 s started;
#X obj 214 94 cnv 15 100 20 empty empty Started 20 12 0 14 -4032 -66577
0;
#X obj 214 115 r started;
#X obj 1205 405 cnv 15 100 20 empty empty Silence 20 12 0 14 -4032
-66577 0;
#X obj 1205 426 r sld_silence_snd;
#X obj 960 743 print;
#X obj 602 822 loadbang;
#X msg 602 847 1;
#X obj 602 919 s regular_bangs;
#X obj 128 677 r regular_bangs;
#X obj 519 612 r regular_bangs;
#X obj 903 504 r regular_bangs;
#X obj 602 893 metro 10000;
#X obj 602 872 tgl 15 0 empty empty empty 17 7 0 10 -262144 -1 -1 0
1;
#X connect 4 0 7 0;
#X connect 5 0 4 0;
#X connect 6 0 28 0;
#X connect 8 0 32 0;
#X connect 9 0 10 0;
#X connect 10 0 26 0;
#X connect 13 0 32 2;
#X connect 14 0 32 3;
#X connect 17 0 32 4;
#X connect 18 0 84 0;
#X connect 18 1 84 1;
#X connect 19 0 18 0;
#X connect 20 0 19 0;
#X connect 24 0 8 0;
#X connect 26 0 20 0;
#X connect 26 1 27 0;
#X connect 28 0 4 0;
#X connect 29 0 9 0;
#X connect 30 0 45 0;
#X connect 32 0 4 0;
#X connect 34 0 37 0;
#X connect 35 0 34 0;
#X connect 36 0 39 0;
#X connect 39 0 34 0;
#X connect 40 0 42 0;
#X connect 40 1 41 1;
#X connect 41 0 34 0;
#X connect 42 0 41 0;
#X connect 43 0 32 5;
#X connect 45 0 40 0;
#X connect 46 0 47 0;
#X connect 48 0 49 0;
#X connect 50 0 51 0;
#X connect 52 0 53 0;
#X connect 54 0 55 0;
#X connect 58 0 59 0;
#X connect 60 0 61 0;
#X connect 64 0 17 0;
#X connect 67 0 68 0;
#X connect 69 0 70 0;
#X connect 71 0 72 0;
#X connect 73 0 74 0;
#X connect 75 0 76 0;
#X connect 77 0 32 6;
#X connect 78 0 32 7;
#X connect 79 0 85 0;
#X connect 80 0 79 1;
#X connect 81 0 79 0;
#X connect 82 0 32 1;
#X connect 83 0 32 8;
#X connect 84 0 30 0;
#X connect 85 0 32 5;
#X connect 85 1 24 0;
#X connect 86 0 84 1;
#X connect 87 0 84 0;
#X connect 89 0 90 0;
#X connect 89 0 91 0;
#X connect 90 0 77 0;
#X connect 91 0 78 0;
#X connect 99 0 100 0;
#X connect 104 0 121 0;
#X connect 105 0 121 1;
#X connect 106 0 108 0;
#X connect 108 0 121 3;
#X connect 108 0 110 0;
#X connect 109 0 106 0;
#X connect 111 0 121 2;
#X connect 115 0 118 0;
#X connect 116 0 115 0;
#X connect 117 0 120 0;
#X connect 120 0 115 0;
#X connect 121 0 115 0;
#X connect 122 0 125 0;
#X connect 123 0 122 0;
#X connect 125 0 112 0;
#X connect 125 1 113 0;
#X connect 125 2 127 0;
#X connect 126 0 121 4;
#X connect 127 0 128 0;
#X connect 127 1 114 0;
#X connect 128 0 130 0;
#X connect 132 0 81 0;
#X connect 134 0 121 5;
#X connect 136 0 137 0;
#X connect 137 0 143 0;
#X connect 139 0 28 0;
#X connect 140 0 39 0;
#X connect 141 0 120 0;
#X connect 142 0 138 0;
#X connect 143 0 142 0;
