#N struct 1012-draw-item float x float y float c float a float b;
#N struct 1013-rectangle float x float c;
#N struct 1013-pixel float x0 float y0 float x1 float y1;
#N struct 1036-draw-item float x float y float c float a float b;
#N struct 1037-rectangle float x float c;
#N struct 1037-pixel float x0 float y0 float x1 float y1;
#N struct 1060-draw-item float x float y float c float a float b;
#N struct 1061-rectangle float x float c;
#N struct 1061-pixel float x0 float y0 float x1 float y1;
#N struct 1084-draw-item float x float y float c float a float b;
#N struct 1085-rectangle float x float c;
#N struct 1085-pixel float x0 float y0 float x1 float y1;
#N struct 1108-draw-item float x float y float c float a float b;
#N struct 1109-rectangle float x float c;
#N struct 1109-pixel float x0 float y0 float x1 float y1;
#N struct 1169-draw-item float x float y float c float a float b;
#N struct 1170-rectangle float x float c;
#N struct 1170-pixel float x0 float y0 float x1 float y1;
#N canvas 2068 226 1543 746 12;
#X obj 912 433 cnv 15 300 300 empty empty TO_AUDIO_PROCESS 20 12 0
14 -204786 -66577 0;
#X obj 609 1 cnv 15 300 300 empty empty FROM_VOICE_GENERATOR 20 12
0 14 -262130 -66577 0;
#X obj 913 1 cnv 15 300 300 empty empty FROM_AUDIO_PROCESS 20 12 0
14 -204786 -66577 0;
#X obj 2 1 cnv 15 300 300 empty empty VOICE_ANALYSIS 20 12 0 14 -261234
-66577 0;
#X obj 305 1 cnv 15 300 300 empty empty FROM_MELODY_GENERATOR 20 12
0 14 -261682 -66577 0;
#X obj 305 432 cnv 15 300 300 empty empty TO_MELODY_GENERATOR 20 12
0 14 -261682 -66577 0;
#X obj 608 432 cnv 15 300 300 empty empty TO_VOICE_GENERATOR 20 12
0 14 -262130 -66577 0;
#X obj 449 598 udpsend;
#X msg 503 574 disconnect;
#X obj 339 551 loadbang;
#X obj 486 621 tgl 15 0 empty empty empty 17 7 0 10 -262144 -1 -1 1
1;
#X obj 381 110 unpackOSC;
#X obj 381 136 routeOSC /exported_file;
#X obj 64 229 bng 15 250 50 0 empty empty empty 17 7 0 10 -262144 -1
-1;
#X text 76 206 Midi filepath;
#X obj 381 161 t a b;
#X obj 413 185 bng 15 250 50 0 empty empty empty 17 7 0 10 -262144
-1 -1;
#X msg 339 574 connect 127.0.0.1 8001;
#X obj 381 86 udpreceive 8000;
#X obj 741 595 udpsend;
#X msg 795 571 disconnect;
#X obj 631 548 loadbang;
#X obj 778 618 tgl 15 0 empty empty empty 17 7 0 10 -262144 -1 -1 1
1;
#X msg 631 571 connect 127.0.0.1 8201;
#X obj 32 180 voice_analysis_v4;
#X obj 8 151 bng 15 250 50 0 empty empty Start_analysis 17 7 0 10 -262144
-1 -1;
#X obj 32 205 t a b;
#X floatatom 919 530 5 0 0 1 Audio_gate_volume_threshold_(0-1) - -
;
#X floatatom 919 555 5 0 0 1 Delay_time_before_closing_audio_gate -
-;
#X obj 683 109 unpackOSC;
#X obj 683 133 routeOSC /exported_file;
#X obj 683 85 udpreceive 8200;
#X obj 715 183 bng 15 250 50 0 empty empty New_file 17 7 0 10 -262144
-1 -1;
#X obj 919 511 tgl 15 0 empty empty Detect_sound:_On/Off 17 7 0 10
-262144 -1 -1 0 1;
#X obj 1048 668 udpsend;
#X msg 1102 644 disconnect;
#X obj 938 621 loadbang;
#X obj 1085 691 tgl 15 0 empty empty empty 17 7 0 10 -262144 -1 -1
1 1;
#X msg 938 644 connect 127.0.0.1 7900;
#N canvas 119 512 1101 268 osc_format 0;
#X obj 11 162 list trim;
#X obj 11 187 packOSC;
#X obj 11 20 inlet;
#X obj 217 20 inlet;
#X obj 11 212 outlet;
#X obj 395 20 inlet;
#X obj 545 20 inlet;
#X obj 11 88 list prepend /gate_threshold;
#X obj 217 88 list prepend /delay_time;
#X obj 395 88 list prepend /on_off;
#X obj 545 88 list prepend /exported_file;
#X obj 743 20 inlet;
#X obj 743 88 list trim;
#X connect 0 0 1 0;
#X connect 1 0 4 0;
#X connect 2 0 7 0;
#X connect 3 0 8 0;
#X connect 5 0 9 0;
#X connect 6 0 10 0;
#X connect 7 0 0 0;
#X connect 8 0 0 0;
#X connect 9 0 0 0;
#X connect 10 0 0 0;
#X connect 11 0 12 0;
#X connect 12 0 1 0;
#X restore 1005 621 pd osc_format;
#X obj 403 552 r regular_bangs;
#X obj 694 548 r regular_bangs;
#X obj 938 596 r regular_bangs;
#X obj 337 381 voices voice0;
#X obj 434 381 voices voice1;
#X obj 531 381 voices voice2;
#X obj 628 381 voices voice3;
#X obj 726 381 voices voice4;
#X obj 8 31 cnv 15 100 20 empty empty New_user_input 20 12 0 14 -4032
-66577 0;
#X obj 8 52 r new_user_input;
#X obj 64 254 cnv 15 100 20 empty empty New_primer 20 12 0 14 -4032
-66577 0;
#X obj 64 275 s new_primer;
#X obj 919 465 loadbang;
#X msg 919 488 1;
#X obj 337 326 loadbang;
#X obj 148 44 vsl 15 128 0 1 0 0 empty empty How_many_files_to_go_back_to
0 -9 0 10 -262144 -1 -1 0 1;
#X obj 683 158 t a b;
#X obj 2 432 cnv 15 300 300 empty empty GENERAL 20 12 0 14 -228856
-66577 0;
#X obj 5 521 bng 15 250 50 0 play_record_buffer empty Play_record_buffer
17 7 0 10 -262144 -1 -1;
#X obj 5 541 bng 15 250 50 0 play_analysis_buffer empty Play_analysis_buffer
17 7 0 10 -262144 -1 -1;
#X obj 5 459 tgl 15 0 empty empty empty 17 7 0 10 -262144 -1 -1 0 1
;
#X msg 5 479 \; pd dsp \$1;
#X obj 6 611 loadbang;
#X msg 6 636 1;
#X obj 6 708 s regular_bangs;
#X obj 6 682 metro 10000;
#X obj 6 661 tgl 15 0 empty empty empty 17 7 0 10 -262144 -1 -1 1 1
;
#N canvas 0 69 347 688 mfcc-explorer-data 0;
#X obj 16 44 array define slice_points;
#X obj 16 125 fluid.dataset analysis;
#X obj 15 635 text define normalized-text;
#X obj 15 556 text define labels-text;
#X msg 16 99 read mfcc_explorer_data/analysis.json;
#X obj 16 73 loadbang;
#N canvas 2272 227 883 353 save_load_text 0;
#X obj 312 12 loadbang;
#X msg 12 184 write mfcc_explorer_data/slice_points.txt;
#X obj 539 125 text define slice_points_info;
#X msg 539 97 read -c mfcc_explorer_data/slice_points.txt;
#X obj 335 124 text size slice_points_info;
#X obj 335 150 array size slice_points;
#X obj 312 38 t b b b;
#X msg 312 184 read mfcc_explorer_data/slice_points.txt;
#X obj 312 308 outlet;
#X obj 377 13 bng 15 250 50 0 empty empty empty 17 7 0 10 -262144 -1
-1;
#X obj 12 12 inlet;
#X connect 0 0 6 0;
#X connect 1 0 8 0;
#X connect 3 0 2 0;
#X connect 4 0 5 0;
#X connect 6 0 7 0;
#X connect 6 1 4 0;
#X connect 6 2 3 0;
#X connect 7 0 8 0;
#X connect 9 0 6 0;
#X connect 10 0 1 0;
#X restore 16 17 pd save_load_text;
#X obj 17 213 fluid.dataset reduced;
#X obj 17 158 loadbang;
#X msg 17 184 read mfcc_explorer_data/reduced.json;
#X obj 16 299 fluid.dataset normalized;
#X obj 16 246 loadbang;
#X msg 16 272 read mfcc_explorer_data/normalized.json;
#X obj 15 391 fluid.labelset labels;
#X obj 15 334 loadbang;
#X msg 15 360 read mfcc_explorer_data/labels.json;
#X obj 15 475 fluid.kdtree tree;
#X obj 15 421 loadbang;
#X msg 15 447 read mfcc_explorer_data/tree.json;
#X msg 15 607 read mfcc_explorer_data/normalized-text.txt;
#X msg 15 529 read mfcc_explorer_data/labels-text.txt;
#X obj 15 503 loadbang;
#X obj 15 582 loadbang;
#X connect 4 0 1 0;
#X connect 5 0 4 0;
#X connect 6 0 0 0;
#X connect 8 0 9 0;
#X connect 9 0 7 0;
#X connect 11 0 12 0;
#X connect 12 0 10 0;
#X connect 14 0 15 0;
#X connect 15 0 13 0;
#X connect 17 0 18 0;
#X connect 18 0 16 0;
#X connect 19 0 2 0;
#X connect 20 0 3 0;
#X connect 21 0 20 0;
#X connect 22 0 19 0;
#X restore 142 708 pd mfcc-explorer-data;
#X obj 5 560 bng 15 250 50 0 play_primer_midi empty Play_primer_midi
17 7 0 10 -262144 -1 -1;
#N canvas 740 294 490 223 audio_corpus_buffer 0;
#X obj 14 134 soundfiler;
#X obj 14 159 array define audio_corpus;
#X obj 99 134 array size audio_corpus;
#X msg 99 105 1;
#X obj 14 21 loadbang;
#X msg 14 49 read -resize audio_corpus_normalized_48000.wav audio_corpus
;
#X connect 3 0 2 0;
#X connect 4 0 5 0;
#X connect 5 0 0 0;
#X restore 142 683 pd audio_corpus_buffer;
#X obj 1216 1 cnv 15 300 300 empty empty USER_INFO 20 12 0 14 -204800
-66577 0;
#X obj 921 186 tgl 15 0 empty empty Gate_status 17 7 0 10 -262144 -1
-1 0 1;
#X obj 1025 185 bng 15 250 50 0 empty empty New_file_recorded 17 7
0 10 -262144 -1 -1;
#X obj 921 52 unpackOSC;
#X obj 921 28 udpreceive 7901;
#X obj 1025 241 s new_user_input;
#X obj 1025 220 cnv 15 100 20 empty empty New_user_input 20 12 0 14
-4032 -66577 0;
#X obj 1229 53 unpackOSC;
#X obj 1229 31 udpreceive 9000;
#X obj 1229 75 routeOSC /num_user /interaction_time;
#X floatatom 1295 203 5 0 0 3 Num_input - -;
#X floatatom 1229 203 5 0 0 3 Num_user - -;
#X floatatom 1359 203 5 0 0 3 Interaction_time - -;
#N canvas 2393 303 330 374 process_num_user_input 0;
#X obj 99 113 cnv 15 100 20 empty empty New_primer 20 12 0 14 -4032
-66577 0;
#X obj 99 134 r new_primer;
#X obj 99 223 + 0;
#X obj 127 223 int;
#X msg 99 194 1;
#X msg 150 194 0;
#X obj 99 168 spigot;
#X obj 150 169 sel 0;
#X obj 199 135 > 0;
#X obj 199 44 inlet;
#X obj 99 283 outlet;
#X obj 99 248 change;
#X connect 1 0 6 0;
#X connect 2 0 3 0;
#X connect 2 0 11 0;
#X connect 3 0 2 1;
#X connect 4 0 2 0;
#X connect 5 0 2 1;
#X connect 5 0 2 0;
#X connect 6 0 4 0;
#X connect 7 0 5 0;
#X connect 8 0 6 1;
#X connect 8 0 7 0;
#X connect 9 0 8 0;
#X connect 11 0 10 0;
#X restore 1295 176 pd process_num_user_input;
#X obj 1215 433 cnv 15 300 300 empty empty TO_FACE_GENERATOR 20 12
0 14 -204800 -66577 0;
#X obj 1348 690 udpsend;
#X msg 1404 600 disconnect;
#X obj 1348 577 packOSC;
#X obj 1239 577 loadbang;
#X obj 1385 714 tgl 15 0 empty empty empty 17 7 0 10 -262144 -1 -1
0 1;
#X msg 1239 600 connect 127.0.0.1 9001;
#X obj 1229 523 face_generator_controls_v3;
#X msg 1229 479 \; pd-face_generator_controls_v3.pd vis 1;
#X obj 1229 460 bng 15 250 50 0 empty empty Open_face_generator_controls
17 7 0 10 -262144 -1 -1;
#X text 1341 31 FROM FACE DETECTION;
#N canvas 960 69 960 1011 compute_states 0;
#X obj 60 62 inlet;
#X obj 192 64 inlet;
#X obj 348 65 inlet;
#X obj 109 1045 outlet;
#X text 100 62 Num user;
#X text 233 64 Num user input;
#X text 389 65 Interaction time;
#X obj 60 141 == 0;
#X obj 149 175 sel 1;
#X obj 60 175 sel 0;
#X obj 347 637 loadbang;
#X msg 347 662 1;
#X obj 37 63 tgl 15 0 empty empty empty 17 7 0 10 -262144 -1 -1 0 1
;
#X obj 347 687 metro 1000;
#X floatatom 109 292 5 0 0 0 - - -;
#X msg 60 213 stop;
#X msg 20 213 bang;
#X msg 149 213 stop;
#X msg 109 213 bang;
#X msg 20 263 0;
#X msg 109 263 1;
#X floatatom 109 1005 5 0 0 0 - - -;
#X floatatom 60 87 5 0 0 0 - - -;
#X floatatom 192 89 5 0 0 0 - - -;
#X floatatom 348 90 5 0 0 0 - - -;
#X obj 120 371 sel 1;
#X obj 212 371 sel 0;
#X obj 120 342 == 1;
#X obj 305 712 timer;
#X floatatom 305 811 10 0 0 1 Time_since_interaction - -;
#X obj 305 784 spigot;
#X msg 396 712 0;
#X msg 365 712 1;
#X obj 305 737 / 1000;
#X obj 305 761 expr ceil($f1);
#X obj 396 737 t f f;
#X obj 109 316 change;
#X obj 305 920 sel 1;
#X floatatom 192 539 5 0 0 1 Num_imput_since_interaction - -;
#X obj 192 514 cyclone/counter;
#X msg 192 463 bang;
#X msg 296 463 bang;
#X obj 192 15 tgl 15 0 empty empty empty 17 7 0 10 -262144 -1 -1 0
1;
#X obj 305 893 change;
#X obj 192 35 metro 5000;
#X obj 565 920 sel 1;
#X obj 565 892 change;
#X obj 192 563 > 0;
#X obj 192 487 spigot;
#X msg 231 463 1;
#X msg 258 463 0;
#X obj 120 396 t b b;
#X msg 224 945 2;
#X obj 192 637 t b b;
#X obj 305 687 t b b;
#X msg 305 945 3;
#X obj 212 396 t b b b;
#X obj 192 612 sel 1;
#X msg 565 945 4;
#X floatatom 355 893 5 0 0 0 - - -;
#X floatatom 614 893 5 0 0 0 - - -;
#X obj 824 921 sel 1;
#X obj 824 893 change;
#X floatatom 873 894 5 0 0 0 - - -;
#X msg 824 946 5;
#X obj 60 111 change;
#X obj 6 890 loadbang;
#X msg 6 943 999;
#X msg 83 943 0;
#X obj 6 918 delay 5000;
#X obj 83 918 delay 10000;
#X obj 20 238 delay 4000;
#X obj 109 238 delay 2000;
#X obj 192 587 change -1;
#X obj 1084 921 sel 1;
#X obj 1084 893 change;
#X floatatom 1133 894 5 0 0 0 - - -;
#X msg 1084 946 6;
#X obj 305 867 expr if($f1 > 90 || $f2 >= 2 \, 1 \, 0);
#X obj 565 867 expr if($f1 > 180 || $f2 >= 4 \, 1 \, 0);
#X obj 824 868 expr if($f1 > 270 || $f2 >= 6 \, 1 \, 0);
#X obj 1084 868 expr if($f1 > 540 || $f2 >= 10 \, 1 \, 0);
#X connect 0 0 22 0;
#X connect 1 0 23 0;
#X connect 2 0 24 0;
#X connect 7 0 8 0;
#X connect 7 0 9 0;
#X connect 8 0 16 0;
#X connect 8 0 17 0;
#X connect 9 0 15 0;
#X connect 9 0 18 0;
#X connect 10 0 11 0;
#X connect 11 0 13 0;
#X connect 12 0 22 0;
#X connect 13 0 28 1;
#X connect 14 0 36 0;
#X connect 15 0 71 0;
#X connect 16 0 71 0;
#X connect 17 0 72 0;
#X connect 18 0 72 0;
#X connect 19 0 14 0;
#X connect 20 0 14 0;
#X connect 21 0 3 0;
#X connect 22 0 65 0;
#X connect 23 0 40 0;
#X connect 25 0 51 0;
#X connect 26 0 56 0;
#X connect 27 0 25 0;
#X connect 27 0 26 0;
#X connect 28 0 33 0;
#X connect 29 0 78 0;
#X connect 29 0 79 0;
#X connect 29 0 80 0;
#X connect 29 0 81 0;
#X connect 30 0 29 0;
#X connect 31 0 35 0;
#X connect 32 0 30 1;
#X connect 33 0 34 0;
#X connect 34 0 30 0;
#X connect 35 0 29 0;
#X connect 35 1 30 1;
#X connect 36 0 27 0;
#X connect 36 0 21 0;
#X connect 37 0 55 0;
#X connect 38 0 47 0;
#X connect 38 0 78 1;
#X connect 38 0 79 1;
#X connect 38 0 80 1;
#X connect 38 0 81 1;
#X connect 39 0 38 0;
#X connect 40 0 48 0;
#X connect 41 0 39 3;
#X connect 42 0 44 0;
#X connect 43 0 37 0;
#X connect 44 0 23 0;
#X connect 45 0 58 0;
#X connect 46 0 45 0;
#X connect 47 0 73 0;
#X connect 48 0 39 0;
#X connect 49 0 48 1;
#X connect 50 0 48 1;
#X connect 51 0 49 0;
#X connect 52 0 21 0;
#X connect 53 0 54 0;
#X connect 53 1 52 0;
#X connect 54 0 28 0;
#X connect 54 1 32 0;
#X connect 55 0 21 0;
#X connect 56 0 31 0;
#X connect 56 1 41 0;
#X connect 56 2 50 0;
#X connect 57 0 53 0;
#X connect 58 0 21 0;
#X connect 61 0 64 0;
#X connect 62 0 61 0;
#X connect 64 0 21 0;
#X connect 65 0 7 0;
#X connect 66 0 69 0;
#X connect 66 0 70 0;
#X connect 67 0 21 0;
#X connect 68 0 21 0;
#X connect 69 0 67 0;
#X connect 70 0 68 0;
#X connect 71 0 19 0;
#X connect 72 0 20 0;
#X connect 73 0 57 0;
#X connect 74 0 77 0;
#X connect 75 0 74 0;
#X connect 77 0 21 0;
#X connect 78 0 43 0;
#X connect 78 0 59 0;
#X connect 79 0 46 0;
#X connect 79 0 60 0;
#X connect 80 0 62 0;
#X connect 80 0 63 0;
#X connect 81 0 75 0;
#X connect 81 0 76 0;
#X restore 1229 247 pd compute_states;
#X f 19;
#X floatatom 1229 272 5 0 0 1 State - -;
#X obj 921 76 routeOSC /gate_status /new_file_recorded;
#X obj 434 354 bng 15 250 50 0 empty empty empty 17 7 0 10 -262144
-1 -1;
#X obj 531 354 bng 15 250 50 0 empty empty empty 17 7 0 10 -262144
-1 -1;
#X obj 628 354 bng 15 250 50 0 empty empty empty 17 7 0 10 -262144
-1 -1;
#X obj 726 354 bng 15 250 50 0 empty empty empty 17 7 0 10 -262144
-1 -1;
#X obj 318 355 bng 15 250 50 0 empty empty empty 17 7 0 10 -262144
-1 -1;
#X obj 337 351 delay 5000;
#X obj 824 354 bng 15 250 50 0 empty empty empty 17 7 0 10 -262144
-1 -1;
#X obj 824 381 voices voice5;
#N canvas 1920 96 1920 1104 voices_control 0;
#X obj 95 2066 loadbang;
#X msg 14 226 \; \$1_sld_pitch_scaler_rcv \$2;
#X msg 14 355 \; \$1_sld_ld_scaler_rcv \$2;
#X msg 14 486 \; \$1_sld_silence_rcv \$2;
#X msg 14 620 \; \$1_sld_volume_rcv \$2;
#X msg 14 735 \; \$1_toggle_trigger_rcv \$2;
#X msg 14 864 \; \$1_sld_mfcc_xtr_rcv \$2;
#X msg 14 992 \; \$1_sld_loudness_xtr_rcv \$2;
#X msg 14 1122 \; \$1_sld_tone_rcv \$2;
#X msg 14 1251 \; \$1_sld_noise_rcv \$2;
#X msg 14 1367 \; \$1_toggle_primer_rcv \$2;
#X msg 14 1757 \; \$1_sld_tempo_rcv \$2;
#X msg 14 1887 \; \$1_sld_density_rcv \$2;
#X msg 14 2017 \; \$1_sld_temperature_rcv \$2;
#X msg 14 1498 \; \$1_sld_primer_scaler_rcv \$2;
#X msg 14 1628 \; \$1_sld_melody_scaler_rcv \$2;
#X obj 17 184 hsl 128 15 0 4 0 0 empty empty Pitch_scaler -2 -8 0 10
-260097 -1 -1 3175 1;
#X obj 17 444 hsl 128 15 0 1 0 0 empty empty Silence -2 -8 0 10 -260097
-1 -1 4064 1;
#X obj 17 578 hsl 128 15 0 1 0 0 empty empty Volume -2 -8 0 10 -260097
-1 -1 12700 1;
#X obj 17 822 hsl 128 15 0 1 0 0 empty empty MFCC_extrapolate -2 -8
0 10 -260097 -1 -1 12700 1;
#X obj 17 950 hsl 128 15 0 1 0 0 empty empty Loudness_extrapolate -2
-8 0 10 -260097 -1 -1 12700 1;
#X obj 17 1080 hsl 128 15 0 1 0 0 empty empty Tone -2 -8 0 10 -260097
-1 -1 6820 1;
#X obj 17 1209 hsl 128 15 0 1 0 0 empty empty Noise -2 -8 0 10 -260097
-1 -1 6820 1;
#X obj 17 1456 hsl 128 15 0 1 0 0 empty empty Primer_scaler -2 -8 0
10 -260097 -1 -1 0 1;
#X obj 17 1585 hsl 128 15 0 1 0 0 empty empty Melody_scaler -2 -8 0
10 -260097 -1 -1 4318 1;
#X obj 17 313 hsl 128 15 -72 24 0 0 empty empty Loudness_scaler -2
-8 0 10 -260097 -1 -1 4498 1;
#X obj 17 1715 hsl 128 15 0.1 4 0 0 empty empty Tempo -2 -8 0 10 -260097
-1 -1 4559 1;
#X obj 17 1845 hsl 128 15 0 6 0 0 empty empty Density -2 -8 0 10 -260097
-1 -1 0 1;
#X obj 17 1975 hsl 128 15 0.1 3 0 0 empty empty Temperature -2 -8 0
10 -260097 -1 -1 5600 1;
#X obj 14 693 tgl 15 0 empty empty Trigger_switch 17 7 0 10 -260097
-1 -1 1 1;
#X obj 14 1325 tgl 15 0 empty empty Invent/Imitate 17 7 0 10 -260097
-1 -1 0 1;
#X obj 14 202 list prepend;
#X obj 14 331 list prepend;
#X obj 14 462 list prepend;
#X obj 14 596 list prepend;
#X obj 14 711 list prepend;
#X obj 14 840 list prepend;
#X obj 14 968 list prepend;
#X obj 14 1098 list prepend;
#X obj 14 1227 list prepend;
#X obj 14 1343 list prepend;
#X obj 14 1474 list prepend;
#X obj 14 1603 list prepend;
#X obj 14 1733 list prepend;
#X obj 14 1863 list prepend;
#X obj 14 1993 list prepend;
#X msg 95 2091 symbol voice0;
#X obj 14 79 pattr/gStorage voice0;
#X obj 14 137 pattr/gsfloat voice0 pitch;
#X obj 14 268 pattr/gsfloat voice0 loudness;
#X obj 14 399 pattr/gsfloat voice0 silence;
#X obj 14 531 pattr/gsfloat voice0 volume;
#X obj 14 661 pattr/gsfloat voice0 trigger_switch;
#X obj 14 774 pattr/gsfloat voice0 mfcc_xtr;
#X obj 14 904 pattr/gsfloat voice0 loudness_xtr;
#X obj 14 1034 pattr/gsfloat voice0 tone;
#X obj 14 1163 pattr/gsfloat voice0 noise;
#X obj 14 1292 pattr/gsfloat voice0 invent;
#X obj 14 1410 pattr/gsfloat voice0 primer_scaler;
#X obj 14 1539 pattr/gsfloat voice0 melody_scaler;
#X obj 14 1669 pattr/gsfloat voice0 tempo;
#X obj 14 1799 pattr/gsfloat voice0 density;
#X obj 14 1928 pattr/gsfloat voice0 temperature;
#X floatatom 150 1715 5 0 0 0 - - -;
#X floatatom 150 184 5 0 0 0 - - -;
#X floatatom 14 29 5 0 0 1 State - -;
#X obj 14 4 inlet;
#N canvas 2502 356 450 300 load_presets 0;
#X obj 10 55 hcs/folder_list ./;
#X obj 10 30 loadbang;
#X obj 83 30 bng 15 250 50 0 empty empty empty 17 7 0 10 -262144 -1
-1;
#X obj 10 105 outlet;
#X msg 10 80 readpath \$1Presets/presets_voice0;
#X connect 0 0 4 0;
#X connect 1 0 0 0;
#X connect 2 0 0 0;
#X connect 4 0 3 0;
#X restore 135 55 pd load_presets;
#X obj 331 2066 loadbang;
#X msg 250 226 \; \$1_sld_pitch_scaler_rcv \$2;
#X msg 250 355 \; \$1_sld_ld_scaler_rcv \$2;
#X msg 250 486 \; \$1_sld_silence_rcv \$2;
#X msg 250 620 \; \$1_sld_volume_rcv \$2;
#X msg 250 735 \; \$1_toggle_trigger_rcv \$2;
#X msg 250 864 \; \$1_sld_mfcc_xtr_rcv \$2;
#X msg 250 992 \; \$1_sld_loudness_xtr_rcv \$2;
#X msg 250 1122 \; \$1_sld_tone_rcv \$2;
#X msg 250 1251 \; \$1_sld_noise_rcv \$2;
#X msg 250 1367 \; \$1_toggle_primer_rcv \$2;
#X msg 250 1757 \; \$1_sld_tempo_rcv \$2;
#X msg 250 1887 \; \$1_sld_density_rcv \$2;
#X msg 250 2017 \; \$1_sld_temperature_rcv \$2;
#X msg 250 1498 \; \$1_sld_primer_scaler_rcv \$2;
#X msg 250 1628 \; \$1_sld_melody_scaler_rcv \$2;
#X obj 253 184 hsl 128 15 0 4 0 0 empty empty Pitch_scaler -2 -8 0
10 -260097 -1 -1 3175 1;
#X obj 253 444 hsl 128 15 0 1 0 0 empty empty Silence -2 -8 0 10 -260097
-1 -1 12700 1;
#X obj 253 578 hsl 128 15 0 1 0 0 empty empty Volume -2 -8 0 10 -260097
-1 -1 0 1;
#X obj 253 822 hsl 128 15 0 1 0 0 empty empty MFCC_extrapolate -2 -8
0 10 -260097 -1 -1 0 1;
#X obj 253 950 hsl 128 15 0 1 0 0 empty empty Loudness_extrapolate
-2 -8 0 10 -260097 -1 -1 0 1;
#X obj 253 1080 hsl 128 15 0 1 0 0 empty empty Tone -2 -8 0 10 -260097
-1 -1 6350 1;
#X obj 253 1209 hsl 128 15 0 1 0 0 empty empty Noise -2 -8 0 10 -260097
-1 -1 11430 1;
#X obj 253 1456 hsl 128 15 0 1 0 0 empty empty Primer_scaler -2 -8
0 10 -260097 -1 -1 12700 1;
#X obj 253 1585 hsl 128 15 0 1 0 0 empty empty Melody_scaler -2 -8
0 10 -260097 -1 -1 0 1;
#X obj 253 313 hsl 128 15 -72 24 0 0 empty empty Loudness_scaler -2
-8 0 10 -260097 -1 -1 2910 1;
#X obj 253 1715 hsl 128 15 0.1 4 0 0 empty empty Tempo -2 -8 0 10 -260097
-1 -1 2931 1;
#X obj 253 1845 hsl 128 15 0 6 0 0 empty empty Density -2 -8 0 10 -260097
-1 -1 6350 1;
#X obj 253 1975 hsl 128 15 0.1 3 0 0 empty empty Temperature -2 -8
0 10 -260097 -1 -1 3941 1;
#X obj 250 693 tgl 15 0 empty empty Trigger_switch 17 7 0 10 -260097
-1 -1 0 1;
#X obj 250 1325 tgl 15 0 empty empty Invent/Imitate 17 7 0 10 -260097
-1 -1 1 1;
#X obj 250 202 list prepend;
#X obj 250 331 list prepend;
#X obj 250 462 list prepend;
#X obj 250 596 list prepend;
#X obj 250 711 list prepend;
#X obj 250 840 list prepend;
#X obj 250 968 list prepend;
#X obj 250 1098 list prepend;
#X obj 250 1227 list prepend;
#X obj 250 1343 list prepend;
#X obj 250 1474 list prepend;
#X obj 250 1603 list prepend;
#X obj 250 1733 list prepend;
#X obj 250 1863 list prepend;
#X obj 250 1993 list prepend;
#X floatatom 386 1715 5 0 0 0 - - -;
#X floatatom 386 184 5 0 0 0 - - -;
#N canvas 2502 356 450 300 load_presets 0;
#X obj 10 55 hcs/folder_list ./;
#X obj 10 30 loadbang;
#X obj 83 30 bng 15 250 50 0 empty empty empty 17 7 0 10 -262144 -1
-1;
#X obj 10 105 outlet;
#X msg 10 80 readpath \$1Presets/presets_voice1;
#X connect 0 0 4 0;
#X connect 1 0 0 0;
#X connect 2 0 0 0;
#X connect 4 0 3 0;
#X restore 371 55 pd load_presets;
#X obj 567 2066 loadbang;
#X msg 486 226 \; \$1_sld_pitch_scaler_rcv \$2;
#X msg 486 355 \; \$1_sld_ld_scaler_rcv \$2;
#X msg 486 486 \; \$1_sld_silence_rcv \$2;
#X msg 486 620 \; \$1_sld_volume_rcv \$2;
#X msg 486 735 \; \$1_toggle_trigger_rcv \$2;
#X msg 486 864 \; \$1_sld_mfcc_xtr_rcv \$2;
#X msg 486 992 \; \$1_sld_loudness_xtr_rcv \$2;
#X msg 486 1122 \; \$1_sld_tone_rcv \$2;
#X msg 486 1251 \; \$1_sld_noise_rcv \$2;
#X msg 486 1367 \; \$1_toggle_primer_rcv \$2;
#X msg 486 1757 \; \$1_sld_tempo_rcv \$2;
#X msg 486 1887 \; \$1_sld_density_rcv \$2;
#X msg 486 2017 \; \$1_sld_temperature_rcv \$2;
#X msg 486 1498 \; \$1_sld_primer_scaler_rcv \$2;
#X msg 486 1628 \; \$1_sld_melody_scaler_rcv \$2;
#X obj 489 184 hsl 128 15 0 4 0 0 empty empty Pitch_scaler -2 -8 0
10 -260097 -1 -1 3175 1;
#X obj 489 444 hsl 128 15 0 1 0 0 empty empty Silence -2 -8 0 10 -260097
-1 -1 12700 1;
#X obj 489 578 hsl 128 15 0 1 0 0 empty empty Volume -2 -8 0 10 -260097
-1 -1 0 1;
#X obj 489 822 hsl 128 15 0 1 0 0 empty empty MFCC_extrapolate -2 -8
0 10 -260097 -1 -1 6350 1;
#X obj 489 950 hsl 128 15 0 1 0 0 empty empty Loudness_extrapolate
-2 -8 0 10 -260097 -1 -1 6350 1;
#X obj 489 1080 hsl 128 15 0 1 0 0 empty empty Tone -2 -8 0 10 -260097
-1 -1 6350 1;
#X obj 489 1209 hsl 128 15 0 1 0 0 empty empty Noise -2 -8 0 10 -260097
-1 -1 11430 1;
#X obj 489 1456 hsl 128 15 0 1 0 0 empty empty Primer_scaler -2 -8
0 10 -260097 -1 -1 12700 1;
#X obj 489 1585 hsl 128 15 0 1 0 0 empty empty Melody_scaler -2 -8
0 10 -260097 -1 -1 6350 1;
#X obj 489 313 hsl 128 15 -72 24 0 0 empty empty Loudness_scaler -2
-8 0 10 -260097 -1 -1 3440 1;
#X obj 489 1715 hsl 128 15 0.1 4 0 0 empty empty Tempo -2 -8 0 10 -260097
-1 -1 2931 1;
#X obj 489 1845 hsl 128 15 0 6 0 0 empty empty Density -2 -8 0 10 -260097
-1 -1 6350 1;
#X obj 489 1975 hsl 128 15 0.1 3 0 0 empty empty Temperature -2 -8
0 10 -260097 -1 -1 3941 1;
#X obj 486 693 tgl 15 0 empty empty Trigger_switch 17 7 0 10 -260097
-1 -1 0 1;
#X obj 486 1325 tgl 15 0 empty empty Invent/Imitate 17 7 0 10 -260097
-1 -1 1 1;
#X obj 486 202 list prepend;
#X obj 486 331 list prepend;
#X obj 486 462 list prepend;
#X obj 486 596 list prepend;
#X obj 486 711 list prepend;
#X obj 486 840 list prepend;
#X obj 486 968 list prepend;
#X obj 486 1098 list prepend;
#X obj 486 1227 list prepend;
#X obj 486 1343 list prepend;
#X obj 486 1474 list prepend;
#X obj 486 1603 list prepend;
#X obj 486 1733 list prepend;
#X obj 486 1863 list prepend;
#X obj 486 1993 list prepend;
#X floatatom 622 1715 5 0 0 0 - - -;
#X floatatom 622 184 5 0 0 0 - - -;
#N canvas 2502 356 450 300 load_presets 0;
#X obj 10 55 hcs/folder_list ./;
#X obj 10 30 loadbang;
#X obj 83 30 bng 15 250 50 0 empty empty empty 17 7 0 10 -262144 -1
-1;
#X obj 10 105 outlet;
#X msg 10 80 readpath \$1Presets/presets_voice2;
#X connect 0 0 4 0;
#X connect 1 0 0 0;
#X connect 2 0 0 0;
#X connect 4 0 3 0;
#X restore 607 55 pd load_presets;
#X obj 803 2067 loadbang;
#X msg 722 227 \; \$1_sld_pitch_scaler_rcv \$2;
#X msg 722 356 \; \$1_sld_ld_scaler_rcv \$2;
#X msg 722 487 \; \$1_sld_silence_rcv \$2;
#X msg 722 621 \; \$1_sld_volume_rcv \$2;
#X msg 722 736 \; \$1_toggle_trigger_rcv \$2;
#X msg 722 865 \; \$1_sld_mfcc_xtr_rcv \$2;
#X msg 722 993 \; \$1_sld_loudness_xtr_rcv \$2;
#X msg 722 1123 \; \$1_sld_tone_rcv \$2;
#X msg 722 1252 \; \$1_sld_noise_rcv \$2;
#X msg 722 1368 \; \$1_toggle_primer_rcv \$2;
#X msg 722 1758 \; \$1_sld_tempo_rcv \$2;
#X msg 722 1888 \; \$1_sld_density_rcv \$2;
#X msg 722 2018 \; \$1_sld_temperature_rcv \$2;
#X msg 722 1499 \; \$1_sld_primer_scaler_rcv \$2;
#X msg 722 1629 \; \$1_sld_melody_scaler_rcv \$2;
#X obj 725 185 hsl 128 15 0 4 0 0 empty empty Pitch_scaler -2 -8 0
10 -260097 -1 -1 3175 1;
#X obj 725 445 hsl 128 15 0 1 0 0 empty empty Silence -2 -8 0 10 -260097
-1 -1 12700 1;
#X obj 725 579 hsl 128 15 0 1 0 0 empty empty Volume -2 -8 0 10 -260097
-1 -1 0 1;
#X obj 725 823 hsl 128 15 0 1 0 0 empty empty MFCC_extrapolate -2 -8
0 10 -260097 -1 -1 12700 1;
#X obj 725 951 hsl 128 15 0 1 0 0 empty empty Loudness_extrapolate
-2 -8 0 10 -260097 -1 -1 12700 1;
#X obj 725 1081 hsl 128 15 0 1 0 0 empty empty Tone -2 -8 0 10 -260097
-1 -1 6350 1;
#X obj 725 1210 hsl 128 15 0 1 0 0 empty empty Noise -2 -8 0 10 -260097
-1 -1 11430 1;
#X obj 725 1457 hsl 128 15 0 1 0 0 empty empty Primer_scaler -2 -8
0 10 -260097 -1 -1 0 1;
#X obj 725 1586 hsl 128 15 0 1 0 0 empty empty Melody_scaler -2 -8
0 10 -260097 -1 -1 12700 1;
#X obj 725 314 hsl 128 15 -72 24 0 0 empty empty Loudness_scaler -2
-8 0 10 -260097 -1 -1 2646 1;
#X obj 725 1716 hsl 128 15 0.1 4 0 0 empty empty Tempo -2 -8 0 10 -260097
-1 -1 2931 1;
#X obj 725 1846 hsl 128 15 0 6 0 0 empty empty Density -2 -8 0 10 -260097
-1 -1 6350 1;
#X obj 725 1976 hsl 128 15 0.1 3 0 0 empty empty Temperature -2 -8
0 10 -260097 -1 -1 3941 1;
#X obj 722 694 tgl 15 0 empty empty Trigger_switch 17 7 0 10 -260097
-1 -1 0 1;
#X obj 722 1326 tgl 15 0 empty empty Invent/Imitate 17 7 0 10 -260097
-1 -1 1 1;
#X obj 722 203 list prepend;
#X obj 722 332 list prepend;
#X obj 722 463 list prepend;
#X obj 722 597 list prepend;
#X obj 722 712 list prepend;
#X obj 722 841 list prepend;
#X obj 722 969 list prepend;
#X obj 722 1099 list prepend;
#X obj 722 1228 list prepend;
#X obj 722 1344 list prepend;
#X obj 722 1475 list prepend;
#X obj 722 1604 list prepend;
#X obj 722 1734 list prepend;
#X obj 722 1864 list prepend;
#X obj 722 1994 list prepend;
#X floatatom 858 1716 5 0 0 0 - - -;
#X floatatom 858 185 5 0 0 0 - - -;
#N canvas 2502 356 450 300 load_presets 0;
#X obj 10 55 hcs/folder_list ./;
#X obj 10 30 loadbang;
#X obj 83 30 bng 15 250 50 0 empty empty empty 17 7 0 10 -262144 -1
-1;
#X obj 10 105 outlet;
#X msg 10 80 readpath \$1Presets/presets_voice3;
#X connect 0 0 4 0;
#X connect 1 0 0 0;
#X connect 2 0 0 0;
#X connect 4 0 3 0;
#X restore 843 56 pd load_presets;
#X obj 1040 2067 loadbang;
#X msg 959 227 \; \$1_sld_pitch_scaler_rcv \$2;
#X msg 959 356 \; \$1_sld_ld_scaler_rcv \$2;
#X msg 959 487 \; \$1_sld_silence_rcv \$2;
#X msg 959 621 \; \$1_sld_volume_rcv \$2;
#X msg 959 736 \; \$1_toggle_trigger_rcv \$2;
#X msg 959 865 \; \$1_sld_mfcc_xtr_rcv \$2;
#X msg 959 993 \; \$1_sld_loudness_xtr_rcv \$2;
#X msg 959 1123 \; \$1_sld_tone_rcv \$2;
#X msg 959 1252 \; \$1_sld_noise_rcv \$2;
#X msg 959 1368 \; \$1_toggle_primer_rcv \$2;
#X msg 959 1758 \; \$1_sld_tempo_rcv \$2;
#X msg 959 1888 \; \$1_sld_density_rcv \$2;
#X msg 959 2018 \; \$1_sld_temperature_rcv \$2;
#X msg 959 1499 \; \$1_sld_primer_scaler_rcv \$2;
#X msg 959 1629 \; \$1_sld_melody_scaler_rcv \$2;
#X obj 962 185 hsl 128 15 0 4 0 0 empty empty Pitch_scaler -2 -8 0
10 -260097 -1 -1 794 1;
#X obj 962 445 hsl 128 15 0 1 0 0 empty empty Silence -2 -8 0 10 -260097
-1 -1 12700 1;
#X obj 962 579 hsl 128 15 0 1 0 0 empty empty Volume -2 -8 0 10 -260097
-1 -1 0 1;
#X obj 962 823 hsl 128 15 0 1 0 0 empty empty MFCC_extrapolate -2 -8
0 10 -260097 -1 -1 12700 1;
#X obj 962 951 hsl 128 15 0 1 0 0 empty empty Loudness_extrapolate
-2 -8 0 10 -260097 -1 -1 12700 1;
#X obj 962 1081 hsl 128 15 0 1 0 0 empty empty Tone -2 -8 0 10 -260097
-1 -1 0 1;
#X obj 962 1210 hsl 128 15 0 1 0 0 empty empty Noise -2 -8 0 10 -260097
-1 -1 0 1;
#X obj 962 1457 hsl 128 15 0 1 0 0 empty empty Primer_scaler -2 -8
0 10 -260097 -1 -1 0 1;
#X obj 962 1586 hsl 128 15 0 1 0 0 empty empty Melody_scaler -2 -8
0 10 -260097 -1 -1 6350 1;
#X obj 962 314 hsl 128 15 -72 24 0 0 empty empty Loudness_scaler -2
-8 0 10 -260097 -1 -1 3175 1;
#X obj 962 1716 hsl 128 15 0.1 4 0 0 empty empty Tempo -2 -8 0 10 -260097
-1 -1 12700 1;
#X obj 962 1846 hsl 128 15 0 6 0 0 empty empty Density -2 -8 0 10 -260097
-1 -1 4233 1;
#X obj 962 1976 hsl 128 15 0.1 3 0 0 empty empty Temperature -2 -8
0 10 -260097 -1 -1 438 1;
#X obj 959 694 tgl 15 0 empty empty Trigger_switch 17 7 0 10 -260097
-1 -1 1 1;
#X obj 959 1326 tgl 15 0 empty empty Invent/Imitate 17 7 0 10 -260097
-1 -1 0 1;
#X obj 959 203 list prepend;
#X obj 959 332 list prepend;
#X obj 959 463 list prepend;
#X obj 959 597 list prepend;
#X obj 959 712 list prepend;
#X obj 959 841 list prepend;
#X obj 959 969 list prepend;
#X obj 959 1099 list prepend;
#X obj 959 1228 list prepend;
#X obj 959 1344 list prepend;
#X obj 959 1475 list prepend;
#X obj 959 1604 list prepend;
#X obj 959 1734 list prepend;
#X obj 959 1864 list prepend;
#X obj 959 1994 list prepend;
#X floatatom 1095 1716 5 0 0 0 - - -;
#X floatatom 1095 185 5 0 0 0 - - -;
#N canvas 2502 356 450 300 load_presets 0;
#X obj 10 55 hcs/folder_list ./;
#X obj 10 30 loadbang;
#X obj 83 30 bng 15 250 50 0 empty empty empty 17 7 0 10 -262144 -1
-1;
#X obj 10 105 outlet;
#X msg 10 80 readpath \$1Presets/presets_voice4;
#X connect 0 0 4 0;
#X connect 1 0 0 0;
#X connect 2 0 0 0;
#X connect 4 0 3 0;
#X restore 1080 56 pd load_presets;
#X msg 331 2091 symbol voice1;
#X msg 567 2091 symbol voice2;
#X msg 803 2092 symbol voice3;
#X msg 1040 2092 symbol voice4;
#X obj 1277 2067 loadbang;
#X msg 1196 227 \; \$1_sld_pitch_scaler_rcv \$2;
#X msg 1196 356 \; \$1_sld_ld_scaler_rcv \$2;
#X msg 1196 487 \; \$1_sld_silence_rcv \$2;
#X msg 1196 621 \; \$1_sld_volume_rcv \$2;
#X msg 1196 736 \; \$1_toggle_trigger_rcv \$2;
#X msg 1196 865 \; \$1_sld_mfcc_xtr_rcv \$2;
#X msg 1196 993 \; \$1_sld_loudness_xtr_rcv \$2;
#X msg 1196 1123 \; \$1_sld_tone_rcv \$2;
#X msg 1196 1252 \; \$1_sld_noise_rcv \$2;
#X msg 1196 1368 \; \$1_toggle_primer_rcv \$2;
#X msg 1196 1758 \; \$1_sld_tempo_rcv \$2;
#X msg 1196 1888 \; \$1_sld_density_rcv \$2;
#X msg 1196 2018 \; \$1_sld_temperature_rcv \$2;
#X msg 1196 1499 \; \$1_sld_primer_scaler_rcv \$2;
#X msg 1196 1629 \; \$1_sld_melody_scaler_rcv \$2;
#X obj 1199 185 hsl 128 15 0 4 0 0 empty empty Pitch_scaler -2 -8 0
10 -260097 -1 -1 3175 1;
#X obj 1199 445 hsl 128 15 0 1 0 0 empty empty Silence -2 -8 0 10 -260097
-1 -1 4699 1;
#X obj 1199 579 hsl 128 15 0 1 0 0 empty empty Volume -2 -8 0 10 -260097
-1 -1 12700 1;
#X obj 1199 823 hsl 128 15 0 1 0 0 empty empty MFCC_extrapolate -2
-8 0 10 -260097 -1 -1 12700 1;
#X obj 1199 951 hsl 128 15 0 1 0 0 empty empty Loudness_extrapolate
-2 -8 0 10 -260097 -1 -1 12700 1;
#X obj 1199 1081 hsl 128 15 0 1 0 0 empty empty Tone -2 -8 0 10 -260097
-1 -1 6820 1;
#X obj 1199 1210 hsl 128 15 0 1 0 0 empty empty Noise -2 -8 0 10 -260097
-1 -1 6820 1;
#X obj 1199 1457 hsl 128 15 0 1 0 0 empty empty Primer_scaler -2 -8
0 10 -260097 -1 -1 0 1;
#X obj 1199 1586 hsl 128 15 0 1 0 0 empty empty Melody_scaler -2 -8
0 10 -260097 -1 -1 5334 1;
#X obj 1199 314 hsl 128 15 -72 24 0 0 empty empty Loudness_scaler -2
-8 0 10 -260097 -1 -1 4366 1;
#X obj 1199 1716 hsl 128 15 0.1 4 0 0 empty empty Tempo -2 -8 0 10
-260097 -1 -1 4559 1;
#X obj 1199 1846 hsl 128 15 0 6 0 0 empty empty Density -2 -8 0 10
-260097 -1 -1 0 1;
#X obj 1199 1976 hsl 128 15 0.1 3 0 0 empty empty Temperature -2 -8
0 10 -260097 -1 -1 5600 1;
#X obj 1196 694 tgl 15 0 empty empty Trigger_switch 17 7 0 10 -260097
-1 -1 1 1;
#X obj 1196 1326 tgl 15 0 empty empty Invent/Imitate 17 7 0 10 -260097
-1 -1 0 1;
#X obj 1196 203 list prepend;
#X obj 1196 332 list prepend;
#X obj 1196 463 list prepend;
#X obj 1196 597 list prepend;
#X obj 1196 712 list prepend;
#X obj 1196 841 list prepend;
#X obj 1196 969 list prepend;
#X obj 1196 1099 list prepend;
#X obj 1196 1228 list prepend;
#X obj 1196 1344 list prepend;
#X obj 1196 1475 list prepend;
#X obj 1196 1604 list prepend;
#X obj 1196 1734 list prepend;
#X obj 1196 1864 list prepend;
#X obj 1196 1994 list prepend;
#X floatatom 1332 1716 5 0 0 0 - - -;
#X floatatom 1332 185 5 0 0 0 - - -;
#N canvas 2502 356 450 300 load_presets 0;
#X obj 10 55 hcs/folder_list ./;
#X obj 10 30 loadbang;
#X obj 83 30 bng 15 250 50 0 empty empty empty 17 7 0 10 -262144 -1
-1;
#X obj 10 105 outlet;
#X msg 10 80 readpath \$1Presets/presets_voice5;
#X connect 0 0 4 0;
#X connect 1 0 0 0;
#X connect 2 0 0 0;
#X connect 4 0 3 0;
#X restore 1317 56 pd load_presets;
#X msg 1277 2092 symbol voice5;
#X obj 250 137 pattr/gsfloat voice1 pitch;
#X obj 250 79 pattr/gStorage voice1;
#X obj 250 268 pattr/gsfloat voice1 loudness;
#X obj 250 399 pattr/gsfloat voice1 silence;
#X obj 250 531 pattr/gsfloat voice1 volume;
#X obj 250 661 pattr/gsfloat voice1 trigger_switch;
#X obj 251 773 pattr/gsfloat voice1 mfcc_xtr;
#X obj 250 904 pattr/gsfloat voice1 loudness_xtr;
#X obj 250 1034 pattr/gsfloat voice1 tone;
#X obj 250 1163 pattr/gsfloat voice1 noise;
#X obj 250 1292 pattr/gsfloat voice1 invent;
#X obj 250 1410 pattr/gsfloat voice1 primer_scaler;
#X obj 250 1539 pattr/gsfloat voice1 melody_scaler;
#X obj 250 1669 pattr/gsfloat voice1 tempo;
#X obj 250 1799 pattr/gsfloat voice1 density;
#X obj 250 1928 pattr/gsfloat voice1 temperature;
#X obj 486 79 pattr/gStorage voice2;
#X obj 486 268 pattr/gsfloat voice2 loudness;
#X obj 487 399 pattr/gsfloat voice2 silence;
#X obj 486 531 pattr/gsfloat voice2 volume;
#X obj 486 661 pattr/gsfloat voice2 trigger_switch;
#X obj 486 774 pattr/gsfloat voice2 mfcc_xtr;
#X obj 486 904 pattr/gsfloat voice2 loudness_xtr;
#X obj 486 1034 pattr/gsfloat voice2 tone;
#X obj 486 1163 pattr/gsfloat voice2 noise;
#X obj 486 1292 pattr/gsfloat voice2 invent;
#X obj 486 1410 pattr/gsfloat voice2 primer_scaler;
#X obj 486 1539 pattr/gsfloat voice2 melody_scaler;
#X obj 486 1669 pattr/gsfloat voice2 tempo;
#X obj 486 1799 pattr/gsfloat voice2 density;
#X obj 486 1928 pattr/gsfloat voice2 temperature;
#X obj 722 80 pattr/gStorage voice3;
#X obj 722 269 pattr/gsfloat voice3 loudness;
#X obj 722 400 pattr/gsfloat voice3 silence;
#X obj 722 532 pattr/gsfloat voice3 volume;
#X obj 722 662 pattr/gsfloat voice3 trigger_switch;
#X obj 722 775 pattr/gsfloat voice3 mfcc_xtr;
#X obj 722 905 pattr/gsfloat voice3 loudness_xtr;
#X obj 722 1035 pattr/gsfloat voice3 tone;
#X obj 722 1164 pattr/gsfloat voice3 noise;
#X obj 722 1293 pattr/gsfloat voice3 invent;
#X obj 722 1411 pattr/gsfloat voice3 primer_scaler;
#X obj 722 1540 pattr/gsfloat voice3 melody_scaler;
#X obj 722 1670 pattr/gsfloat voice3 tempo;
#X obj 722 1800 pattr/gsfloat voice3 density;
#X obj 722 1929 pattr/gsfloat voice3 temperature;
#X obj 959 1929 pattr/gsfloat voice4 temperature;
#X obj 959 1800 pattr/gsfloat voice4 density;
#X obj 959 1670 pattr/gsfloat voice4 tempo;
#X obj 959 1540 pattr/gsfloat voice4 melody_scaler;
#X obj 959 1411 pattr/gsfloat voice4 primer_scaler;
#X obj 959 1293 pattr/gsfloat voice4 invent;
#X obj 959 1164 pattr/gsfloat voice4 noise;
#X obj 959 1035 pattr/gsfloat voice4 tone;
#X obj 959 905 pattr/gsfloat voice4 loudness_xtr;
#X obj 959 775 pattr/gsfloat voice4 mfcc_xtr;
#X obj 959 662 pattr/gsfloat voice4 trigger_switch;
#X obj 959 532 pattr/gsfloat voice4 volume;
#X obj 959 400 pattr/gsfloat voice4 silence;
#X obj 959 269 pattr/gsfloat voice4 loudness;
#X obj 959 80 pattr/gStorage voice4;
#X obj 1196 1929 pattr/gsfloat voice5 temperature;
#X obj 1196 1800 pattr/gsfloat voice5 density;
#X obj 1196 1670 pattr/gsfloat voice5 tempo;
#X obj 1196 1540 pattr/gsfloat voice5 melody_scaler;
#X obj 1196 1411 pattr/gsfloat voice5 primer_scaler;
#X obj 1196 1293 pattr/gsfloat voice5 invent;
#X obj 1196 1164 pattr/gsfloat voice5 noise;
#X obj 1196 1035 pattr/gsfloat voice5 tone;
#X obj 1196 905 pattr/gsfloat voice5 loudness_xtr;
#X obj 1196 775 pattr/gsfloat voice5 mfcc_xtr;
#X obj 1196 662 pattr/gsfloat voice5 trigger_switch;
#X obj 1196 532 pattr/gsfloat voice5 volume;
#X obj 1196 400 pattr/gsfloat voice5 silence;
#X obj 1196 269 pattr/gsfloat voice5 loudness;
#X obj 1196 80 pattr/gStorage voice5;
#X obj 486 137 pattr/gsfloat voice2 pitch;
#X obj 722 138 pattr/gsfloat voice3 pitch;
#X obj 959 138 pattr/gsfloat voice4 pitch;
#X obj 1196 138 pattr/gsfloat voice5 pitch;
#X connect 0 0 46 0;
#X connect 16 0 31 0;
#X connect 16 0 48 0;
#X connect 17 0 33 0;
#X connect 17 0 50 0;
#X connect 18 0 34 0;
#X connect 18 0 51 0;
#X connect 19 0 36 0;
#X connect 19 0 53 0;
#X connect 20 0 37 0;
#X connect 20 0 54 0;
#X connect 21 0 38 0;
#X connect 21 0 55 0;
#X connect 22 0 39 0;
#X connect 22 0 56 0;
#X connect 23 0 41 0;
#X connect 23 0 58 0;
#X connect 24 0 42 0;
#X connect 24 0 59 0;
#X connect 25 0 32 0;
#X connect 25 0 49 0;
#X connect 26 0 43 0;
#X connect 26 0 60 0;
#X connect 27 0 44 0;
#X connect 27 0 61 0;
#X connect 28 0 45 0;
#X connect 28 0 62 0;
#X connect 29 0 35 0;
#X connect 29 0 52 0;
#X connect 30 0 40 0;
#X connect 30 0 57 0;
#X connect 31 0 1 0;
#X connect 32 0 2 0;
#X connect 33 0 3 0;
#X connect 34 0 4 0;
#X connect 35 0 5 0;
#X connect 36 0 6 0;
#X connect 37 0 7 0;
#X connect 38 0 8 0;
#X connect 39 0 9 0;
#X connect 40 0 10 0;
#X connect 41 0 14 0;
#X connect 42 0 15 0;
#X connect 43 0 11 0;
#X connect 44 0 12 0;
#X connect 45 0 13 0;
#X connect 46 0 31 1;
#X connect 46 0 32 1;
#X connect 46 0 33 1;
#X connect 46 0 34 1;
#X connect 46 0 35 1;
#X connect 46 0 36 1;
#X connect 46 0 37 1;
#X connect 46 0 38 1;
#X connect 46 0 39 1;
#X connect 46 0 40 1;
#X connect 46 0 41 1;
#X connect 46 0 42 1;
#X connect 46 0 43 1;
#X connect 46 0 44 1;
#X connect 46 0 45 1;
#X connect 48 0 16 0;
#X connect 49 0 25 0;
#X connect 50 0 17 0;
#X connect 51 0 18 0;
#X connect 52 0 29 0;
#X connect 53 0 19 0;
#X connect 54 0 20 0;
#X connect 55 0 21 0;
#X connect 56 0 22 0;
#X connect 57 0 30 0;
#X connect 58 0 23 0;
#X connect 59 0 24 0;
#X connect 60 0 26 0;
#X connect 61 0 27 0;
#X connect 62 0 28 0;
#X connect 63 0 26 0;
#X connect 64 0 16 0;
#X connect 65 0 47 0;
#X connect 65 0 319 0;
#X connect 65 0 334 0;
#X connect 65 0 349 0;
#X connect 65 0 378 0;
#X connect 65 0 393 0;
#X connect 66 0 65 0;
#X connect 67 0 47 1;
#X connect 68 0 264 0;
#X connect 84 0 99 0;
#X connect 84 0 318 0;
#X connect 85 0 101 0;
#X connect 85 0 321 0;
#X connect 86 0 102 0;
#X connect 86 0 322 0;
#X connect 87 0 104 0;
#X connect 87 0 324 0;
#X connect 88 0 105 0;
#X connect 88 0 325 0;
#X connect 89 0 106 0;
#X connect 89 0 326 0;
#X connect 90 0 107 0;
#X connect 90 0 327 0;
#X connect 91 0 109 0;
#X connect 91 0 329 0;
#X connect 92 0 110 0;
#X connect 92 0 330 0;
#X connect 93 0 100 0;
#X connect 93 0 320 0;
#X connect 94 0 111 0;
#X connect 94 0 331 0;
#X connect 95 0 112 0;
#X connect 95 0 332 0;
#X connect 96 0 113 0;
#X connect 96 0 333 0;
#X connect 97 0 103 0;
#X connect 97 0 323 0;
#X connect 98 0 108 0;
#X connect 98 0 328 0;
#X connect 99 0 69 0;
#X connect 100 0 70 0;
#X connect 101 0 71 0;
#X connect 102 0 72 0;
#X connect 103 0 73 0;
#X connect 104 0 74 0;
#X connect 105 0 75 0;
#X connect 106 0 76 0;
#X connect 107 0 77 0;
#X connect 108 0 78 0;
#X connect 109 0 82 0;
#X connect 110 0 83 0;
#X connect 111 0 79 0;
#X connect 112 0 80 0;
#X connect 113 0 81 0;
#X connect 114 0 94 0;
#X connect 115 0 84 0;
#X connect 116 0 319 1;
#X connect 117 0 265 0;
#X connect 133 0 148 0;
#X connect 133 0 394 0;
#X connect 134 0 150 0;
#X connect 134 0 336 0;
#X connect 135 0 151 0;
#X connect 135 0 337 0;
#X connect 136 0 153 0;
#X connect 136 0 339 0;
#X connect 137 0 154 0;
#X connect 137 0 340 0;
#X connect 138 0 155 0;
#X connect 138 0 341 0;
#X connect 139 0 156 0;
#X connect 139 0 342 0;
#X connect 140 0 158 0;
#X connect 140 0 344 0;
#X connect 141 0 159 0;
#X connect 141 0 345 0;
#X connect 142 0 149 0;
#X connect 142 0 335 0;
#X connect 143 0 160 0;
#X connect 143 0 346 0;
#X connect 144 0 161 0;
#X connect 144 0 347 0;
#X connect 145 0 162 0;
#X connect 145 0 348 0;
#X connect 146 0 152 0;
#X connect 146 0 338 0;
#X connect 147 0 157 0;
#X connect 147 0 343 0;
#X connect 148 0 118 0;
#X connect 149 0 119 0;
#X connect 150 0 120 0;
#X connect 151 0 121 0;
#X connect 152 0 122 0;
#X connect 153 0 123 0;
#X connect 154 0 124 0;
#X connect 155 0 125 0;
#X connect 156 0 126 0;
#X connect 157 0 127 0;
#X connect 158 0 131 0;
#X connect 159 0 132 0;
#X connect 160 0 128 0;
#X connect 161 0 129 0;
#X connect 162 0 130 0;
#X connect 163 0 143 0;
#X connect 164 0 133 0;
#X connect 165 0 334 1;
#X connect 166 0 266 0;
#X connect 182 0 197 0;
#X connect 182 0 395 0;
#X connect 183 0 199 0;
#X connect 183 0 351 0;
#X connect 184 0 200 0;
#X connect 184 0 352 0;
#X connect 185 0 202 0;
#X connect 185 0 354 0;
#X connect 186 0 203 0;
#X connect 186 0 355 0;
#X connect 187 0 204 0;
#X connect 187 0 356 0;
#X connect 188 0 205 0;
#X connect 188 0 357 0;
#X connect 189 0 207 0;
#X connect 189 0 359 0;
#X connect 190 0 208 0;
#X connect 190 0 360 0;
#X connect 191 0 198 0;
#X connect 191 0 350 0;
#X connect 192 0 209 0;
#X connect 192 0 361 0;
#X connect 193 0 210 0;
#X connect 193 0 362 0;
#X connect 194 0 211 0;
#X connect 194 0 363 0;
#X connect 195 0 201 0;
#X connect 195 0 353 0;
#X connect 196 0 206 0;
#X connect 196 0 358 0;
#X connect 197 0 167 0;
#X connect 198 0 168 0;
#X connect 199 0 169 0;
#X connect 200 0 170 0;
#X connect 201 0 171 0;
#X connect 202 0 172 0;
#X connect 203 0 173 0;
#X connect 204 0 174 0;
#X connect 205 0 175 0;
#X connect 206 0 176 0;
#X connect 207 0 180 0;
#X connect 208 0 181 0;
#X connect 209 0 177 0;
#X connect 210 0 178 0;
#X connect 211 0 179 0;
#X connect 212 0 192 0;
#X connect 213 0 182 0;
#X connect 214 0 349 1;
#X connect 215 0 267 0;
#X connect 231 0 246 0;
#X connect 231 0 396 0;
#X connect 232 0 248 0;
#X connect 232 0 376 0;
#X connect 233 0 249 0;
#X connect 233 0 375 0;
#X connect 234 0 251 0;
#X connect 234 0 373 0;
#X connect 235 0 252 0;
#X connect 235 0 372 0;
#X connect 236 0 253 0;
#X connect 236 0 371 0;
#X connect 237 0 254 0;
#X connect 237 0 370 0;
#X connect 238 0 256 0;
#X connect 238 0 368 0;
#X connect 239 0 257 0;
#X connect 239 0 367 0;
#X connect 240 0 247 0;
#X connect 240 0 377 0;
#X connect 241 0 258 0;
#X connect 241 0 366 0;
#X connect 242 0 259 0;
#X connect 242 0 365 0;
#X connect 243 0 260 0;
#X connect 243 0 364 0;
#X connect 244 0 250 0;
#X connect 244 0 374 0;
#X connect 245 0 255 0;
#X connect 245 0 369 0;
#X connect 246 0 216 0;
#X connect 247 0 217 0;
#X connect 248 0 218 0;
#X connect 249 0 219 0;
#X connect 250 0 220 0;
#X connect 251 0 221 0;
#X connect 252 0 222 0;
#X connect 253 0 223 0;
#X connect 254 0 224 0;
#X connect 255 0 225 0;
#X connect 256 0 229 0;
#X connect 257 0 230 0;
#X connect 258 0 226 0;
#X connect 259 0 227 0;
#X connect 260 0 228 0;
#X connect 261 0 241 0;
#X connect 262 0 231 0;
#X connect 263 0 378 1;
#X connect 264 0 99 1;
#X connect 264 0 100 1;
#X connect 264 0 101 1;
#X connect 264 0 102 1;
#X connect 264 0 103 1;
#X connect 264 0 104 1;
#X connect 264 0 105 1;
#X connect 264 0 106 1;
#X connect 264 0 107 1;
#X connect 264 0 108 1;
#X connect 264 0 109 1;
#X connect 264 0 110 1;
#X connect 264 0 111 1;
#X connect 264 0 112 1;
#X connect 264 0 113 1;
#X connect 265 0 148 1;
#X connect 265 0 149 1;
#X connect 265 0 150 1;
#X connect 265 0 151 1;
#X connect 265 0 152 1;
#X connect 265 0 153 1;
#X connect 265 0 154 1;
#X connect 265 0 155 1;
#X connect 265 0 156 1;
#X connect 265 0 157 1;
#X connect 265 0 158 1;
#X connect 265 0 159 1;
#X connect 265 0 160 1;
#X connect 265 0 161 1;
#X connect 265 0 162 1;
#X connect 266 0 197 1;
#X connect 266 0 198 1;
#X connect 266 0 199 1;
#X connect 266 0 200 1;
#X connect 266 0 201 1;
#X connect 266 0 202 1;
#X connect 266 0 203 1;
#X connect 266 0 204 1;
#X connect 266 0 205 1;
#X connect 266 0 206 1;
#X connect 266 0 207 1;
#X connect 266 0 208 1;
#X connect 266 0 209 1;
#X connect 266 0 210 1;
#X connect 266 0 211 1;
#X connect 267 0 246 1;
#X connect 267 0 247 1;
#X connect 267 0 248 1;
#X connect 267 0 249 1;
#X connect 267 0 250 1;
#X connect 267 0 251 1;
#X connect 267 0 252 1;
#X connect 267 0 253 1;
#X connect 267 0 254 1;
#X connect 267 0 255 1;
#X connect 267 0 256 1;
#X connect 267 0 257 1;
#X connect 267 0 258 1;
#X connect 267 0 259 1;
#X connect 267 0 260 1;
#X connect 268 0 317 0;
#X connect 284 0 299 0;
#X connect 284 0 397 0;
#X connect 285 0 301 0;
#X connect 285 0 391 0;
#X connect 286 0 302 0;
#X connect 286 0 390 0;
#X connect 287 0 304 0;
#X connect 287 0 388 0;
#X connect 288 0 305 0;
#X connect 288 0 387 0;
#X connect 289 0 306 0;
#X connect 289 0 386 0;
#X connect 290 0 307 0;
#X connect 290 0 385 0;
#X connect 291 0 309 0;
#X connect 291 0 383 0;
#X connect 292 0 310 0;
#X connect 292 0 382 0;
#X connect 293 0 300 0;
#X connect 293 0 392 0;
#X connect 294 0 311 0;
#X connect 294 0 381 0;
#X connect 295 0 312 0;
#X connect 295 0 380 0;
#X connect 296 0 313 0;
#X connect 296 0 379 0;
#X connect 297 0 303 0;
#X connect 297 0 389 0;
#X connect 298 0 308 0;
#X connect 298 0 384 0;
#X connect 299 0 269 0;
#X connect 300 0 270 0;
#X connect 301 0 271 0;
#X connect 302 0 272 0;
#X connect 303 0 273 0;
#X connect 304 0 274 0;
#X connect 305 0 275 0;
#X connect 306 0 276 0;
#X connect 307 0 277 0;
#X connect 308 0 278 0;
#X connect 309 0 282 0;
#X connect 310 0 283 0;
#X connect 311 0 279 0;
#X connect 312 0 280 0;
#X connect 313 0 281 0;
#X connect 314 0 294 0;
#X connect 315 0 284 0;
#X connect 316 0 393 1;
#X connect 317 0 299 1;
#X connect 317 0 300 1;
#X connect 317 0 301 1;
#X connect 317 0 302 1;
#X connect 317 0 303 1;
#X connect 317 0 304 1;
#X connect 317 0 305 1;
#X connect 317 0 306 1;
#X connect 317 0 307 1;
#X connect 317 0 308 1;
#X connect 317 0 309 1;
#X connect 317 0 310 1;
#X connect 317 0 311 1;
#X connect 317 0 312 1;
#X connect 317 0 313 1;
#X connect 318 0 84 0;
#X connect 320 0 93 0;
#X connect 321 0 85 0;
#X connect 322 0 86 0;
#X connect 323 0 97 0;
#X connect 324 0 87 0;
#X connect 325 0 88 0;
#X connect 326 0 89 0;
#X connect 327 0 90 0;
#X connect 328 0 98 0;
#X connect 329 0 91 0;
#X connect 330 0 92 0;
#X connect 331 0 94 0;
#X connect 332 0 95 0;
#X connect 333 0 96 0;
#X connect 335 0 142 0;
#X connect 336 0 134 0;
#X connect 337 0 135 0;
#X connect 338 0 146 0;
#X connect 339 0 136 0;
#X connect 340 0 137 0;
#X connect 341 0 138 0;
#X connect 342 0 139 0;
#X connect 343 0 147 0;
#X connect 344 0 140 0;
#X connect 345 0 141 0;
#X connect 346 0 143 0;
#X connect 347 0 144 0;
#X connect 348 0 145 0;
#X connect 350 0 191 0;
#X connect 351 0 183 0;
#X connect 352 0 184 0;
#X connect 353 0 195 0;
#X connect 354 0 185 0;
#X connect 355 0 186 0;
#X connect 356 0 187 0;
#X connect 357 0 188 0;
#X connect 358 0 196 0;
#X connect 359 0 189 0;
#X connect 360 0 190 0;
#X connect 361 0 192 0;
#X connect 362 0 193 0;
#X connect 363 0 194 0;
#X connect 364 0 243 0;
#X connect 365 0 242 0;
#X connect 366 0 241 0;
#X connect 367 0 239 0;
#X connect 368 0 238 0;
#X connect 369 0 245 0;
#X connect 370 0 237 0;
#X connect 371 0 236 0;
#X connect 372 0 235 0;
#X connect 373 0 234 0;
#X connect 374 0 244 0;
#X connect 375 0 233 0;
#X connect 376 0 232 0;
#X connect 377 0 240 0;
#X connect 379 0 296 0;
#X connect 380 0 295 0;
#X connect 381 0 294 0;
#X connect 382 0 292 0;
#X connect 383 0 291 0;
#X connect 384 0 298 0;
#X connect 385 0 290 0;
#X connect 386 0 289 0;
#X connect 387 0 288 0;
#X connect 388 0 287 0;
#X connect 389 0 297 0;
#X connect 390 0 286 0;
#X connect 391 0 285 0;
#X connect 392 0 293 0;
#X connect 394 0 133 0;
#X connect 395 0 182 0;
#X connect 396 0 231 0;
#X connect 397 0 284 0;
#X restore 957 380 pd voices_control;
#X obj 1239 551 r regular_bangs;
#X obj 1084 380 LED_ring;
#X obj 941 108 routeOSC /voices /input_rms /output_rms;
#X obj 27 92 tgl 15 0 empty empty empty 17 7 0 10 -262144 -1 -1 0 1
;
#X obj 27 114 metro 10000;
#N canvas 2125 259 683 165 audio_settings 0;
#X obj 14 16 loadbang;
#X obj 14 41 t b b;
#X msg 14 109 \; pd dsp 0;
#X msg 515 12 audio-properties;
#X obj 515 37 s pd;
#X obj 515 67 r pd;
#X obj 515 92 route audio-dialog;
#X obj 515 117 print;
#X obj 86 124 s pd;
#X msg 86 80 audio-dialog 0 0 0 0 2 0 0 0 1 0 0 0 2 0 0 0 48000 25
-1 1024;
#X connect 0 0 1 0;
#X connect 1 0 2 0;
#X connect 1 1 9 0;
#X connect 3 0 4 0;
#X connect 5 0 6 0;
#X connect 6 0 7 0;
#X connect 9 0 8 0;
#X restore 46 357 pd audio_settings;
#X obj 1348 667 spigot;
#X obj 1387 650 tgl 15 0 empty empty empty 17 7 0 10 -262144 -1 -1
1 1;
#X obj 1387 626 homemade/loadfloat 1;
#X floatatom 101 88 5 0 0 0 - - -;
#X obj 1229 152 spigot;
#X obj 1268 135 tgl 15 0 empty empty empty 17 7 0 10 -262144 -1 -1
0 1;
#X obj 1268 111 homemade/loadfloat 1;
#X obj 1154 403 s delay_user_input_to_face_encode;
#X floatatom 1154 379 5 0 0 0 - - -;
#X obj 1154 354 homemade/loadfloat 3000;
#X obj 1446 363 print;
#X msg 1403 403 /export_image;
#X connect 7 0 10 0;
#X connect 8 0 7 0;
#X connect 9 0 17 0;
#X connect 11 0 12 0;
#X connect 12 0 15 0;
#X connect 13 0 51 0;
#X connect 15 0 47 1;
#X connect 15 0 43 1;
#X connect 15 0 45 1;
#X connect 15 0 44 1;
#X connect 15 0 46 1;
#X connect 15 0 105 1;
#X connect 15 1 16 0;
#X connect 17 0 7 0;
#X connect 18 0 11 0;
#X connect 19 0 22 0;
#X connect 20 0 19 0;
#X connect 21 0 23 0;
#X connect 23 0 19 0;
#X connect 24 0 26 0;
#X connect 25 0 24 0;
#X connect 26 1 13 0;
#X connect 27 0 39 0;
#X connect 28 0 39 1;
#X connect 29 0 30 0;
#X connect 30 0 56 0;
#X connect 31 0 29 0;
#X connect 33 0 39 2;
#X connect 34 0 37 0;
#X connect 35 0 34 0;
#X connect 36 0 38 0;
#X connect 38 0 34 0;
#X connect 39 0 34 0;
#X connect 40 0 17 0;
#X connect 41 0 23 0;
#X connect 42 0 38 0;
#X connect 43 0 7 0;
#X connect 43 1 19 0;
#X connect 43 2 39 4;
#X connect 44 0 7 0;
#X connect 44 1 19 0;
#X connect 44 2 39 4;
#X connect 45 0 7 0;
#X connect 45 1 19 0;
#X connect 45 2 39 4;
#X connect 46 0 7 0;
#X connect 46 1 19 0;
#X connect 46 2 39 4;
#X connect 47 0 7 0;
#X connect 47 1 19 0;
#X connect 47 2 39 4;
#X connect 49 0 25 0;
#X connect 52 0 53 0;
#X connect 53 0 33 0;
#X connect 54 0 103 0;
#X connect 55 0 24 1;
#X connect 56 0 39 3;
#X connect 56 1 32 0;
#X connect 60 0 61 0;
#X connect 62 0 63 0;
#X connect 63 0 66 0;
#X connect 65 0 64 0;
#X connect 66 0 65 0;
#X connect 72 0 75 0;
#X connect 73 0 97 0;
#X connect 73 0 109 0;
#X connect 74 0 73 0;
#X connect 77 0 79 0;
#X connect 78 0 77 0;
#X connect 79 0 117 0;
#X connect 79 1 82 0;
#X connect 80 0 95 1;
#X connect 81 0 83 0;
#X connect 81 0 95 0;
#X connect 82 0 95 2;
#X connect 83 0 80 0;
#X connect 85 0 89 0;
#X connect 86 0 85 0;
#X connect 87 0 113 0;
#X connect 88 0 90 0;
#X connect 90 0 85 0;
#X connect 91 0 87 0;
#X connect 93 0 92 0;
#X connect 95 0 96 0;
#X connect 96 0 91 0;
#X connect 96 0 106 0;
#X connect 96 0 108 0;
#X connect 97 0 71 0;
#X connect 97 1 72 0;
#X connect 98 0 44 0;
#X connect 99 0 45 0;
#X connect 100 0 46 0;
#X connect 101 0 47 0;
#X connect 102 0 43 0;
#X connect 103 0 43 0;
#X connect 104 0 105 0;
#X connect 105 0 7 0;
#X connect 105 1 19 0;
#X connect 105 2 39 4;
#X connect 107 0 90 0;
#X connect 108 0 87 0;
#X connect 109 0 47 2;
#X connect 109 0 43 2;
#X connect 109 0 45 2;
#X connect 109 0 46 2;
#X connect 109 0 44 2;
#X connect 109 0 105 2;
#X connect 109 1 108 1;
#X connect 109 2 91 1;
#X connect 110 0 111 0;
#X connect 111 0 25 0;
#X connect 113 0 85 0;
#X connect 114 0 113 1;
#X connect 115 0 114 0;
#X connect 116 0 111 1;
#X connect 117 0 81 0;
#X connect 118 0 117 1;
#X connect 119 0 118 0;
#X connect 121 0 120 0;
#X connect 122 0 121 0;
#X connect 124 0 87 0;
