#N struct 1098-draw-item float x float y float c float a float b;
#N struct 1099-rectangle float x float c;
#N struct 1099-pixel float x0 float y0 float x1 float y1;
#N canvas 1920 96 1920 1104 12;
#X obj 184 51 cnv 15 300 300 empty empty VOICE_ANALYSIS 20 12 0 14
-261234 -66577 0;
#X obj 515 313 cnv 15 300 360 empty empty FROM_MELODY_GENERATOR 20
12 0 14 -261682 -66577 0;
#X obj 184 380 cnv 15 300 400 empty empty MELODY_GENERATOR 20 12 0
14 -261682 -66577 0;
#X obj 515 685 cnv 15 300 290 empty empty VOICE_GENERATOR 20 12 0 14
-204786 -66577 0;
#X obj 174 723 udpsend;
#X msg 228 699 disconnect;
#X obj 64 676 loadbang;
#X obj 211 746 tgl 15 0 empty empty empty 17 7 0 10 -262144 -1 -1 1
1;
#X obj 213 426 bng 15 250 50 0 empty empty empty 17 7 0 10 -262144
-1 -1;
#X obj 527 384 unpackOSC;
#X obj 527 410 routeOSC /exported_file;
#X text 228 722 TO MELODY GENERATOR;
#X text 640 360 FROM MELODY GENERATOR;
#X floatatom 191 472 5 0 0 0 - - -;
#X floatatom 191 496 5 0 0 0 - - -;
#X text 232 472 Number of MIDI files to generate;
#X text 232 520 Melody temperature;
#X floatatom 191 520 5 0 0 0 - - -;
#X obj 527 534 midi2array;
#X msg 527 511 \$1/midi_score;
#X obj 527 488 symbol;
#X text 232 544 Melody primer MIDI (filepath);
#X text 232 497 Number of steps;
#X text 232 424 Predict;
#X obj 95 95 adc~;
#X floatatom 192 84 5 0 0 1 Audio_gate_volume_threshold_(0-1) - -;
#X floatatom 192 108 5 0 0 1 Delay_time_before_closing_audio_gate_(ms)
- -;
#X obj 190 328 bng 15 250 50 0 empty empty empty 17 7 0 10 -262144
-1 -1;
#X text 234 304 Midi filepath;
#X obj 190 303 t b a;
#X obj 527 435 t a b;
#X obj 559 459 bng 15 250 50 0 empty empty empty 17 7 0 10 -262144
-1 -1;
#X msg 64 699 connect 127.0.0.1 8001;
#X obj 527 360 udpreceive 8000;
#X obj 527 592 bng 15 250 50 0 empty empty empty 17 7 0 10 -262144
-1 -1;
#X text 233 447 Midi file output directory (folderpath);
#N canvas 117 277 1681 242 osc_format 0;
#X obj 11 162 list trim;
#X obj 11 187 packOSC;
#X msg 11 88 /predict;
#X obj 79 88 list prepend /output_dir;
#X obj 256 88 list prepend /num_outputs;
#X obj 440 88 list prepend /num_steps;
#X obj 610 88 list prepend /temperature;
#X obj 792 88 list prepend /primer_midi;
#X obj 256 62 int;
#X obj 440 62 int;
#X obj 11 18 inlet;
#X obj 79 18 inlet;
#X obj 256 18 inlet;
#X obj 440 20 inlet;
#X obj 610 20 inlet;
#X obj 792 20 inlet;
#X obj 11 212 outlet;
#X obj 975 20 inlet;
#X obj 1214 20 inlet;
#X obj 975 88 list prepend /primer_steps_scaler;
#X obj 1214 88 list prepend /num_steps_scaler;
#X obj 1434 20 inlet;
#X obj 1434 88 list prepend /primer_toggle;
#X connect 0 0 1 0;
#X connect 1 0 16 0;
#X connect 2 0 0 0;
#X connect 3 0 0 0;
#X connect 4 0 0 0;
#X connect 5 0 0 0;
#X connect 6 0 0 0;
#X connect 7 0 0 0;
#X connect 8 0 4 0;
#X connect 9 0 5 0;
#X connect 10 0 2 0;
#X connect 11 0 3 0;
#X connect 12 0 8 0;
#X connect 13 0 9 0;
#X connect 14 0 6 0;
#X connect 15 0 7 0;
#X connect 17 0 19 0;
#X connect 18 0 20 0;
#X connect 19 0 0 0;
#X connect 20 0 0 0;
#X connect 21 0 22 0;
#X connect 22 0 0 0;
#X restore 132 647 pd osc_format;
#N canvas 323 128 1262 884 ddsp_buffers 0;
#N canvas 0 22 450 278 (subpatch) 0;
#X array mfccs-0 1 float 0;
#X coords 0 300 1 -300 300 15 1 0 0;
#X restore 9 19 graph;
#N canvas 0 22 450 278 (subpatch) 0;
#X array mfccs-1 1 float 0;
#X coords 0 300 1 -300 300 15 1 0 0;
#X restore 9 51 graph;
#N canvas 0 22 450 278 (subpatch) 0;
#X array mfccs-2 1 float 0;
#X coords 0 300 1 -300 300 15 1 0 0;
#X restore 9 84 graph;
#N canvas 0 22 450 278 (subpatch) 0;
#X array mfccs-3 1 float 0;
#X coords 0 300 1 -300 300 15 1 0 0;
#X restore 9 116 graph;
#N canvas 0 22 450 278 (subpatch) 0;
#X array mfccs-4 1 float 0;
#X coords 0 300 1 -300 300 15 1 0 0;
#X restore 10 149 graph;
#N canvas 0 22 450 278 (subpatch) 0;
#X array mfccs-5 1 float 0;
#X coords 0 300 1 -300 300 15 1 0 0;
#X restore 10 181 graph;
#N canvas 0 22 450 278 (subpatch) 0;
#X array mfccs-6 1 float 0;
#X coords 0 300 1 -300 300 15 1 0 0;
#X restore 10 213 graph;
#N canvas 0 22 450 278 (subpatch) 0;
#X array mfccs-7 1 float 0;
#X coords 0 300 1 -300 300 15 1 0 0;
#X restore 10 246 graph;
#N canvas 0 22 450 278 (subpatch) 0;
#X array mfccs-8 1 float 0;
#X coords 0 300 1 -300 300 15 1 0 0;
#X restore 10 278 graph;
#N canvas 0 22 450 278 (subpatch) 0;
#X array mfccs-9 1 float 0;
#X coords 0 300 1 -300 300 15 1 0 0;
#X restore 10 313 graph;
#N canvas 0 22 450 278 (subpatch) 0;
#X array mfccs-10 1 float 0;
#X coords 0 300 1 -300 300 15 1 0 0;
#X restore 10 348 graph;
#N canvas 0 22 450 278 (subpatch) 0;
#X array mfccs-11 1 float 0;
#X coords 0 300 1 -300 300 15 1 0 0;
#X restore 10 383 graph;
#N canvas 0 22 450 278 (subpatch) 0;
#X array mfccs-12 1 float 0;
#X coords 0 300 1 -300 300 15 1 0 0;
#X restore 10 417 graph;
#N canvas 0 22 450 278 (subpatch) 0;
#X array mfccs-13 1 float 0;
#X coords 0 300 1 -300 300 15 1 0 0;
#X restore 11 450 graph;
#N canvas 0 22 450 278 (subpatch) 0;
#X array mfccs-14 1 float 0;
#X coords 0 300 1 -300 300 15 1 0 0;
#X restore 11 484 graph;
#N canvas 0 22 450 278 (subpatch) 0;
#X array mfccs-15 1 float 0;
#X coords 0 5 1 -5 300 15 1 0 0;
#X restore 315 19 graph;
#N canvas 0 22 450 278 (subpatch) 0;
#X array mfccs-16 1 float 0;
#X coords 0 300 1 -300 300 15 1 0 0;
#X restore 315 51 graph;
#N canvas 0 22 450 278 (subpatch) 0;
#X array mfccs-17 1 float 0;
#X coords 0 300 1 -300 300 15 1 0 0;
#X restore 315 84 graph;
#N canvas 0 22 450 278 (subpatch) 0;
#X array mfccs-18 1 float 0;
#X coords 0 300 1 -300 300 15 1 0 0;
#X restore 315 116 graph;
#N canvas 0 22 450 278 (subpatch) 0;
#X array mfccs-19 1 float 0;
#X coords 0 300 1 -300 300 15 1 0 0;
#X restore 316 149 graph;
#N canvas 0 22 450 278 (subpatch) 0;
#X array mfccs-20 1 float 0;
#X coords 0 300 1 -300 300 15 1 0 0;
#X restore 316 181 graph;
#N canvas 0 22 450 278 (subpatch) 0;
#X array mfccs-21 1 float 0;
#X coords 0 300 1 -300 300 15 1 0 0;
#X restore 316 213 graph;
#N canvas 0 22 450 278 (subpatch) 0;
#X array mfccs-22 1 float 0;
#X coords 0 300 1 -300 300 15 1 0 0;
#X restore 316 246 graph;
#N canvas 0 22 450 278 (subpatch) 0;
#X array mfccs-23 1 float 0;
#X coords 0 300 1 -300 300 15 1 0 0;
#X restore 316 278 graph;
#N canvas 0 22 450 278 (subpatch) 0;
#X array mfccs-24 1 float 0;
#X coords 0 300 1 -300 300 15 1 0 0;
#X restore 316 313 graph;
#N canvas 0 22 450 278 (subpatch) 0;
#X array mfccs-25 1 float 0;
#X coords 0 300 1 -300 300 15 1 0 0;
#X restore 316 348 graph;
#N canvas 0 22 450 278 (subpatch) 0;
#X array mfccs-26 1 float 0;
#X coords 0 300 1 -300 300 15 1 0 0;
#X restore 316 383 graph;
#N canvas 0 22 450 278 (subpatch) 0;
#X array mfccs-27 1 float 0;
#X coords 0 300 1 -300 300 15 1 0 0;
#X restore 316 417 graph;
#N canvas 0 22 450 278 (subpatch) 0;
#X array mfccs-28 1 float 0;
#X coords 0 300 1 -300 300 15 1 0 0;
#X restore 317 450 graph;
#N canvas 0 22 450 278 (subpatch) 0;
#X array mfccs-29 1 float 0;
#X coords 0 10 1 -10 300 15 1 0 0;
#X restore 317 484 graph;
#N canvas 0 22 450 278 (subpatch) 0;
#X array loudness-0 60 float 2;
#X coords 0 6 60 -80 500 30 1 0 0;
#X restore 10 526 graph;
#N canvas 0 22 450 278 (subpatch) 0;
#X array loudness-1 320 float 2;
#X coords 0 6 320 -80 500 30 1 0 0;
#X restore 11 575 graph;
#N canvas 0 22 450 278 (subpatch) 0;
#X array pitch-0 800 float 2;
#X coords 0 4000 800 20 500 30 1 0 0;
#X restore 368 640 graph;
#N canvas 0 22 450 278 (subpatch) 0;
#X array pitch-1 1 float 2;
#X coords 0 1 1 0 500 30 1 0 0;
#X restore 368 688 graph;
#N canvas 0 22 450 278 (subpatch) 0;
#X array phoneme 1 float 0;
#X coords 0 75 1 0 500 30 1 0 0;
#X restore 368 759 graph;
#N canvas 0 22 450 278 (subpatch) 0;
#X array audio_source 64000 float 0;
#X coords 0 1 63999 -1 500 30 1 0 0;
#X restore 369 822 graph;
#N canvas 0 22 450 278 (subpatch) 0;
#X array mfccs-0 1 float 0;
#X coords 0 300 1 -300 300 15 1 0 0;
#X restore 636 19 graph;
#N canvas 0 22 450 278 (subpatch) 0;
#X array mfccs-1 1 float 0;
#X coords 0 300 1 -300 300 15 1 0 0;
#X restore 636 51 graph;
#N canvas 0 22 450 278 (subpatch) 0;
#X array mfccs-2 1 float 0;
#X coords 0 300 1 -300 300 15 1 0 0;
#X restore 636 84 graph;
#N canvas 0 22 450 278 (subpatch) 0;
#X array mfccs-3 1 float 0;
#X coords 0 300 1 -300 300 15 1 0 0;
#X restore 636 116 graph;
#N canvas 0 22 450 278 (subpatch) 0;
#X array mfccs-4 1 float 0;
#X coords 0 300 1 -300 300 15 1 0 0;
#X restore 637 149 graph;
#N canvas 0 22 450 278 (subpatch) 0;
#X array mfccs-5 1 float 0;
#X coords 0 300 1 -300 300 15 1 0 0;
#X restore 637 181 graph;
#N canvas 0 22 450 278 (subpatch) 0;
#X array mfccs-6 1 float 0;
#X coords 0 300 1 -300 300 15 1 0 0;
#X restore 637 213 graph;
#N canvas 0 22 450 278 (subpatch) 0;
#X array mfccs-7 1 float 0;
#X coords 0 300 1 -300 300 15 1 0 0;
#X restore 637 246 graph;
#N canvas 0 22 450 278 (subpatch) 0;
#X array mfccs-8 1 float 0;
#X coords 0 300 1 -300 300 15 1 0 0;
#X restore 637 278 graph;
#N canvas 0 22 450 278 (subpatch) 0;
#X array mfccs-9 1 float 0;
#X coords 0 300 1 -300 300 15 1 0 0;
#X restore 637 313 graph;
#N canvas 0 22 450 278 (subpatch) 0;
#X array mfccs-10 1 float 0;
#X coords 0 300 1 -300 300 15 1 0 0;
#X restore 637 348 graph;
#N canvas 0 22 450 278 (subpatch) 0;
#X array mfccs-11 1 float 0;
#X coords 0 300 1 -300 300 15 1 0 0;
#X restore 637 383 graph;
#N canvas 0 22 450 278 (subpatch) 0;
#X array mfccs-12 1 float 0;
#X coords 0 300 1 -300 300 15 1 0 0;
#X restore 637 417 graph;
#N canvas 0 22 450 278 (subpatch) 0;
#X array mfccs-13 1 float 0;
#X coords 0 300 1 -300 300 15 1 0 0;
#X restore 638 450 graph;
#N canvas 0 22 450 278 (subpatch) 0;
#X array mfccs-14 1 float 0;
#X coords 0 300 1 -300 300 15 1 0 0;
#X restore 638 484 graph;
#N canvas 0 22 450 278 (subpatch) 0;
#X array mfccs-15 1 float 0;
#X coords 0 5 1 -5 300 15 1 0 0;
#X restore 942 19 graph;
#N canvas 0 22 450 278 (subpatch) 0;
#X array mfccs-16 1 float 0;
#X coords 0 300 1 -300 300 15 1 0 0;
#X restore 942 51 graph;
#N canvas 0 22 450 278 (subpatch) 0;
#X array mfccs-17 1 float 0;
#X coords 0 300 1 -300 300 15 1 0 0;
#X restore 942 84 graph;
#N canvas 0 22 450 278 (subpatch) 0;
#X array mfccs-18 1 float 0;
#X coords 0 300 1 -300 300 15 1 0 0;
#X restore 942 116 graph;
#N canvas 0 22 450 278 (subpatch) 0;
#X array mfccs-19 1 float 0;
#X coords 0 300 1 -300 300 15 1 0 0;
#X restore 943 149 graph;
#N canvas 0 22 450 278 (subpatch) 0;
#X array mfccs-20 1 float 0;
#X coords 0 300 1 -300 300 15 1 0 0;
#X restore 943 181 graph;
#N canvas 0 22 450 278 (subpatch) 0;
#X array mfccs-21 1 float 0;
#X coords 0 300 1 -300 300 15 1 0 0;
#X restore 943 213 graph;
#N canvas 0 22 450 278 (subpatch) 0;
#X array mfccs-22 1 float 0;
#X coords 0 300 1 -300 300 15 1 0 0;
#X restore 943 246 graph;
#N canvas 0 22 450 278 (subpatch) 0;
#X array mfccs-23 1 float 0;
#X coords 0 300 1 -300 300 15 1 0 0;
#X restore 943 278 graph;
#N canvas 0 22 450 278 (subpatch) 0;
#X array mfccs-24 1 float 0;
#X coords 0 300 1 -300 300 15 1 0 0;
#X restore 943 313 graph;
#N canvas 0 22 450 278 (subpatch) 0;
#X array mfccs-25 1 float 0;
#X coords 0 300 1 -300 300 15 1 0 0;
#X restore 943 348 graph;
#N canvas 0 22 450 278 (subpatch) 0;
#X array mfccs-26 1 float 0;
#X coords 0 300 1 -300 300 15 1 0 0;
#X restore 943 383 graph;
#N canvas 0 22 450 278 (subpatch) 0;
#X array mfccs-27 1 float 0;
#X coords 0 300 1 -300 300 15 1 0 0;
#X restore 943 417 graph;
#N canvas 0 22 450 278 (subpatch) 0;
#X array mfccs-28 1 float 0;
#X coords 0 300 1 -300 300 15 1 0 0;
#X restore 944 450 graph;
#N canvas 0 22 450 278 (subpatch) 0;
#X array mfccs-29 1 float 0;
#X coords 0 10 1 -10 300 15 1 0 0;
#X restore 944 484 graph;
#N canvas 0 22 450 278 (subpatch) 0;
#X array loudness-0 60 float 2;
#X coords 0 6 60 -80 500 30 1 0 0;
#X restore 637 526 graph;
#N canvas 0 22 450 278 (subpatch) 0;
#X array loudness-1 320 float 2;
#X coords 0 6 320 -80 500 30 1 0 0;
#X restore 638 575 graph;
#X restore 691 642 pd ddsp_buffers;
#X obj 490 913 udpsend;
#X msg 544 889 disconnect;
#X obj 380 866 loadbang;
#X obj 527 936 tgl 15 0 empty empty empty 17 7 0 10 -262144 -1 -1 1
1;
#X text 544 912 TO DDSP;
#X msg 380 889 connect 127.0.0.1 8201;
#X obj 527 769 bng 15 250 50 0 empty empty empty 17 7 0 10 -262144
-1 -1;
#N canvas 319 125 1458 407 send_audio_features 0;
#X obj 371 195 array get mfccs-0;
#N canvas 2686 474 450 523 uzi_mfccs 0;
#X msg 78 169 30;
#X obj 53 63 bng 15 250 50 0 empty empty empty 17 7 0 10 -262144 -1
-1;
#X obj 53 86 t b b;
#X obj 78 146 loadbang;
#X msg 107 272 symbol mfccs-\$1;
#X obj 53 231 t b f f;
#X obj 53 29 inlet;
#X obj 53 356 outlet;
#X obj 107 356 outlet;
#X obj 162 356 outlet;
#X msg 162 308 /mfccs-\$1;
#X obj 53 111 cyclone/uzi 30 0;
#X obj 53 193 cyclone/counter;
#X connect 0 0 12 1;
#X connect 1 0 2 0;
#X connect 2 0 11 0;
#X connect 2 1 12 2;
#X connect 3 0 0 0;
#X connect 4 0 8 0;
#X connect 5 0 7 0;
#X connect 5 1 4 0;
#X connect 5 2 10 0;
#X connect 6 0 1 0;
#X connect 10 0 9 0;
#X connect 11 0 12 0;
#X connect 12 0 5 0;
#X restore 371 164 pd uzi_mfccs;
#X obj 1018 222 list prepend /loudness;
#X obj 888 221 list prepend /f0;
#X obj 690 221 list prepend /f0_confidence;
#X obj 526 221 list prepend /phonemes;
#X obj 371 221 list prepend /mfccs-0;
#X obj 1183 197 array size audio_source;
#X obj 1183 222 list prepend /num_samples;
#X obj 526 197 array get phoneme;
#X obj 14 360 outlet;
#X obj 14 16 inlet;
#X obj 690 196 array get pitch-1;
#X obj 888 196 array get pitch-0;
#X obj 1018 196 array get loudness-0;
#X obj 14 41 t b b b b b b b;
#X obj 203 144 cnv 15 100 20 empty empty empty 20 12 0 14 -4032 -66577
0;
#X obj 203 221 list prepend /ld_scaler;
#X obj 203 164 r sld_ld_scaler_snd;
#X text 209 143 Loudness caler;
#X obj 14 144 cnv 15 100 20 empty empty empty 20 12 0 14 -4032 -66577
0;
#X text 20 143 Pitch caler;
#X obj 14 164 r sld_pitch_scaler_snd;
#X obj 14 221 list prepend /pitch_scaler;
#X obj 14 275 list prepend /scalers;
#X connect 0 0 6 0;
#X connect 1 0 0 0;
#X connect 1 1 0 2;
#X connect 1 2 6 1;
#X connect 2 0 10 0;
#X connect 3 0 10 0;
#X connect 4 0 10 0;
#X connect 5 0 10 0;
#X connect 6 0 10 0;
#X connect 7 0 8 0;
#X connect 8 0 10 0;
#X connect 9 0 5 0;
#X connect 11 0 15 0;
#X connect 12 0 4 0;
#X connect 13 0 3 0;
#X connect 14 0 2 0;
#X connect 15 1 1 0;
#X connect 15 2 9 0;
#X connect 15 3 12 0;
#X connect 15 4 13 0;
#X connect 15 5 14 0;
#X connect 15 6 7 0;
#X connect 17 0 24 0;
#X connect 18 0 17 0;
#X connect 22 0 23 0;
#X connect 23 0 24 0;
#X connect 24 0 10 0;
#X restore 385 788 pd send_audio_features;
#N canvas 453 404 290 259 osc_format 0;
#X obj 11 162 list trim;
#X obj 11 187 packOSC;
#X obj 131 18 inlet;
#X obj 11 18 inlet;
#X obj 11 212 outlet;
#X obj 11 88 list prepend /predict;
#X connect 0 0 1 0;
#X connect 1 0 4 0;
#X connect 2 0 0 0;
#X connect 3 0 5 0;
#X connect 5 0 0 0;
#X restore 448 833 pd osc_format;
#X text 543 767 Send audio features;
#X text 544 810 Predict;
#X obj 528 812 bng 15 250 50 0 empty empty empty 17 7 0 10 -262144
-1 -1;
#X msg 191 544 none;
#X text 545 590 ddsp buffers filled;
#X obj 527 725 bng 15 250 50 0 empty empty empty 17 7 0 10 -262144
-1 -1;
#X obj 527 745 t b b;
#X obj 825 685 cnv 15 300 290 empty empty FROM_VOICE_GENERATOR 20 12
0 14 -204786 -66577 0;
#X obj 840 752 unpackOSC;
#X text 953 728 FROM DDSP;
#X obj 840 776 routeOSC /exported_file;
#X obj 840 941 dac~;
#X obj 840 851 symbol;
#X obj 840 728 udpreceive 8200;
#N canvas 601 128 644 524 read_audio_file 0;
#X msg 372 136 read -resize \$1 audio_output;
#X obj 100 26 inlet;
#X obj 372 161 soundfiler;
#X obj 449 161 array define audio_output;
#X obj 100 51 t b s;
#X obj 100 336 phasor~;
#X floatatom 100 279 5 0 0 0 - - -;
#X obj 100 303 sig~ 1;
#X msg 150 303 0;
#X msg 100 111 bang;
#X obj 100 191 / 16000;
#X obj 100 248 expr 1 / $f1;
#X obj 100 216 t f b;
#X obj 100 361 *~ 200000;
#X obj 100 160 t f f;
#X text 158 192 Audio file sample rate;
#X obj 373 324 snapshot~;
#X obj 373 299 metro 5;
#X obj 373 249 loadbang;
#X msg 373 274 1;
#X obj 373 398 sel 1;
#X obj 373 373 change;
#X msg 150 280 0;
#X obj 100 135 array size audio_output;
#X obj 99 395 tabread4~ audio_output;
#X obj 99 459 outlet~;
#X obj 405 25 inlet;
#X text 447 25 Audio file sample rate;
#X obj 373 348 >= 0.98;
#X connect 0 0 2 0;
#X connect 1 0 4 0;
#X connect 4 0 9 0;
#X connect 4 1 0 0;
#X connect 5 0 13 0;
#X connect 5 0 16 0;
#X connect 6 0 7 0;
#X connect 7 0 5 0;
#X connect 8 0 5 1;
#X connect 9 0 23 0;
#X connect 10 0 12 0;
#X connect 11 0 6 0;
#X connect 12 0 11 0;
#X connect 12 1 8 0;
#X connect 13 0 24 0;
#X connect 14 0 10 0;
#X connect 14 1 13 1;
#X connect 16 0 28 0;
#X connect 17 0 16 0;
#X connect 18 0 19 0;
#X connect 19 0 17 0;
#X connect 20 0 22 0;
#X connect 21 0 20 0;
#X connect 22 0 7 0;
#X connect 23 0 14 0;
#X connect 24 0 25 0;
#X connect 26 0 10 1;
#X connect 28 0 21 0;
#X restore 840 877 pd read_audio_file;
#X obj 840 801 t a b;
#X obj 872 825 bng 15 250 50 0 empty empty empty 17 7 0 10 -262144
-1 -1;
#X obj 927 19 cnv 15 300 200 empty empty DDSP_AUDIO_ANALYSIS 20 12
0 14 -228856 -66577 0;
#X obj 917 164 udpsend;
#X msg 971 142 disconnect;
#X obj 807 119 loadbang;
#X obj 955 187 tgl 15 0 empty empty empty 17 7 0 10 -262144 -1 -1 1
1;
#X text 971 165 TO AUDIO ANALYSIS;
#X msg 807 142 connect 127.0.0.1 8101;
#N canvas 136 282 220 249 osc_format 0;
#X obj 11 162 list trim;
#X obj 11 187 packOSC;
#X obj 11 18 inlet;
#X obj 11 212 outlet;
#X obj 11 89 list prepend /filepath;
#X connect 0 0 1 0;
#X connect 1 0 3 0;
#X connect 2 0 4 0;
#X connect 4 0 0 0;
#X restore 874 96 pd osc_format;
#X text 972 57 Audio filepath;
#X obj 927 231 cnv 15 300 200 empty empty FROM_DDSP_AUDIO_ANALYSIS
20 12 0 14 -228856 -66577 0;
#X obj 933 309 unpackOSC;
#X text 1046 285 FROM AUDIO ANALYSIS;
#X obj 933 285 udpreceive 8100;
#N canvas 598 174 1282 625 set_buffer_content 0;
#X obj 1098 430 list length;
#X obj 948 387 t l l;
#X obj 800 430 list length;
#X obj 673 388 t l l;
#X obj 515 431 list length;
#X obj 387 388 t l l;
#X obj 221 431 list length;
#X obj 102 388 t l l;
#X obj 102 455 array set mfcc-0;
#X obj 221 455 array size mfcc-0;
#X text 948 480 LOUDNESS;
#X text 387 478 F0 Confidence;
#X text 674 480 F0;
#X obj 30 19 inlet;
#X obj 30 156 list fromsymbol;
#X obj 30 133 symbol;
#X obj 30 180 list split 1;
#X obj 70 204 list tosymbol;
#X obj 70 228 float;
#X obj 30 101 list split 1;
#X obj 102 353 list store;
#X text 102 478 MFCC;
#X msg 102 293 symbol mfccs-\$1;
#X obj 102 318 t b s;
#X obj 948 454 array set loudness-0;
#X obj 1098 454 array size loudness-0;
#X obj 673 455 array set pitch-0;
#X obj 800 454 array size pitch-0;
#X obj 387 455 array set pitch-1;
#X obj 515 455 array size pitch-1;
#X obj 30 48 routeOSC /mfcc /f0_confidence /f0 /loudness;
#X obj 70 253 t f f;
#X obj 70 526 sel 29;
#X obj 70 565 outlet;
#X text 76 586 Done;
#X connect 0 0 25 0;
#X connect 1 0 24 0;
#X connect 1 1 0 0;
#X connect 2 0 27 0;
#X connect 3 0 26 0;
#X connect 3 1 2 0;
#X connect 4 0 29 0;
#X connect 5 0 28 0;
#X connect 5 1 4 0;
#X connect 6 0 9 0;
#X connect 7 0 8 0;
#X connect 7 1 6 0;
#X connect 13 0 30 0;
#X connect 14 0 16 0;
#X connect 15 0 14 0;
#X connect 16 1 17 0;
#X connect 17 0 18 0;
#X connect 18 0 31 0;
#X connect 19 0 15 0;
#X connect 19 1 20 1;
#X connect 20 0 7 0;
#X connect 22 0 23 0;
#X connect 23 0 20 0;
#X connect 23 1 9 1;
#X connect 23 1 8 2;
#X connect 30 0 19 0;
#X connect 30 1 5 0;
#X connect 30 2 3 0;
#X connect 30 3 1 0;
#X connect 31 0 32 0;
#X connect 31 1 22 0;
#X connect 32 0 33 0;
#X restore 933 349 pd set_buffer_content;
#X msg 541 58 /media/gabriel/Extra/ddsp_gm2/experiments/audio_samples/m1_short_16khz.wav
;
#X obj 933 380 bng 15 250 50 0 empty empty empty 17 7 0 10 -262144
-1 -1;
#X text 543 722 Send audio features AND predict;
#X obj 984 941 set_audio_settings;
#X obj 984 918 loadbang;
#X obj 1240 19 cnv 15 300 200 empty empty BUFFER_UTILITIES 20 12 0
14 -191407 -66577 0;
#N canvas 902 71 807 794 set_median_values 0;
#X obj 461 190 array sum phoneme;
#X obj 461 139 bng 15 250 50 0 empty empty empty 17 7 0 10 -262144
-1 -1;
#X obj 461 163 t b b;
#X obj 591 190 array size phoneme;
#X obj 461 220 /;
#X obj 80 305 bng 15 250 50 0 empty empty empty 17 7 0 10 -262144 -1
-1;
#X obj 80 329 t b b;
#X obj 80 386 /;
#X obj 471 535 t b b;
#X obj 471 592 /;
#X obj 596 561 array size mfccs-0;
#X obj 471 562 array sum mfccs-0;
#X msg 229 239 1;
#X obj 79 204 t f b;
#X obj 461 270 int;
#X obj 461 246 + 0.4999;
#X obj 79 100 bng 15 250 50 0 empty empty empty 17 7 0 10 -262144 -1
-1;
#X obj 79 124 t b b;
#X obj 79 181 /;
#X msg 209 445 1;
#X obj 80 410 t f b;
#X msg 592 328 1;
#X obj 461 293 t f b;
#X obj 461 354 array set phoneme;
#X obj 592 354 array size phoneme;
#X obj 85 518 bng 15 250 50 0 empty empty empty 17 7 0 10 -262144 -1
-1;
#X obj 85 542 t b b;
#X obj 85 599 /;
#X msg 215 658 1;
#X obj 85 623 t f b;
#X obj 471 471 bng 15 250 50 0 empty empty empty 17 7 0 10 -262144
-1 -1;
#N canvas 1269 247 450 523 uzi_mfccs 0;
#X msg 76 169 30;
#X obj 53 63 bng 15 250 50 0 empty empty empty 17 7 0 10 -262144 -1
-1;
#X obj 53 86 t b b;
#X obj 76 146 loadbang;
#X obj 53 231 t b f f;
#X obj 53 29 inlet;
#X obj 53 356 outlet;
#X obj 107 356 outlet;
#X obj 162 356 outlet;
#X msg 107 272 symbol mfccs_\$1;
#X msg 162 308 symbol mfccs-\$1;
#X obj 53 111 cyclone/uzi 30 0;
#X obj 53 193 cyclone/counter;
#X connect 0 0 12 1;
#X connect 1 0 2 0;
#X connect 2 0 11 0;
#X connect 2 1 12 2;
#X connect 3 0 0 0;
#X connect 4 0 6 0;
#X connect 4 1 9 0;
#X connect 4 2 10 0;
#X connect 5 0 1 0;
#X connect 9 0 7 0;
#X connect 10 0 8 0;
#X connect 11 0 12 0;
#X connect 12 0 4 0;
#X restore 471 494 pd uzi_mfccs;
#X text 490 467 MFCCS;
#X msg 596 651 1;
#X obj 471 616 t f b;
#X obj 596 677 array size mfccs-0;
#X obj 471 677 array set mfccs-0;
#X text 98 97 LOUDNESS;
#X text 103 516 F0 Confidence;
#X text 97 302 F0;
#X text 479 136 PHONEMES;
#X obj 79 265 array set loudness-0;
#X obj 229 265 array size loudness-0;
#X obj 80 471 array set pitch-0;
#X obj 209 471 array size pitch-0;
#X obj 85 569 array sum pitch-1;
#X obj 213 568 array size pitch-1;
#X obj 85 684 array set pitch-1;
#X obj 215 684 array size pitch-1;
#X obj 79 151 array sum loudness-0;
#X obj 229 150 array size loudness-0;
#X obj 80 356 array sum pitch-0;
#X obj 208 355 array size pitch-0;
#X obj 23 11 inlet;
#X obj 23 36 t b b b b b b;
#X obj 23 753 outlet;
#X connect 0 0 4 0;
#X connect 1 0 2 0;
#X connect 2 0 0 0;
#X connect 2 1 3 0;
#X connect 3 0 4 1;
#X connect 4 0 15 0;
#X connect 5 0 6 0;
#X connect 6 0 51 0;
#X connect 6 1 52 0;
#X connect 7 0 20 0;
#X connect 8 0 11 0;
#X connect 8 1 10 0;
#X connect 9 0 34 0;
#X connect 10 0 9 1;
#X connect 11 0 9 0;
#X connect 12 0 42 0;
#X connect 13 0 41 0;
#X connect 13 1 12 0;
#X connect 14 0 22 0;
#X connect 15 0 14 0;
#X connect 16 0 17 0;
#X connect 17 0 49 0;
#X connect 17 1 50 0;
#X connect 18 0 13 0;
#X connect 19 0 44 0;
#X connect 20 0 43 0;
#X connect 20 1 19 0;
#X connect 21 0 24 0;
#X connect 22 0 23 0;
#X connect 22 1 21 0;
#X connect 25 0 26 0;
#X connect 26 0 45 0;
#X connect 26 1 46 0;
#X connect 27 0 29 0;
#X connect 28 0 48 0;
#X connect 29 0 47 0;
#X connect 29 1 28 0;
#X connect 30 0 31 0;
#X connect 31 0 8 0;
#X connect 31 2 10 1;
#X connect 31 2 11 2;
#X connect 31 2 35 1;
#X connect 31 2 36 2;
#X connect 33 0 35 0;
#X connect 34 0 36 0;
#X connect 34 1 33 0;
#X connect 45 0 27 0;
#X connect 46 0 27 1;
#X connect 49 0 18 0;
#X connect 50 0 18 1;
#X connect 51 0 7 0;
#X connect 52 0 7 1;
#X connect 53 0 54 0;
#X connect 54 0 55 0;
#X connect 54 1 16 0;
#X connect 54 2 5 0;
#X connect 54 3 25 0;
#X connect 54 4 30 0;
#X connect 54 5 1 0;
#X restore 1249 81 pd set_median_values;
#N canvas 2175 112 1010 908 load_features_from_files 0;
#X obj 568 591 textfile;
#X msg 570 548 bang;
#X msg 612 547 rewind;
#X obj 570 415 bng 15 250 50 0 empty empty empty 17 7 0 10 -262144
-1 -1;
#N canvas 1279 255 450 523 uzi_mfccs 0;
#X msg 76 169 30;
#X obj 53 63 bng 15 250 50 0 empty empty empty 17 7 0 10 -262144 -1
-1;
#X obj 53 86 t b b;
#X obj 76 146 loadbang;
#X obj 53 231 t b f f;
#X obj 53 29 inlet;
#X obj 53 356 outlet;
#X obj 107 356 outlet;
#X obj 162 356 outlet;
#X msg 107 272 symbol mfccs_\$1;
#X msg 162 308 symbol mfccs-\$1;
#X obj 53 111 cyclone/uzi 30 0;
#X obj 53 193 cyclone/counter;
#X connect 0 0 12 1;
#X connect 1 0 2 0;
#X connect 2 0 11 0;
#X connect 2 1 12 2;
#X connect 3 0 0 0;
#X connect 4 0 6 0;
#X connect 4 1 9 0;
#X connect 4 2 10 0;
#X connect 5 0 1 0;
#X connect 9 0 7 0;
#X connect 10 0 8 0;
#X connect 11 0 12 0;
#X connect 12 0 4 0;
#X restore 570 438 pd uzi_mfccs;
#X msg 672 547 read audio_features/\$1.txt cr;
#X obj 570 501 t b b;
#X obj 60 169 textfile;
#X msg 60 128 bang;
#X msg 102 127 rewind;
#X msg 162 127 read audio_features/loudness_python.txt cr;
#X obj 60 97 t b b b;
#X obj 60 68 bng 15 250 50 0 empty empty empty 17 7 0 10 -262144 -1
-1;
#X obj 62 416 textfile;
#X msg 62 375 bang;
#X msg 104 374 rewind;
#X obj 62 344 t b b b;
#X obj 62 315 bng 15 250 50 0 empty empty empty 17 7 0 10 -262144 -1
-1;
#X msg 164 374 read audio_features/f0_python.txt cr;
#X obj 66 673 textfile;
#X msg 66 632 bang;
#X msg 108 631 rewind;
#X obj 66 601 t b b b;
#X obj 66 572 bng 15 250 50 0 empty empty empty 17 7 0 10 -262144 -1
-1;
#X msg 168 631 read audio_features/f0_confidence_python.txt cr;
#X obj 567 195 textfile;
#X msg 567 165 bang;
#X msg 609 164 rewind;
#X obj 567 136 t b b b;
#X obj 567 104 bng 15 250 50 0 empty empty empty 17 7 0 10 -262144
-1 -1;
#X msg 669 164 read audio_features/phoneme_python.txt cr;
#X obj 567 287 array set phoneme;
#X obj 701 263 list length;
#X obj 700 287 array size phoneme;
#X obj 567 220 t l l;
#X obj 208 237 list length;
#X obj 60 194 t l l;
#X obj 190 484 list length;
#X obj 63 441 t l l;
#X obj 193 758 list length;
#X obj 67 715 t l l;
#X obj 702 665 list length;
#X obj 568 622 t l l;
#X obj 568 689 array set mfcc-0;
#X obj 701 689 array size mfcc-0;
#X text 80 67 LOUDNESS;
#X text 89 571 F0 Confidence;
#X text 85 310 F0;
#X text 587 102 PHONEMES;
#X text 589 411 MFCCS;
#X obj 24 12 inlet;
#X obj 24 37 t b b b b b b;
#X obj 23 858 outlet;
#X obj 60 261 array set loudness-0;
#X obj 208 261 array size loudness-0;
#X obj 63 508 array set pitch-0;
#X obj 190 508 array size pitch-0;
#X obj 67 782 array set pitch-1;
#X obj 193 782 array size pitch-1;
#X connect 0 0 42 0;
#X connect 1 0 0 0;
#X connect 2 0 0 0;
#X connect 3 0 4 0;
#X connect 4 0 6 0;
#X connect 4 1 5 0;
#X connect 4 2 44 1;
#X connect 4 2 43 2;
#X connect 5 0 0 0;
#X connect 6 0 1 0;
#X connect 6 1 2 0;
#X connect 7 0 36 0;
#X connect 8 0 7 0;
#X connect 9 0 7 0;
#X connect 10 0 7 0;
#X connect 11 0 8 0;
#X connect 11 1 9 0;
#X connect 11 2 10 0;
#X connect 12 0 11 0;
#X connect 13 0 38 0;
#X connect 14 0 13 0;
#X connect 15 0 13 0;
#X connect 16 0 14 0;
#X connect 16 1 15 0;
#X connect 16 2 18 0;
#X connect 17 0 16 0;
#X connect 18 0 13 0;
#X connect 19 0 40 0;
#X connect 20 0 19 0;
#X connect 21 0 19 0;
#X connect 22 0 20 0;
#X connect 22 1 21 0;
#X connect 22 2 24 0;
#X connect 23 0 22 0;
#X connect 24 0 19 0;
#X connect 25 0 34 0;
#X connect 26 0 25 0;
#X connect 27 0 25 0;
#X connect 28 0 26 0;
#X connect 28 1 27 0;
#X connect 28 2 30 0;
#X connect 29 0 28 0;
#X connect 30 0 25 0;
#X connect 32 0 33 0;
#X connect 34 0 31 0;
#X connect 34 1 32 0;
#X connect 35 0 54 0;
#X connect 36 0 53 0;
#X connect 36 1 35 0;
#X connect 37 0 56 0;
#X connect 38 0 55 0;
#X connect 38 1 37 0;
#X connect 39 0 58 0;
#X connect 40 0 57 0;
#X connect 40 1 39 0;
#X connect 41 0 44 0;
#X connect 42 0 43 0;
#X connect 42 1 41 0;
#X connect 50 0 51 0;
#X connect 51 0 52 0;
#X connect 51 1 17 0;
#X connect 51 2 23 0;
#X connect 51 3 3 0;
#X connect 51 4 29 0;
#X connect 51 5 12 0;
#X restore 1249 151 pd load_features_from_files;
#X obj 1249 130 bng 15 250 50 0 empty empty empty 17 7 0 10 -262144
-1 -1;
#X obj 1249 178 bng 15 250 50 0 empty empty empty 17 7 0 10 -262144
-1 -1;
#X obj 1249 60 bng 15 250 50 0 empty empty empty 17 7 0 10 -262144
-1 -1;
#X obj 1249 108 bng 15 250 50 0 empty empty empty 17 7 0 10 -262144
-1 -1;
#X obj 214 131 tgl 15 0 empty empty On/Off 17 7 0 10 -262144 -1 -1
0 1;
#X obj 214 176 tgl 15 0 empty empty Gate_status 17 7 0 10 -262144 -1
-1 0 1;
#X obj 1608 694 hsl 200 15 0.1 2 0 0 sld_tempo_snd sld_tempo_rcv <-fast---------TEMPO--------slow->
-2 -8 0 10 -262144 -1 -1 9426 1;
#X floatatom 1605 714 5 0 0 0 - - -;
#X obj 1608 763 hsl 200 15 0.1 4 0 0 sld_density_snd sld_density_rcv
<-scarse------DENSITY------dense-> -2 -8 0 10 -262144 -1 -1 4592 1
;
#X floatatom 1605 783 5 0 0 0 - - -;
#X obj 1609 392 hsl 200 15 0 1 0 0 sld_tone_snd sld_tone_rcv <-high---------TONE----------low->
-2 -8 0 10 -262144 -1 -1 10300 1;
#X floatatom 1606 412 5 0 0 0 - - -;
#X obj 1609 461 hsl 200 15 0 1 0 0 sld_noise_snd sld_noise_rcv <-more---------NOISE--------less->
-2 -8 0 10 -262144 -1 -1 10100 1;
#X floatatom 1606 481 5 0 0 0 - - -;
#X obj 1283 864 hsl 200 15 0.0625 4 0 0 sld_pitch_scaler_snd sld_pitch_scaler_rcv
<-low------PITCH-SCALER-----high-> -2 -8 0 10 -262144 -1 -1 4738 1
;
#X floatatom 1280 884 6 0 0 0 - - -;
#N canvas 1055 107 468 691 sliders_init 0;
#X obj 260 509 loadbang;
#X msg 260 534 1;
#X obj 260 559 s sld_tempo_rcv;
#X obj 260 585 loadbang;
#X msg 260 610 1;
#X obj 260 635 s sld_density_rcv;
#X obj 260 274 loadbang;
#X obj 260 353 loadbang;
#X obj 260 403 s sld_noise_rcv;
#X msg 260 299 0.5;
#X msg 260 378 0.5;
#X obj 261 182 loadbang;
#X obj 261 12 loadbang;
#X obj 261 232 s sld_extrapolate_rcv;
#X msg 261 207 1;
#X obj 260 324 s sld_tone_rcv;
#X obj 261 90 loadbang;
#X obj 260 432 loadbang;
#X obj 261 62 s sld_pitch_scaler_rcv;
#X obj 261 140 s sld_ld_scaler_rcv;
#X msg 261 37 1;
#X msg 261 115 0;
#X msg 260 457 1;
#X obj 260 482 s sld_temperature_rcv;
#X obj 10 13 loadbang;
#X obj 10 63 s toggle_primer_rcv;
#X msg 10 38 0;
#X obj 10 94 loadbang;
#X obj 10 144 s sld_silence_rcv;
#X msg 10 119 0.75;
#X obj 10 174 loadbang;
#X obj 10 224 s radio_num_voices_rcv;
#X msg 10 199 0;
#X obj 10 253 loadbang;
#X obj 10 334 loadbang;
#X obj 10 414 loadbang;
#X obj 10 303 s sld_melody_xtr_rcv;
#X msg 10 278 0.5;
#X obj 10 384 s sld_loudness_xtr_rcv;
#X obj 10 464 s sld_mfcc_xtr_rcv;
#X msg 10 359 0.5;
#X msg 10 439 0.5;
#X connect 0 0 1 0;
#X connect 1 0 2 0;
#X connect 3 0 4 0;
#X connect 4 0 5 0;
#X connect 6 0 9 0;
#X connect 7 0 10 0;
#X connect 9 0 15 0;
#X connect 10 0 8 0;
#X connect 11 0 14 0;
#X connect 12 0 20 0;
#X connect 14 0 13 0;
#X connect 16 0 21 0;
#X connect 17 0 22 0;
#X connect 20 0 18 0;
#X connect 21 0 19 0;
#X connect 22 0 23 0;
#X connect 24 0 26 0;
#X connect 26 0 25 0;
#X connect 27 0 29 0;
#X connect 29 0 28 0;
#X connect 30 0 32 0;
#X connect 32 0 31 0;
#X connect 33 0 37 0;
#X connect 34 0 40 0;
#X connect 35 0 41 0;
#X connect 37 0 36 0;
#X connect 40 0 38 0;
#X connect 41 0 39 0;
#X restore 1619 954 pd sliders_init;
#X obj 27 468 cnv 15 100 20 empty empty empty 20 12 0 14 -4032 -66577
0;
#X obj 1283 929 hsl 200 15 -24 24 0 0 sld_ld_scaler_snd sld_ld_scaler_rcv
<-low--------LD-SCALER------high-> -2 -8 0 10 -262144 -1 -1 9950 1
;
#X floatatom 1280 949 6 0 0 0 - - -;
#X obj 1608 830 hsl 200 15 0.1 3 0 0 sld_temperature_snd sld_temperature_rcv
<-low-------TEMPERATURE-----high-> -2 -8 0 10 -262144 -1 -1 6176 1
;
#X floatatom 1605 850 6 0 0 0 - - -;
#X text 33 468 Melody temperature;
#X text 1821 676 \\\; | \; | \; | \; | \; |Melody \; | \; | \; | \;
| \; / \;;
#X obj 27 489 r sld_temperature_snd;
#X text 1823 373 \\\; | \; | \; |Timbre \; | \; | \; / \;;
#X obj 1272 250 tgl 15 0 toggle_primer_snd toggle_primer_rcv PRIMER:End_of_last(OFF)/User(ON)
17 7 0 10 -262144 -1 -1 0 1;
#X obj 1275 298 hsl 200 15 0 1 0 0 sld_silence_snd sld_silence_rcv
<-non-stop------SILENCE-----stop-> -2 -8 0 10 -262144 -1 -1 14925 1
;
#X floatatom 1272 318 6 0 0 0 - - -;
#X obj 1272 373 hradio 15 1 0 3 radio_num_voices_snd radio_num_voices_rcv
NUMBER_OF_VOICES 0 -8 0 10 -262144 -1 -1 0;
#X floatatom 1272 393 5 0 0 0 - - -;
#X obj 1285 540 hsl 200 15 0 1 0 0 sld_melody_xtr_snd sld_melody_xtr_rcv
<-imitate--MELODY-XTRPOL--invent-> -2 -8 0 10 -262144 -1 -1 9950 1
;
#X floatatom 1282 560 6 0 0 0 - - -;
#X obj 1285 610 hsl 200 15 0 1 0 0 sld_loudness_xtr_snd sld_loudness_xtr_rcv
<-imitate-LOUDNESS-XTRPOL-invent-> -2 -8 0 10 -262144 -1 -1 9950 1
;
#X floatatom 1282 630 6 0 0 0 - - -;
#X obj 1285 680 hsl 200 15 0 1 0 0 sld_mfcc_xtr_snd sld_mfcc_xtr_rcv
<-imitate---MFCC-XTRPOL---invent-> -2 -8 0 10 -262144 -1 -1 9950 1
;
#X floatatom 1282 700 6 0 0 0 - - -;
#X floatatom 191 569 5 0 1 1 Primer_steps_scaler - -;
#X floatatom 191 593 5 0 1 1 Num_steps_scaler - -;
#X obj 214 194 bng 15 250 50 0 empty empty New_file_recorded 17 7 0
10 -262144 -1 -1;
#X obj 119 152 voice_recorder;
#X obj 98 268 voice_analysis_v4;
#X obj 217 249 hsl 128 15 0 1 0 0 empty empty How_many_files_to_go_back_to_(0-1)
-2 -8 0 10 -262144 -1 -1 0 1;
#X obj 214 215 bng 15 250 50 0 empty empty Start_analysis 17 7 0 10
-262144 -1 -1;
#X msg 17 446 ../melody_generator/generated;
#X obj 894 579 print;
#X obj 213 616 tgl 15 0 empty toggle_primer_snd PRIMER:End_of_last(OFF)/User(ON)
17 7 0 10 -262144 -1 -1 0 1;
#X obj 527 562 generate_buffer_content_v2;
#X connect 4 0 7 0;
#X connect 5 0 4 0;
#X connect 6 0 32 0;
#X connect 8 0 36 0;
#X connect 9 0 10 0;
#X connect 10 0 30 0;
#X connect 13 0 36 2;
#X connect 14 0 36 3;
#X connect 17 0 36 4;
#X connect 18 0 133 0;
#X connect 18 1 133 1;
#X connect 19 0 18 0;
#X connect 20 0 19 0;
#X connect 24 0 126 0;
#X connect 24 1 126 0;
#X connect 25 0 126 1;
#X connect 26 0 126 2;
#X connect 27 0 8 0;
#X connect 29 0 27 0;
#X connect 29 1 36 5;
#X connect 30 0 20 0;
#X connect 30 1 31 0;
#X connect 32 0 4 0;
#X connect 33 0 9 0;
#X connect 34 0 52 0;
#X connect 36 0 4 0;
#X connect 38 0 41 0;
#X connect 39 0 38 0;
#X connect 40 0 43 0;
#X connect 43 0 38 0;
#X connect 44 0 45 0;
#X connect 45 0 46 1;
#X connect 46 0 38 0;
#X connect 49 0 46 0;
#X connect 50 0 36 5;
#X connect 52 0 53 0;
#X connect 53 0 49 0;
#X connect 53 1 44 0;
#X connect 55 0 57 0;
#X connect 57 0 62 0;
#X connect 59 0 61 0;
#X connect 60 0 55 0;
#X connect 61 0 58 0;
#X connect 61 0 58 1;
#X connect 62 0 59 0;
#X connect 62 1 63 0;
#X connect 65 0 68 0;
#X connect 66 0 65 0;
#X connect 67 0 70 0;
#X connect 70 0 65 0;
#X connect 71 0 65 0;
#X connect 74 0 77 0;
#X connect 76 0 74 0;
#X connect 77 0 79 0;
#X connect 78 0 71 0;
#X connect 82 0 81 0;
#X connect 84 0 89 0;
#X connect 85 0 87 0;
#X connect 86 0 85 0;
#X connect 88 0 84 0;
#X connect 90 0 126 3;
#X connect 92 0 93 0;
#X connect 94 0 95 0;
#X connect 96 0 97 0;
#X connect 98 0 99 0;
#X connect 100 0 101 0;
#X connect 104 0 105 0;
#X connect 106 0 107 0;
#X connect 110 0 17 0;
#X connect 113 0 114 0;
#X connect 115 0 116 0;
#X connect 117 0 118 0;
#X connect 119 0 120 0;
#X connect 121 0 122 0;
#X connect 123 0 36 6;
#X connect 124 0 36 7;
#X connect 126 0 125 0;
#X connect 126 1 91 0;
#X connect 127 0 29 0;
#X connect 128 0 127 1;
#X connect 129 0 127 0;
#X connect 130 0 36 1;
#X connect 132 0 36 8;
#X connect 133 0 34 0;
