#N struct 1460-draw-item float x float y float c float a float b;
#N struct 1461-rectangle float x float c;
#N struct 1461-pixel float x0 float y0 float x1 float y1;
#N canvas 2228 96 871 1088 12;
#X obj 156 995 dac~;
#X obj 494 292 fluid.plotter;
#X obj 494 596 t b l;
#X obj 499 727 route knearest;
#X obj 499 751 symbol;
#X obj 499 778 symbol2list;
#X text 584 779 Zexy;
#X obj 336 727 list prepend highlight;
#X obj 336 751 list trim;
#X msg 383 670 fit normalized;
#X msg 494 263 setpoints normalized-text;
#X obj 491 212 fluid.ds2text normalized normalized-text;
#N canvas 183 295 785 374 play_a_slice 0;
#X obj 415 96 t f f;
#X obj 447 211 -;
#X obj 415 238 pack;
#X floatatom 39 60 5 0 0 0 - - -;
#X obj 415 194 f;
#X obj 415 169 t f f;
#X obj 415 120 + 1;
#X obj 415 145 tabread slice_points;
#X obj 582 145 tabread slice_points;
#X text 79 60 PLAY THE SLICES;
#X obj 39 27 inlet;
#X obj 39 306 outlet~;
#X obj 39 97 t f f;
#X obj 188 149 tabread slice_points;
#X obj 39 149 tabread slice_points;
#X obj 39 180 -;
#X obj 39 123 + 1;
#X obj 39 203 pack;
#X msg 39 227 \$2 \$1;
#X text 417 70 From Flucoma help files (wrong);
#X obj 39 266 tabplay~ audio_corpus;
#X connect 0 0 6 0;
#X connect 0 1 8 0;
#X connect 1 0 2 1;
#X connect 3 0 12 0;
#X connect 4 0 2 0;
#X connect 5 0 4 0;
#X connect 5 1 1 0;
#X connect 6 0 7 0;
#X connect 7 0 5 0;
#X connect 8 0 1 1;
#X connect 8 0 4 1;
#X connect 10 0 3 0;
#X connect 12 0 16 0;
#X connect 12 1 13 0;
#X connect 13 0 15 1;
#X connect 13 0 17 1;
#X connect 14 0 15 0;
#X connect 15 0 17 0;
#X connect 16 0 14 0;
#X connect 17 0 18 0;
#X connect 18 0 20 0;
#X connect 20 0 11 0;
#X restore 156 935 pd play_a_slice;
#X obj 383 697 fluid.kdtree tree;
#X obj 491 235 fluid.ls2text labels labels-text;
#X msg 685 263 setlabels labels-text;
#X floatatom 156 911 5 0 0 0 - - -;
#N canvas -1289 493 552 246 retrieve_mfcc 0;
#X obj 172 120 fluid.dataset analysis;
#X msg 172 93 getpoint \$1 retrieval;
#X obj 335 120 array define retrieval 30;
#X obj 30 59 t b f;
#X obj 30 121 array get retrieval;
#X obj 30 35 inlet;
#X obj 30 169 outlet;
#X connect 1 0 0 0;
#X connect 3 0 4 0;
#X connect 3 1 1 0;
#X connect 4 0 6 0;
#X connect 5 0 3 0;
#X restore 334 804 pd retrieve_mfcc;
#X obj 357 833 list prepend set;
#X obj 357 857 list trim;
#X obj 340 1036 outlet;
#X obj 21 18 inlet;
#X text 62 18 QUERY MFCC BASED ON X & Y POSITIONS;
#X obj 336 373 spigot;
#X obj 375 347 tgl 15 0 empty empty empty 17 7 0 10 -262144 -1 -1 0
1;
#X text 391 345 Highlight;
#X obj 462 58 loadbang;
#X obj 462 84 delay 5000;
#X obj 462 110 t b b b;
#X obj 499 833 fluid.labelset labels;
#X msg 499 803 getlabel \$1;
#X obj 531 865 route getlabel;
#X obj 531 891 symbol;
#X obj 531 916 symbol2list;
#X text 616 917 Zexy;
#X floatatom 531 979 5 0 0 0 - - -;
#N canvas 380 73 911 806 ids_from_labels 0;
#X obj 621 313 text get labels-text;
#X obj 595 14 receive numcluster;
#X obj 512 255 text size labels-text;
#X msg 512 222 bang;
#X obj 67 755 print;
#X obj 512 284 cyclone/uzi 10 0;
#X obj 621 339 list trim;
#X obj 621 365 unpack s s;
#X obj 621 401 symbol2list;
#X obj 704 401 symbol2list;
#X obj 621 433 pack f f;
#X msg 621 459 \$2 \$1;
#X obj 621 485 route 0 1 2 3 4 5 6 7 8 9 10 11 12;
#X msg 416 224 bang;
#X obj 416 105 t b b;
#X msg 416 74 bang;
#X text 453 73 Init;
#X obj 18 228 route 0 1 2 3 4 5 6 7 8 9 10 11 12;
#X floatatom 18 76 5 0 0 0 - - -;
#X obj 18 603 ids_list;
#X obj 18 755 outlet;
#X obj 82 603 ids_list;
#X obj 146 603 ids_list;
#X obj 210 603 ids_list;
#X obj 274 603 ids_list;
#X obj 338 603 ids_list;
#X obj 402 603 ids_list;
#X obj 466 603 ids_list;
#X obj 529 603 ids_list;
#X obj 593 603 ids_list;
#X obj 657 603 ids_list;
#X obj 721 603 ids_list;
#X obj 785 603 ids_list;
#X obj 416 16 inlet;
#X obj 18 20 inlet;
#X text 59 76 Get random id from label;
#X connect 0 0 6 0;
#X connect 2 0 5 0;
#X connect 3 0 2 0;
#X connect 5 2 0 0;
#X connect 6 0 7 0;
#X connect 7 0 8 0;
#X connect 7 1 9 0;
#X connect 8 0 10 0;
#X connect 9 0 10 1;
#X connect 10 0 11 0;
#X connect 11 0 12 0;
#X connect 12 0 19 2;
#X connect 12 1 21 2;
#X connect 12 2 22 2;
#X connect 12 3 23 2;
#X connect 12 4 24 2;
#X connect 12 5 25 2;
#X connect 12 6 26 2;
#X connect 12 7 27 2;
#X connect 12 8 28 2;
#X connect 12 9 29 2;
#X connect 12 10 30 2;
#X connect 12 11 31 2;
#X connect 12 12 32 2;
#X connect 13 0 19 1;
#X connect 13 0 21 1;
#X connect 13 0 22 1;
#X connect 13 0 23 1;
#X connect 13 0 24 1;
#X connect 13 0 25 1;
#X connect 13 0 26 1;
#X connect 13 0 27 1;
#X connect 13 0 28 1;
#X connect 13 0 29 1;
#X connect 13 0 30 1;
#X connect 13 0 31 1;
#X connect 13 0 32 1;
#X connect 14 0 13 0;
#X connect 14 1 3 0;
#X connect 15 0 14 0;
#X connect 17 0 19 0;
#X connect 17 1 21 0;
#X connect 17 2 22 0;
#X connect 17 3 23 0;
#X connect 17 4 24 0;
#X connect 17 5 25 0;
#X connect 17 6 26 0;
#X connect 17 7 27 0;
#X connect 17 8 28 0;
#X connect 17 9 29 0;
#X connect 17 10 30 0;
#X connect 17 11 31 0;
#X connect 17 12 32 0;
#X connect 18 0 17 0;
#X connect 19 0 20 0;
#X connect 21 0 20 0;
#X connect 22 0 20 0;
#X connect 23 0 20 0;
#X connect 24 0 20 0;
#X connect 25 0 20 0;
#X connect 26 0 20 0;
#X connect 27 0 20 0;
#X connect 28 0 20 0;
#X connect 29 0 20 0;
#X connect 30 0 20 0;
#X connect 31 0 20 0;
#X connect 32 0 20 0;
#X connect 33 0 15 0;
#X connect 34 0 18 0;
#X restore 340 968 pd ids_from_labels;
#X obj 341 18 inlet;
#X obj 340 941 float;
#X text 132 803 RETRIEVE MFCC VALUES FROM ID;
#X obj 531 1001 outlet;
#X text 577 1003 Label;
#X text 382 18 QUERY RDM MFCC BASED ON LABEL;
#N canvas 1275 384 421 374 retrieve_slice 0;
#X floatatom 39 60 5 0 0 0 - - -;
#X text 79 60 PLAY THE SLICES;
#X obj 39 27 inlet;
#X obj 39 97 t f f;
#X obj 188 149 tabread slice_points;
#X obj 39 149 tabread slice_points;
#X obj 39 180 -;
#X obj 39 123 + 1;
#X obj 39 203 pack;
#X msg 39 227 \$2 \$1;
#X obj 39 306 outlet;
#X text 89 225 Startframe Numframes;
#X connect 0 0 3 0;
#X connect 2 0 0 0;
#X connect 3 0 7 0;
#X connect 3 1 4 0;
#X connect 4 0 6 1;
#X connect 4 0 8 1;
#X connect 5 0 6 0;
#X connect 6 0 8 0;
#X connect 7 0 5 0;
#X connect 8 0 9 0;
#X connect 9 0 10 0;
#X restore 340 995 pd retrieve_slice;
#X text 389 1037 Startframe Numframes;
#X obj 353 884 t b f;
#X obj 353 909 spigot;
#X obj 266 847 tgl 15 0 empty empty empty 17 7 0 10 -262144 -1 -1 0
1;
#X obj 146 883 spigot;
#X obj 267 320 print;
#X obj 656 622 array define query\$0 2;
#X obj 526 622 array set query\$0;
#X obj 494 649 symbol query\$0;
#X msg 494 672 knearest \$1;
#X connect 1 0 2 0;
#X connect 2 0 52 0;
#X connect 2 1 51 0;
#X connect 3 0 4 0;
#X connect 4 0 5 0;
#X connect 4 0 30 0;
#X connect 7 0 8 0;
#X connect 8 0 23 0;
#X connect 9 0 13 0;
#X connect 10 0 1 0;
#X connect 12 0 0 0;
#X connect 12 0 0 1;
#X connect 13 2 3 0;
#X connect 13 2 7 0;
#X connect 15 0 1 1;
#X connect 16 0 12 0;
#X connect 17 0 18 0;
#X connect 18 0 19 0;
#X connect 21 0 2 0;
#X connect 23 0 1 0;
#X connect 24 0 23 1;
#X connect 26 0 27 0;
#X connect 27 0 28 0;
#X connect 28 0 15 0;
#X connect 28 0 36 1;
#X connect 28 1 10 0;
#X connect 28 2 11 0;
#X connect 28 2 14 0;
#X connect 29 2 31 0;
#X connect 30 0 29 0;
#X connect 31 0 32 0;
#X connect 32 0 33 0;
#X connect 33 0 35 0;
#X connect 33 0 40 0;
#X connect 33 0 45 0;
#X connect 36 0 43 0;
#X connect 36 0 48 0;
#X connect 37 0 38 0;
#X connect 38 0 36 0;
#X connect 43 0 20 0;
#X connect 45 0 46 0;
#X connect 45 1 38 1;
#X connect 46 0 38 0;
#X connect 47 0 48 1;
#X connect 47 0 46 1;
#X connect 48 0 16 0;
#X connect 52 0 53 0;
#X connect 53 0 13 0;
