#N struct 1014-draw-item float x float y float c float a float b;
#N struct 1015-rectangle float x float c;
#N struct 1015-pixel float x0 float y0 float x1 float y1;
#N canvas 1920 65 1920 1135 12;
#X obj 18 756 dac~;
#X msg 18 610 0;
#X obj 18 363 bng 15 250 50 0 empty empty empty 17 7 0 10 -262144 -1
-1;
#X obj 18 433 bng 15 250 50 0 empty empty empty 17 7 0 10 -262144 -1
-1;
#X obj 194 536 array define slice_points;
#X obj 437 1026 dac~;
#X text 36 362 CREATE SLICES;
#X obj 1294 535 bng 15 250 50 0 empty empty empty 17 7 0 10 -262144
-1 -1;
#X obj 1294 605 bng 15 250 50 0 empty empty empty 17 7 0 10 -262144
-1 -1;
#X obj 1638 563 array define loudness-feats-0;
#X obj 1638 584 array define loudness-feats-1;
#X text 1312 534 LOUDNESS ANALYSIS;
#X obj 1294 632 fluid.bufstats -source loudness-feats-0 -stats loudness-stats
;
#X obj 1623 632 array define loudness-stats;
#X text 1325 680 GET STATS ON THE ANALYSIS (loudness-stats[0] == mean)
;
#X msg 1294 678 0;
#X obj 1294 707 array get loudness-stats 0 1;
#X obj 1232 122 t b f;
#X obj 1294 204 t f f;
#X obj 1443 256 tabread slice_points;
#X obj 1294 256 tabread slice_points;
#X obj 1232 94 array size slice_points;
#X obj 1151 39 bng 15 250 50 0 empty empty empty 17 7 0 10 -262144
-1 -1;
#X obj 1294 287 -;
#X obj 1294 230 + 1;
#X obj 1294 310 pack;
#X msg 1294 334 \$2 \$1;
#X msg 2060 529 startframe \$1;
#X obj 2060 499 unpack;
#X msg 2163 529 numframes \$1;
#X text 1401 95 GET START AND LENGTH OF EACH SLICES;
#X obj 1866 614 bng 15 250 50 0 empty empty empty 17 7 0 10 -262144
-1 -1;
#X text 1991 680 GET STATS ON THE ANALYSIS (loudness-stats[0] == mean)
;
#X obj 1866 531 bng 15 250 50 0 empty empty empty 17 7 0 10 -262144
-1 -1;
#X obj 1333 383 expr if ($f2 > 0 \, 1 \, 0);
#X obj 1294 407 spigot;
#X obj 1294 357 t l l;
#X text 87 610 LISTEN TO SLICE DETECTION;
#X obj 78 694 fluid.transientslice~;
#X obj 1294 429 t b b l;
#X obj 1249 1048 fluid.dataset analysis;
#X obj 1366 921 array set point;
#X obj 1334 891 t b l;
#X msg 1198 1022 print;
#X msg 1197 1000 clear;
#X obj 1249 965 float;
#X obj 775 345 fluid.plotter;
#X obj 1151 85 bng 15 250 50 0 empty empty empty 17 7 0 10 -262144
-1 -1;
#X obj 807 675 array set query;
#X obj 922 675 array define query 2;
#X msg 775 701 knearest query;
#X obj 775 649 t b l;
#X obj 780 758 route knearest;
#X msg 1249 998 addpoint \$1 point;
#X obj 780 782 symbol;
#X obj 780 809 symbol2list;
#X text 865 810 Zexy;
#X obj 617 758 list prepend highlight;
#X obj 617 782 list trim;
#X msg 664 701 fit normalized;
#X obj 1059 265 text define normalized-text;
#X msg 775 316 setpoints normalized-text;
#X obj 772 265 fluid.ds2text normalized normalized-text;
#N canvas 183 295 785 374 play_a_slice 0;
#X obj 415 96 t f f;
#X obj 447 211 -;
#X obj 415 238 pack;
#X floatatom 39 60 5 0 0 0 - - -;
#X obj 415 194 f;
#X obj 415 169 t f f;
#X obj 415 120 + 1;
#X obj 415 145 tabread slice_points;
#X obj 582 145 tabread slice_points;
#X text 79 60 PLAY THE SLICES;
#X obj 39 27 inlet;
#X obj 39 306 outlet~;
#X obj 39 97 t f f;
#X obj 188 149 tabread slice_points;
#X obj 39 149 tabread slice_points;
#X obj 39 180 -;
#X obj 39 123 + 1;
#X obj 39 203 pack;
#X msg 39 227 \$2 \$1;
#X text 417 70 From Flucoma help files (wrong);
#X obj 39 266 tabplay~ audio_corpus;
#X connect 0 0 6 0;
#X connect 0 1 8 0;
#X connect 1 0 2 1;
#X connect 3 0 12 0;
#X connect 4 0 2 0;
#X connect 5 0 4 0;
#X connect 5 1 1 0;
#X connect 6 0 7 0;
#X connect 7 0 5 0;
#X connect 8 0 1 1;
#X connect 8 0 4 1;
#X connect 10 0 3 0;
#X connect 12 0 16 0;
#X connect 12 1 13 0;
#X connect 13 0 15 1;
#X connect 13 0 17 1;
#X connect 14 0 15 0;
#X connect 15 0 17 0;
#X connect 16 0 14 0;
#X connect 17 0 18 0;
#X connect 18 0 20 0;
#X connect 20 0 11 0;
#X restore 437 966 pd play_a_slice;
#X obj 664 728 fluid.kdtree tree;
#N canvas 2205 424 1030 512 concatenate_soundfiles 0;
#X obj 66 140 hcs/folder_list;
#X msg 419 236 read -resize \$1 temp_buffer;
#X obj 419 260 soundfiler;
#X obj 497 260 array define temp_buffer;
#X obj 115 413 fluid.bufcompose;
#X obj 48 387 bng 15 250 50 0 empty empty empty 17 7 0 10 -262144 -1
-1;
#X obj 66 237 array size temp_buffer;
#X obj 66 291 float;
#X obj 115 291 + 0;
#X obj 66 263 t f b;
#X msg 115 263 0;
#X obj 48 28 inlet;
#X obj 48 414 outlet;
#X obj 48 71 t b s b b 1;
#X msg 678 235 \; audio_corpus const;
#X obj 820 235 array size audio_corpus;
#X msg 115 371 reset \, destination audio_corpus \, source temp_buffer
\, startframe 0 \, numchans 1 \, gain 1 \, deststartframe \$1 \, bang
;
#X msg 820 204 1;
#X msg 238 236 bang;
#X msg 238 260 \; temp_buffer normalize;
#X obj 66 188 t b b s;
#X text 254 203 NORMALIZE OPTION;
#X connect 0 0 20 0;
#X connect 1 0 2 0;
#X connect 5 0 12 0;
#X connect 6 0 9 0;
#X connect 7 0 8 0;
#X connect 8 0 7 1;
#X connect 8 0 16 0;
#X connect 9 0 8 1;
#X connect 9 1 7 0;
#X connect 10 0 8 1;
#X connect 10 0 7 1;
#X connect 11 0 13 0;
#X connect 13 0 5 0;
#X connect 13 1 0 0;
#X connect 13 2 10 0;
#X connect 13 3 14 0;
#X connect 13 4 15 0;
#X connect 16 0 4 0;
#X connect 17 0 15 0;
#X connect 18 0 19 0;
#X connect 20 0 6 0;
#X connect 20 1 18 0;
#X connect 20 2 1 0;
#X restore 16 324 pd concatenate_soundfiles;
#X obj 15 254 dac~;
#X obj 15 191 bng 15 250 50 0 empty empty empty 17 7 0 10 -262144 -1
-1;
#X msg 37 190 stop;
#X obj 76 723 fluid.noveltyslice~ -threshold 0.4;
#X obj 1249 179 t f f;
#X obj 1151 60 t b b b;
#X obj 1373 792 expr if ($f1 < -55 \, 0 \, 1);
#X obj 1294 768 t l l;
#X obj 1334 867 spigot;
#X text 1557 792 IF SLICE IS NOT LOUD ENOUGH \, DON'T LET IT PASS;
#X text 1884 529 MFCC ANALYSIS;
#N canvas 1920 134 314 708 mfcc-feats-buffers 0;
#X obj 15 11 array define mfcc-feats-0;
#X obj 15 32 array define mfcc-feats-1;
#X obj 15 54 array define mfcc-feats-2;
#X obj 15 75 array define mfcc-feats-3;
#X obj 15 97 array define mfcc-feats-4;
#X obj 15 119 array define mfcc-feats-5;
#X obj 15 140 array define mfcc-feats-6;
#X obj 15 161 array define mfcc-feats-7;
#X obj 15 182 array define mfcc-feats-8;
#X obj 15 204 array define mfcc-feats-9;
#X obj 15 225 array define mfcc-feats-10;
#X obj 15 247 array define mfcc-feats-11;
#X obj 15 269 array define mfcc-feats-12;
#X obj 15 290 array define mfcc-feats-13;
#X obj 15 313 array define mfcc-feats-14;
#X obj 15 334 array define mfcc-feats-15;
#X obj 15 356 array define mfcc-feats-16;
#X obj 15 377 array define mfcc-feats-17;
#X obj 15 399 array define mfcc-feats-18;
#X obj 15 421 array define mfcc-feats-19;
#X obj 15 442 array define mfcc-feats-20;
#X obj 15 463 array define mfcc-feats-21;
#X obj 15 484 array define mfcc-feats-22;
#X obj 15 506 array define mfcc-feats-23;
#X obj 15 527 array define mfcc-feats-24;
#X obj 15 549 array define mfcc-feats-25;
#X obj 15 571 array define mfcc-feats-26;
#X obj 15 592 array define mfcc-feats-27;
#X obj 15 614 array define mfcc-feats-28;
#X obj 15 635 array define mfcc-feats-29;
#X restore 2278 563 pd mfcc-feats-buffers;
#X obj 1866 632 fluid.bufstats -source mfcc-feats -stats mfcc-stats
;
#N canvas 862 245 357 736 mfcc-stats-buffers 0;
#X obj 15 11 array define mfcc-stats-0;
#X obj 15 32 array define mfcc-stats-1;
#X obj 15 54 array define mfcc-stats-2;
#X obj 15 75 array define mfcc-stats-3;
#X obj 15 97 array define mfcc-stats-4;
#X obj 15 119 array define mfcc-stats-5;
#X obj 15 140 array define mfcc-stats-6;
#X obj 15 161 array define mfcc-stats-7;
#X obj 15 182 array define mfcc-stats-8;
#X obj 17 203 array define mfcc-stats-9;
#X obj 15 225 array define mfcc-stats-10;
#X obj 15 247 array define mfcc-stats-11;
#X obj 15 269 array define mfcc-stats-12;
#X obj 15 290 array define mfcc-stats-13;
#X obj 15 313 array define mfcc-stats-14;
#X obj 15 334 array define mfcc-stats-15;
#X obj 15 356 array define mfcc-stats-16;
#X obj 15 377 array define mfcc-stats-17;
#X obj 15 399 array define mfcc-stats-18;
#X obj 15 421 array define mfcc-stats-19;
#X obj 15 442 array define mfcc-stats-20;
#X obj 15 463 array define mfcc-stats-21;
#X obj 15 484 array define mfcc-stats-22;
#X obj 15 506 array define mfcc-stats-23;
#X obj 15 527 array define mfcc-stats-24;
#X obj 15 549 array define mfcc-stats-25;
#X obj 15 571 array define mfcc-stats-26;
#X obj 15 592 array define mfcc-stats-27;
#X obj 15 614 array define mfcc-stats-28;
#X obj 15 635 array define mfcc-stats-29;
#X restore 2231 632 pd mfcc-stats-buffers;
#N canvas 804 262 523 391 get_stats_list 0;
#X msg 196 112 bang;
#X obj 209 245 list;
#X obj 24 69 bng 15 250 50 0 empty empty empty 17 7 0 10 -262144 -1
-1;
#X obj 24 89 t b b;
#X obj 115 218 array get mfcc-stats-0 0 1;
#X msg 115 194 0;
#X obj 115 168 t b f;
#X msg 294 194 symbol mfcc-stats-\$1;
#X obj 63 168 sel 29;
#X obj 63 140 t f f;
#X obj 63 279 list;
#X obj 115 245 list prepend;
#X obj 24 22 inlet;
#X obj 63 324 outlet;
#X obj 24 113 cyclone/uzi 30 0;
#X connect 0 0 11 1;
#X connect 1 0 11 1;
#X connect 2 0 3 0;
#X connect 3 0 14 0;
#X connect 3 1 0 0;
#X connect 4 0 11 0;
#X connect 5 0 4 0;
#X connect 6 0 5 0;
#X connect 6 1 7 0;
#X connect 7 0 4 2;
#X connect 8 0 10 0;
#X connect 9 0 8 0;
#X connect 9 1 6 0;
#X connect 10 0 13 0;
#X connect 11 0 1 0;
#X connect 11 0 10 1;
#X connect 12 0 2 0;
#X connect 14 2 9 0;
#X restore 1866 679 pd get_stats_list;
#X obj 1294 745 list append;
#X text 1378 745 LIST OF LOUDNESS AND MFCC MEANS FOR EACH SLICE;
#X obj 1294 822 list split 1;
#X obj 1481 921 array define point 30;
#X obj 624 240 t b b b b;
#X obj 772 288 fluid.ls2text labels labels-text;
#X obj 1002 288 text define labels-text;
#X msg 966 316 setlabels labels-text;
#X msg 50 610 stop;
#X floatatom 437 942 5 0 0 0 - - -;
#X floatatom 1359 123 5 0 0 0 - - -;
#N canvas -1289 493 552 246 retrieve_mfcc 0;
#X obj 172 120 fluid.dataset analysis;
#X msg 172 93 getpoint \$1 retrieval;
#X obj 335 120 array define retrieval 30;
#X obj 30 59 t b f;
#X obj 30 121 array get retrieval;
#X obj 30 35 inlet;
#X obj 30 169 outlet;
#X connect 1 0 0 0;
#X connect 3 0 4 0;
#X connect 3 1 1 0;
#X connect 4 0 6 0;
#X connect 5 0 3 0;
#X restore 615 835 pd retrieve_mfcc;
#X obj 638 864 list prepend set;
#X obj 638 888 list trim;
#N canvas 696 164 842 826 reduce_normalize_cluster 0;
#X obj 17 12 inlet;
#X obj 20 440 fluid.normalize;
#X obj 258 440 fluid.dataset normalized;
#X msg 258 407 print;
#X obj 428 237 fluid.dataset reduced;
#X msg 233 208 print;
#X msg 15 208 fittransform analysis reduced;
#X msg 20 407 fittransform reduced normalized;
#X text 279 208 REDUCE THE NUMBER OF DIMENSIONS;
#X text 303 407 NORMALIZE;
#X obj 20 386 bng 15 250 50 0 empty empty empty 17 7 0 10 -262144 -1
-1;
#X obj 219 715 select fitpredict;
#X obj 219 692 symbol;
#X msg 26 640 clear \, fitpredict normalized labels;
#X text 327 640 CLUSTER THE POINTS FOR LABELLING;
#X obj 26 621 bng 15 250 50 0 empty empty empty 17 7 0 10 -262144 -1
-1;
#X obj 283 671 fluid.labelset labels;
#X obj 219 766 outlet;
#X obj 177 13 inlet;
#X msg 283 640 print;
#X obj 15 237 fluid.umap -numdimensions 2 -numneighbours 20 -mindist
0.2 -learnrate 0.1 -iterations 1000;
#X obj 26 664 fluid.kmeans -numclusters 13;
#X obj 428 132 loadbang;
#X msg 428 158 read mfcc_explorer_data/reduced.json;
#X msg 428 182 write mfcc_explorer_data/reduced.json;
#X obj 258 329 loadbang;
#X msg 258 355 read mfcc_explorer_data/normalized.json;
#X msg 258 379 write mfcc_explorer_data/normalized.json;
#X obj 283 557 loadbang;
#X msg 283 583 read mfcc_explorer_data/labels.json;
#X msg 283 607 write mfcc_explorer_data/labels.json;
#X obj 116 529 loadbang;
#X msg 116 555 13;
#X obj 124 581 send numcluster;
#X msg 116 607 numclusters \$1;
#X obj 492 132 r save_mfcc_state;
#X obj 322 329 r save_mfcc_state;
#X obj 348 557 r save_mfcc_state;
#X connect 0 0 6 0;
#X connect 1 2 15 0;
#X connect 3 0 2 0;
#X connect 5 0 4 0;
#X connect 6 0 20 0;
#X connect 7 0 1 0;
#X connect 10 0 7 0;
#X connect 11 0 17 0;
#X connect 12 0 11 0;
#X connect 13 0 21 0;
#X connect 15 0 13 0;
#X connect 18 0 20 0;
#X connect 19 0 16 0;
#X connect 20 2 10 0;
#X connect 21 2 12 0;
#X connect 22 0 23 0;
#X connect 23 0 4 0;
#X connect 24 0 4 0;
#X connect 25 0 26 0;
#X connect 26 0 2 0;
#X connect 27 0 2 0;
#X connect 28 0 29 0;
#X connect 29 0 16 0;
#X connect 30 0 16 0;
#X connect 31 0 32 0;
#X connect 32 0 34 0;
#X connect 32 0 33 0;
#X connect 34 0 21 0;
#X connect 35 0 24 0;
#X connect 36 0 27 0;
#X connect 37 0 30 0;
#X restore 624 212 pd reduce_normalize_cluster;
#X text 821 212 MASSAGE THE DATASET;
#X msg 810 120 numneighbours \$1;
#X msg 810 142 mindist \$1;
#X msg 810 164 learnrate \$1;
#X text 808 68 UMAP PARAMETERS;
#X floatatom 810 94 5 0 0 0 - - -;
#X floatatom 851 94 5 0 0 0 - - -;
#X floatatom 893 94 5 0 0 0 - - -;
#X floatatom 934 94 5 0 0 0 - - -;
#X text 1385 823 THROW AWAY THE LOUDNESS;
#X obj 18 454 array size slice_points;
#X msg 18 481 \$1 SLICES CREATED;
#X obj 18 507 print;
#X msg 810 186 iterations \$1;
#X obj 621 1067 outlet;
#X obj 15 214 tabplay~ audio_corpus;
#X obj 18 648 tabplay~ audio_corpus;
#X obj 18 391 fluid.bufnoveltyslice -source audio_corpus -threshold
0.4 -indices slice_points;
#X obj 482 34 inlet;
#X text 523 34 QUERY MFCC BASED ON X & Y POSITIONS;
#X obj 15 127 soundfiler;
#X obj 1232 149 cyclone/uzi 10 0;
#X msg 1411 1015 write mfcc_explorer_data/analysis.json;
#X msg 1411 991 read mfcc_explorer_data/analysis.json;
#X obj 1411 965 loadbang;
#X obj 617 426 spigot;
#X obj 656 400 tgl 15 0 empty empty empty 17 7 0 10 -262144 -1 -1 0
1;
#X text 672 398 Highlight;
#X obj 431 592 loadbang;
#X msg 431 618 read mfcc_explorer_data/tree.json;
#X msg 431 642 write mfcc_explorer_data/tree.json;
#N canvas 1920 96 1920 1104 save_load_text 0;
#X obj 383 80 loadbang;
#X msg 83 252 write mfcc_explorer_data/slice_points.txt;
#X obj 610 193 text define slice_points_info;
#X msg 610 165 read -c mfcc_explorer_data/slice_points.txt;
#X obj 406 192 text size slice_points_info;
#X obj 406 218 array size slice_points;
#X obj 383 106 t b b b;
#X msg 383 252 read mfcc_explorer_data/slice_points.txt;
#X obj 383 376 outlet;
#X obj 448 81 bng 15 250 50 0 empty empty empty 17 7 0 10 -262144 -1
-1;
#X obj 83 54 inlet;
#X connect 0 0 6 0;
#X connect 1 0 8 0;
#X connect 3 0 2 0;
#X connect 4 0 5 0;
#X connect 6 0 7 0;
#X connect 6 1 4 0;
#X connect 6 2 3 0;
#X connect 7 0 8 0;
#X connect 9 0 6 0;
#X connect 10 0 1 0;
#X restore 194 509 pd save_load_text;
#X obj 194 485 bng 15 250 50 0 empty empty empty 17 7 0 10 -262144
-1 -1;
#X text 210 483 Save;
#X obj 1073 181 loadbang;
#X obj 1073 207 delay 5000;
#X obj 1073 233 t b b b;
#X obj 780 864 fluid.labelset labels;
#X msg 780 834 getlabel \$1;
#X obj 812 896 route getlabel;
#X obj 812 922 symbol;
#X obj 538 1028 print;
#X obj 812 947 symbol2list;
#X text 897 948 Zexy;
#X floatatom 812 1010 5 0 0 0 - - -;
#X msg 680 322 setpoints 0;
#N canvas 380 73 911 806 ids_from_labels 0;
#X obj 621 313 text get labels-text;
#X obj 595 14 receive numcluster;
#X obj 512 255 text size labels-text;
#X msg 512 222 bang;
#X obj 67 755 print;
#X obj 512 284 cyclone/uzi 10 0;
#X obj 621 339 list trim;
#X obj 621 365 unpack s s;
#X obj 621 401 symbol2list;
#X obj 704 401 symbol2list;
#X obj 621 433 pack f f;
#X msg 621 459 \$2 \$1;
#X obj 621 485 route 0 1 2 3 4 5 6 7 8 9 10 11 12;
#X msg 416 224 bang;
#X obj 416 105 t b b;
#X msg 416 74 bang;
#X text 453 73 Init;
#X obj 18 228 route 0 1 2 3 4 5 6 7 8 9 10 11 12;
#X floatatom 18 76 5 0 0 0 - - -;
#X obj 18 603 ids_list;
#X obj 18 755 outlet;
#X obj 82 603 ids_list;
#X obj 146 603 ids_list;
#X obj 210 603 ids_list;
#X obj 274 603 ids_list;
#X obj 338 603 ids_list;
#X obj 402 603 ids_list;
#X obj 466 603 ids_list;
#X obj 529 603 ids_list;
#X obj 593 603 ids_list;
#X obj 657 603 ids_list;
#X obj 721 603 ids_list;
#X obj 785 603 ids_list;
#X obj 416 16 inlet;
#X obj 18 20 inlet;
#X text 59 76 Get random id from label;
#X connect 0 0 6 0;
#X connect 2 0 5 0;
#X connect 3 0 2 0;
#X connect 5 2 0 0;
#X connect 6 0 7 0;
#X connect 7 0 8 0;
#X connect 7 1 9 0;
#X connect 8 0 10 0;
#X connect 9 0 10 1;
#X connect 10 0 11 0;
#X connect 11 0 12 0;
#X connect 12 0 19 2;
#X connect 12 1 21 2;
#X connect 12 2 22 2;
#X connect 12 3 23 2;
#X connect 12 4 24 2;
#X connect 12 5 25 2;
#X connect 12 6 26 2;
#X connect 12 7 27 2;
#X connect 12 8 28 2;
#X connect 12 9 29 2;
#X connect 12 10 30 2;
#X connect 12 11 31 2;
#X connect 12 12 32 2;
#X connect 13 0 19 1;
#X connect 13 0 21 1;
#X connect 13 0 22 1;
#X connect 13 0 23 1;
#X connect 13 0 24 1;
#X connect 13 0 25 1;
#X connect 13 0 26 1;
#X connect 13 0 27 1;
#X connect 13 0 28 1;
#X connect 13 0 29 1;
#X connect 13 0 30 1;
#X connect 13 0 31 1;
#X connect 13 0 32 1;
#X connect 14 0 13 0;
#X connect 14 1 3 0;
#X connect 15 0 14 0;
#X connect 17 0 19 0;
#X connect 17 1 21 0;
#X connect 17 2 22 0;
#X connect 17 3 23 0;
#X connect 17 4 24 0;
#X connect 17 5 25 0;
#X connect 17 6 26 0;
#X connect 17 7 27 0;
#X connect 17 8 28 0;
#X connect 17 9 29 0;
#X connect 17 10 30 0;
#X connect 17 11 31 0;
#X connect 17 12 32 0;
#X connect 18 0 17 0;
#X connect 19 0 20 0;
#X connect 21 0 20 0;
#X connect 22 0 20 0;
#X connect 23 0 20 0;
#X connect 24 0 20 0;
#X connect 25 0 20 0;
#X connect 26 0 20 0;
#X connect 27 0 20 0;
#X connect 28 0 20 0;
#X connect 29 0 20 0;
#X connect 30 0 20 0;
#X connect 31 0 20 0;
#X connect 32 0 20 0;
#X connect 33 0 15 0;
#X connect 34 0 18 0;
#X restore 621 999 pd ids_from_labels;
#X obj 802 34 inlet;
#X obj 15 152 array define audio_corpus;
#X obj 100 127 array size audio_corpus;
#X msg 100 98 1;
#X obj 15 14 loadbang;
#X obj 403 157 bng 15 250 50 0 empty empty Save_current_state 17 7
0 10 -204800 -1 -1;
#X obj 403 177 s save_mfcc_state;
#X obj 87 14 r save_mfcc_state;
#X obj 194 455 r save_mfcc_state;
#X obj 495 591 r save_mfcc_state;
#X obj 1474 965 r save_mfcc_state;
#X obj 621 972 float;
#X text 413 834 RETRIEVE MFCC VALUES FROM ID;
#X obj 812 1032 outlet;
#X text 858 1034 Label;
#X text 843 34 QUERY RDM MFCC BASED ON LABEL;
#N canvas 1275 384 421 374 retrieve_slice 0;
#X floatatom 39 60 5 0 0 0 - - -;
#X text 79 60 PLAY THE SLICES;
#X obj 39 27 inlet;
#X obj 39 97 t f f;
#X obj 188 149 tabread slice_points;
#X obj 39 149 tabread slice_points;
#X obj 39 180 -;
#X obj 39 123 + 1;
#X obj 39 203 pack;
#X msg 39 227 \$2 \$1;
#X obj 39 306 outlet;
#X text 89 225 Startframe Numframes;
#X connect 0 0 3 0;
#X connect 2 0 0 0;
#X connect 3 0 7 0;
#X connect 3 1 4 0;
#X connect 4 0 6 1;
#X connect 4 0 8 1;
#X connect 5 0 6 0;
#X connect 6 0 8 0;
#X connect 7 0 5 0;
#X connect 8 0 9 0;
#X connect 9 0 10 0;
#X restore 621 1026 pd retrieve_slice;
#X text 670 1068 Startframe Numframes;
#X msg 16 298 symbol /media/gabriel/Extra/VocalSets/VocalSet_Small/*.wav
;
#X msg 15 71 write -wave -rate 41000 audio_corpus_normalized audio_corpus
;
#X obj 634 915 t b f;
#X obj 634 940 spigot;
#X obj 547 878 tgl 15 0 empty empty empty 17 7 0 10 -262144 -1 -1 0
1;
#X obj 427 914 spigot;
#X obj 1294 563 fluid.bufloudness -source audio_corpus -features loudness-feats
-sr 48000;
#X msg 17 42 read -resize audio_corpus_normalized_48000.wav audio_corpus
;
#X obj 1866 563 fluid.bufmfcc 30 -source audio_corpus -features mfcc-feats
-minfreq 20 -maxfreq 8000 -numbands 128 -numcoeffs 30 -sr 48000 -startcoeff
0;
#X connect 1 0 112 0;
#X connect 2 0 113 0;
#X connect 3 0 106 0;
#X connect 3 0 22 0;
#X connect 7 0 167 0;
#X connect 8 0 12 0;
#X connect 12 0 15 0;
#X connect 15 0 16 0;
#X connect 16 0 81 0;
#X connect 17 0 117 0;
#X connect 17 1 117 1;
#X connect 18 0 24 0;
#X connect 18 1 19 0;
#X connect 19 0 23 1;
#X connect 19 0 25 1;
#X connect 20 0 23 0;
#X connect 21 0 17 0;
#X connect 21 0 91 0;
#X connect 22 0 71 0;
#X connect 23 0 25 0;
#X connect 24 0 20 0;
#X connect 25 0 26 0;
#X connect 26 0 36 0;
#X connect 27 0 167 0;
#X connect 27 0 169 0;
#X connect 28 0 27 0;
#X connect 28 1 29 0;
#X connect 29 0 167 0;
#X connect 29 0 169 0;
#X connect 31 0 78 0;
#X connect 33 0 169 0;
#X connect 34 0 35 1;
#X connect 35 0 39 0;
#X connect 36 0 35 0;
#X connect 36 1 34 0;
#X connect 39 0 7 0;
#X connect 39 1 33 0;
#X connect 39 2 28 0;
#X connect 42 0 45 0;
#X connect 42 1 41 0;
#X connect 43 0 40 0;
#X connect 44 0 40 0;
#X connect 45 0 53 0;
#X connect 46 0 51 0;
#X connect 47 0 95 0;
#X connect 50 0 64 0;
#X connect 51 0 50 0;
#X connect 51 1 48 0;
#X connect 52 0 54 0;
#X connect 53 0 40 0;
#X connect 54 0 55 0;
#X connect 54 0 134 0;
#X connect 57 0 58 0;
#X connect 58 0 121 0;
#X connect 59 0 64 0;
#X connect 61 0 46 0;
#X connect 63 0 5 0;
#X connect 63 0 5 1;
#X connect 64 2 52 0;
#X connect 64 2 57 0;
#X connect 67 0 111 0;
#X connect 68 0 111 0;
#X connect 69 0 0 1;
#X connect 70 0 18 0;
#X connect 70 1 45 1;
#X connect 71 0 47 0;
#X connect 71 1 21 0;
#X connect 71 2 44 0;
#X connect 72 0 74 1;
#X connect 73 0 83 0;
#X connect 73 1 72 0;
#X connect 74 0 42 0;
#X connect 78 0 80 0;
#X connect 80 0 81 1;
#X connect 81 0 73 0;
#X connect 83 1 74 0;
#X connect 85 0 88 0;
#X connect 85 1 61 0;
#X connect 85 2 59 0;
#X connect 85 3 62 0;
#X connect 85 3 86 0;
#X connect 88 0 46 1;
#X connect 89 0 112 0;
#X connect 90 0 63 0;
#X connect 92 0 93 0;
#X connect 93 0 94 0;
#X connect 95 0 85 0;
#X connect 97 0 95 1;
#X connect 98 0 95 1;
#X connect 99 0 95 1;
#X connect 101 0 97 0;
#X connect 102 0 98 0;
#X connect 103 0 99 0;
#X connect 104 0 109 0;
#X connect 106 0 107 0;
#X connect 107 0 108 0;
#X connect 109 0 95 1;
#X connect 111 0 66 0;
#X connect 111 0 66 1;
#X connect 112 0 0 0;
#X connect 112 0 38 0;
#X connect 112 0 69 0;
#X connect 113 0 3 0;
#X connect 114 0 51 0;
#X connect 117 2 70 0;
#X connect 118 0 40 0;
#X connect 119 0 40 0;
#X connect 120 0 119 0;
#X connect 121 0 46 0;
#X connect 122 0 121 1;
#X connect 124 0 125 0;
#X connect 125 0 64 0;
#X connect 126 0 64 0;
#X connect 127 0 4 0;
#X connect 128 0 127 0;
#X connect 130 0 131 0;
#X connect 131 0 132 0;
#X connect 132 0 88 0;
#X connect 132 0 142 1;
#X connect 132 1 61 0;
#X connect 132 2 62 0;
#X connect 132 2 86 0;
#X connect 133 2 135 0;
#X connect 134 0 133 0;
#X connect 135 0 136 0;
#X connect 136 0 138 0;
#X connect 138 0 140 0;
#X connect 138 0 156 0;
#X connect 138 0 163 0;
#X connect 141 0 46 0;
#X connect 142 0 159 0;
#X connect 142 0 166 0;
#X connect 143 0 154 0;
#X connect 146 0 145 0;
#X connect 147 0 168 0;
#X connect 148 0 149 0;
#X connect 151 0 128 0;
#X connect 152 0 126 0;
#X connect 153 0 118 0;
#X connect 154 0 142 0;
#X connect 159 0 110 0;
#X connect 161 0 65 0;
#X connect 162 0 116 0;
#X connect 163 0 164 0;
#X connect 163 1 154 1;
#X connect 164 0 154 0;
#X connect 165 0 166 1;
#X connect 165 0 164 1;
#X connect 166 0 90 0;
#X connect 167 0 8 0;
#X connect 168 0 116 0;
#X connect 169 0 31 0;
