#N struct 1087-draw-item float x float y float c float a float b;
#N struct 1088-rectangle float x float c;
#N struct 1088-pixel float x0 float y0 float x1 float y1;
#N canvas 2228 96 1088 1076 12;
#X obj 13 49 array define slice_points;
#X obj 260 998 dac~;
#X obj 13 130 fluid.dataset analysis;
#X obj 598 317 fluid.plotter;
#X obj 447 131 bng 15 250 50 0 empty empty empty 17 7 0 10 -262144
-1 -1;
#X obj 630 647 array set query;
#X obj 745 647 array define query 2;
#X msg 598 673 knearest query;
#X obj 598 621 t b l;
#X obj 603 730 route knearest;
#X obj 603 754 symbol;
#X obj 603 781 symbol2list;
#X text 688 782 Zexy;
#X obj 440 730 list prepend highlight;
#X obj 440 754 list trim;
#X msg 487 673 fit normalized;
#X obj 882 237 text define normalized-text;
#X msg 598 288 setpoints normalized-text;
#X obj 595 237 fluid.ds2text normalized normalized-text;
#N canvas 183 295 785 374 play_a_slice 0;
#X obj 415 96 t f f;
#X obj 447 211 -;
#X obj 415 238 pack;
#X floatatom 39 60 5 0 0 0 - - -;
#X obj 415 194 f;
#X obj 415 169 t f f;
#X obj 415 120 + 1;
#X obj 415 145 tabread slice_points;
#X obj 582 145 tabread slice_points;
#X text 79 60 PLAY THE SLICES;
#X obj 39 27 inlet;
#X obj 39 306 outlet~;
#X obj 39 97 t f f;
#X obj 188 149 tabread slice_points;
#X obj 39 149 tabread slice_points;
#X obj 39 180 -;
#X obj 39 123 + 1;
#X obj 39 203 pack;
#X msg 39 227 \$2 \$1;
#X text 417 70 From Flucoma help files (wrong);
#X obj 39 266 tabplay~ audio_corpus;
#X connect 0 0 6 0;
#X connect 0 1 8 0;
#X connect 1 0 2 1;
#X connect 3 0 12 0;
#X connect 4 0 2 0;
#X connect 5 0 4 0;
#X connect 5 1 1 0;
#X connect 6 0 7 0;
#X connect 7 0 5 0;
#X connect 8 0 1 1;
#X connect 8 0 4 1;
#X connect 10 0 3 0;
#X connect 12 0 16 0;
#X connect 12 1 13 0;
#X connect 13 0 15 1;
#X connect 13 0 17 1;
#X connect 14 0 15 0;
#X connect 15 0 17 0;
#X connect 16 0 14 0;
#X connect 17 0 18 0;
#X connect 18 0 20 0;
#X connect 20 0 11 0;
#X restore 260 938 pd play_a_slice;
#X obj 487 700 fluid.kdtree tree;
#X obj 447 212 t b b b b;
#X obj 595 260 fluid.ls2text labels labels-text;
#X obj 825 260 text define labels-text;
#X msg 789 288 setlabels labels-text;
#X floatatom 260 914 5 0 0 0 - - -;
#N canvas -1289 493 552 246 retrieve_mfcc 0;
#X obj 172 120 fluid.dataset analysis;
#X msg 172 93 getpoint \$1 retrieval;
#X obj 335 120 array define retrieval 30;
#X obj 30 59 t b f;
#X obj 30 121 array get retrieval;
#X obj 30 35 inlet;
#X obj 30 169 outlet;
#X connect 1 0 0 0;
#X connect 3 0 4 0;
#X connect 3 1 1 0;
#X connect 4 0 6 0;
#X connect 5 0 3 0;
#X restore 438 807 pd retrieve_mfcc;
#X obj 461 836 list prepend set;
#X obj 461 860 list trim;
#N canvas 696 164 842 826 reduce_normalize_cluster 1;
#X obj 17 12 inlet;
#X obj 20 440 fluid.normalize;
#X obj 258 440 fluid.dataset normalized;
#X msg 258 407 print;
#X obj 428 237 fluid.dataset reduced;
#X msg 233 208 print;
#X msg 15 208 fittransform analysis reduced;
#X msg 20 407 fittransform reduced normalized;
#X text 279 208 REDUCE THE NUMBER OF DIMENSIONS;
#X text 303 407 NORMALIZE;
#X obj 20 386 bng 15 250 50 0 empty empty empty 17 7 0 10 -262144 -1
-1;
#X obj 219 715 select fitpredict;
#X obj 219 692 symbol;
#X msg 26 640 clear \, fitpredict normalized labels;
#X text 327 640 CLUSTER THE POINTS FOR LABELLING;
#X obj 26 621 bng 15 250 50 0 empty empty empty 17 7 0 10 -262144 -1
-1;
#X obj 283 671 fluid.labelset labels;
#X obj 219 766 outlet;
#X obj 177 13 inlet;
#X msg 283 640 print;
#X obj 15 237 fluid.umap -numdimensions 2 -numneighbours 20 -mindist
0.2 -learnrate 0.1 -iterations 1000;
#X obj 26 664 fluid.kmeans -numclusters 13;
#X obj 428 132 loadbang;
#X msg 428 158 read mfcc_explorer_data/reduced.json;
#X obj 258 329 loadbang;
#X msg 258 355 read mfcc_explorer_data/normalized.json;
#X obj 283 557 loadbang;
#X msg 283 583 read mfcc_explorer_data/labels.json;
#X obj 116 529 loadbang;
#X msg 116 555 13;
#X obj 124 581 send numcluster;
#X msg 116 607 numclusters \$1;
#X connect 0 0 6 0;
#X connect 1 2 15 0;
#X connect 3 0 2 0;
#X connect 5 0 4 0;
#X connect 6 0 20 0;
#X connect 7 0 1 0;
#X connect 10 0 7 0;
#X connect 11 0 17 0;
#X connect 12 0 11 0;
#X connect 13 0 21 0;
#X connect 15 0 13 0;
#X connect 18 0 20 0;
#X connect 19 0 16 0;
#X connect 20 2 10 0;
#X connect 21 2 12 0;
#X connect 22 0 23 0;
#X connect 23 0 4 0;
#X connect 24 0 25 0;
#X connect 25 0 2 0;
#X connect 26 0 27 0;
#X connect 27 0 16 0;
#X connect 28 0 29 0;
#X connect 29 0 31 0;
#X connect 29 0 30 0;
#X connect 31 0 21 0;
#X restore 447 184 pd reduce_normalize_cluster;
#X text 644 184 MASSAGE THE DATASET;
#X msg 633 92 numneighbours \$1;
#X msg 633 114 mindist \$1;
#X msg 633 136 learnrate \$1;
#X text 631 40 UMAP PARAMETERS;
#X floatatom 633 66 5 0 0 0 - - -;
#X floatatom 674 66 5 0 0 0 - - -;
#X floatatom 716 66 5 0 0 0 - - -;
#X floatatom 757 66 5 0 0 0 - - -;
#X msg 633 158 iterations \$1;
#X obj 444 1039 outlet;
#X obj 305 6 inlet;
#X text 346 6 QUERY MFCC BASED ON X & Y POSITIONS;
#X msg 13 104 read mfcc_explorer_data/analysis.json;
#X obj 13 78 loadbang;
#X obj 440 398 spigot;
#X obj 479 372 tgl 15 0 empty empty empty 17 7 0 10 -262144 -1 -1 0
1;
#X text 495 370 Highlight;
#X obj 254 564 loadbang;
#X msg 254 590 read mfcc_explorer_data/tree.json;
#N canvas 2272 227 883 353 save_load_text 0;
#X obj 312 12 loadbang;
#X msg 12 184 write mfcc_explorer_data/slice_points.txt;
#X obj 539 125 text define slice_points_info;
#X msg 539 97 read -c mfcc_explorer_data/slice_points.txt;
#X obj 335 124 text size slice_points_info;
#X obj 335 150 array size slice_points;
#X obj 312 38 t b b b;
#X msg 312 184 read mfcc_explorer_data/slice_points.txt;
#X obj 312 308 outlet;
#X obj 377 13 bng 15 250 50 0 empty empty empty 17 7 0 10 -262144 -1
-1;
#X obj 12 12 inlet;
#X connect 0 0 6 0;
#X connect 1 0 8 0;
#X connect 3 0 2 0;
#X connect 4 0 5 0;
#X connect 6 0 7 0;
#X connect 6 1 4 0;
#X connect 6 2 3 0;
#X connect 7 0 8 0;
#X connect 9 0 6 0;
#X connect 10 0 1 0;
#X restore 13 22 pd save_load_text;
#X obj 879 66 loadbang;
#X obj 879 92 delay 5000;
#X obj 879 118 t b b b;
#X obj 603 836 fluid.labelset labels;
#X msg 603 806 getlabel \$1;
#X obj 635 868 route getlabel;
#X obj 635 894 symbol;
#X obj 361 1000 print;
#X obj 635 919 symbol2list;
#X text 720 920 Zexy;
#X floatatom 635 982 5 0 0 0 - - -;
#X msg 503 294 setpoints 0;
#N canvas 380 73 911 806 ids_from_labels 0;
#X obj 621 313 text get labels-text;
#X obj 595 14 receive numcluster;
#X obj 512 255 text size labels-text;
#X msg 512 222 bang;
#X obj 67 755 print;
#X obj 512 284 cyclone/uzi 10 0;
#X obj 621 339 list trim;
#X obj 621 365 unpack s s;
#X obj 621 401 symbol2list;
#X obj 704 401 symbol2list;
#X obj 621 433 pack f f;
#X msg 621 459 \$2 \$1;
#X obj 621 485 route 0 1 2 3 4 5 6 7 8 9 10 11 12;
#X msg 416 224 bang;
#X obj 416 105 t b b;
#X msg 416 74 bang;
#X text 453 73 Init;
#X obj 18 228 route 0 1 2 3 4 5 6 7 8 9 10 11 12;
#X floatatom 18 76 5 0 0 0 - - -;
#X obj 18 603 ids_list;
#X obj 18 755 outlet;
#X obj 82 603 ids_list;
#X obj 146 603 ids_list;
#X obj 210 603 ids_list;
#X obj 274 603 ids_list;
#X obj 338 603 ids_list;
#X obj 402 603 ids_list;
#X obj 466 603 ids_list;
#X obj 529 603 ids_list;
#X obj 593 603 ids_list;
#X obj 657 603 ids_list;
#X obj 721 603 ids_list;
#X obj 785 603 ids_list;
#X obj 416 16 inlet;
#X obj 18 20 inlet;
#X text 59 76 Get random id from label;
#X connect 0 0 6 0;
#X connect 2 0 5 0;
#X connect 3 0 2 0;
#X connect 5 2 0 0;
#X connect 6 0 7 0;
#X connect 7 0 8 0;
#X connect 7 1 9 0;
#X connect 8 0 10 0;
#X connect 9 0 10 1;
#X connect 10 0 11 0;
#X connect 11 0 12 0;
#X connect 12 0 19 2;
#X connect 12 1 21 2;
#X connect 12 2 22 2;
#X connect 12 3 23 2;
#X connect 12 4 24 2;
#X connect 12 5 25 2;
#X connect 12 6 26 2;
#X connect 12 7 27 2;
#X connect 12 8 28 2;
#X connect 12 9 29 2;
#X connect 12 10 30 2;
#X connect 12 11 31 2;
#X connect 12 12 32 2;
#X connect 13 0 19 1;
#X connect 13 0 21 1;
#X connect 13 0 22 1;
#X connect 13 0 23 1;
#X connect 13 0 24 1;
#X connect 13 0 25 1;
#X connect 13 0 26 1;
#X connect 13 0 27 1;
#X connect 13 0 28 1;
#X connect 13 0 29 1;
#X connect 13 0 30 1;
#X connect 13 0 31 1;
#X connect 13 0 32 1;
#X connect 14 0 13 0;
#X connect 14 1 3 0;
#X connect 15 0 14 0;
#X connect 17 0 19 0;
#X connect 17 1 21 0;
#X connect 17 2 22 0;
#X connect 17 3 23 0;
#X connect 17 4 24 0;
#X connect 17 5 25 0;
#X connect 17 6 26 0;
#X connect 17 7 27 0;
#X connect 17 8 28 0;
#X connect 17 9 29 0;
#X connect 17 10 30 0;
#X connect 17 11 31 0;
#X connect 17 12 32 0;
#X connect 18 0 17 0;
#X connect 19 0 20 0;
#X connect 21 0 20 0;
#X connect 22 0 20 0;
#X connect 23 0 20 0;
#X connect 24 0 20 0;
#X connect 25 0 20 0;
#X connect 26 0 20 0;
#X connect 27 0 20 0;
#X connect 28 0 20 0;
#X connect 29 0 20 0;
#X connect 30 0 20 0;
#X connect 31 0 20 0;
#X connect 32 0 20 0;
#X connect 33 0 15 0;
#X connect 34 0 18 0;
#X restore 444 971 pd ids_from_labels;
#X obj 625 6 inlet;
#X obj 444 944 float;
#X text 236 806 RETRIEVE MFCC VALUES FROM ID;
#X obj 635 1004 outlet;
#X text 681 1006 Label;
#X text 666 6 QUERY RDM MFCC BASED ON LABEL;
#N canvas 1275 384 421 374 retrieve_slice 0;
#X floatatom 39 60 5 0 0 0 - - -;
#X text 79 60 PLAY THE SLICES;
#X obj 39 27 inlet;
#X obj 39 97 t f f;
#X obj 188 149 tabread slice_points;
#X obj 39 149 tabread slice_points;
#X obj 39 180 -;
#X obj 39 123 + 1;
#X obj 39 203 pack;
#X msg 39 227 \$2 \$1;
#X obj 39 306 outlet;
#X text 89 225 Startframe Numframes;
#X connect 0 0 3 0;
#X connect 2 0 0 0;
#X connect 3 0 7 0;
#X connect 3 1 4 0;
#X connect 4 0 6 1;
#X connect 4 0 8 1;
#X connect 5 0 6 0;
#X connect 6 0 8 0;
#X connect 7 0 5 0;
#X connect 8 0 9 0;
#X connect 9 0 10 0;
#X restore 444 998 pd retrieve_slice;
#X text 493 1040 Startframe Numframes;
#X obj 457 887 t b f;
#X obj 457 912 spigot;
#X obj 370 850 tgl 15 0 empty empty empty 17 7 0 10 -262144 -1 -1 0
1;
#X obj 250 886 spigot;
#X obj 371 345 print;
#X connect 3 0 8 0;
#X connect 4 0 29 0;
#X connect 7 0 20 0;
#X connect 8 0 7 0;
#X connect 8 1 5 0;
#X connect 9 0 10 0;
#X connect 10 0 11 0;
#X connect 10 0 55 0;
#X connect 13 0 14 0;
#X connect 14 0 45 0;
#X connect 15 0 20 0;
#X connect 17 0 3 0;
#X connect 19 0 1 0;
#X connect 19 0 1 1;
#X connect 20 2 9 0;
#X connect 20 2 13 0;
#X connect 21 0 24 0;
#X connect 21 0 76 0;
#X connect 21 1 17 0;
#X connect 21 2 15 0;
#X connect 21 3 18 0;
#X connect 21 3 22 0;
#X connect 24 0 3 1;
#X connect 25 0 19 0;
#X connect 26 0 27 0;
#X connect 27 0 28 0;
#X connect 29 0 21 0;
#X connect 31 0 29 1;
#X connect 32 0 29 1;
#X connect 33 0 29 1;
#X connect 35 0 31 0;
#X connect 36 0 32 0;
#X connect 37 0 33 0;
#X connect 38 0 39 0;
#X connect 39 0 29 1;
#X connect 41 0 8 0;
#X connect 43 0 2 0;
#X connect 44 0 43 0;
#X connect 45 0 3 0;
#X connect 46 0 45 1;
#X connect 48 0 49 0;
#X connect 49 0 20 0;
#X connect 50 0 0 0;
#X connect 51 0 52 0;
#X connect 52 0 53 0;
#X connect 53 0 24 0;
#X connect 53 0 63 1;
#X connect 53 1 17 0;
#X connect 53 2 18 0;
#X connect 53 2 22 0;
#X connect 54 2 56 0;
#X connect 55 0 54 0;
#X connect 56 0 57 0;
#X connect 57 0 59 0;
#X connect 59 0 61 0;
#X connect 59 0 67 0;
#X connect 59 0 72 0;
#X connect 62 0 3 0;
#X connect 63 0 70 0;
#X connect 63 0 75 0;
#X connect 64 0 65 0;
#X connect 65 0 63 0;
#X connect 70 0 40 0;
#X connect 72 0 73 0;
#X connect 72 1 65 1;
#X connect 73 0 65 0;
#X connect 74 0 75 1;
#X connect 74 0 73 1;
#X connect 75 0 25 0;
