#N canvas 2422 96 1085 1011 12;
#X obj 353 183 cyclone/seq;
#X obj 147 187 textfile;
#X msg 147 134 bang;
#X msg 187 134 rewind;
#X obj 147 159 until;
#X obj 147 237 unpack f f f f;
#X obj 178 289 list store;
#X obj 147 213 t a a;
#X msg 353 134 write \$1.txt;
#X msg 241 134 read \$1.txt;
#X obj 178 262 sel 144 128;
#X msg 221 343 1e+15;
#X msg 340 343 -1;
#X obj 178 312 t l b;
#X obj 32 434 cyclone/uzi 0 0;
#X obj 134 486 cyclone/zl group 8;
#X obj 134 545 expr $f5 - $f1;
#X msg 389 544 \$3;
#X msg 289 545 \$1;
#X obj 134 512 t l l l;
#X obj 528 550 - 1;
#X msg 528 597 \$1;
#X obj 389 588 mtof;
#X obj 134 782 float;
#X obj 134 755 cyclone/uzi 0 0;
#X text 388 610 Freq;
#X text 288 611 Start sample;
#X obj 271 782 + 0;
#X text 268 803 Index;
#X text 132 804 Value;
#X floatatom 597 458 5 0 0 0 - - -;
#X obj 9 31 symbol;
#X msg 537 134 clear;
#X msg 585 133 0;
#X obj 9 82 t b b b s s s b b;
#X obj 597 410 loadbang;
#X obj 9 7 inlet;
#X obj 9 398 t b f f;
#X obj 9 936 outlet;
#X text 7 958 Done;
#X text 638 459 f0 sample rate;
#X obj 528 933 outlet;
#X text 527 955 Score length in ms;
#X obj 134 590 mstosamps;
#X obj 289 589 mstosamps;
#X obj 537 622 mstosamps;
#N canvas 657 237 370 323 synth 0;
#X obj 234 124 / 127;
#X obj 219 204 *~;
#X obj 81 134 phasor~;
#X obj 81 102 mtof;
#X obj 81 31 inlet;
#X obj 219 273 outlet~;
#X obj 81 70 unpack float float;
#X obj 234 174 vline~;
#X msg 234 149 \$1 50;
#X obj 81 162 cyclone/triangle~ 0.9;
#X obj 219 236 /~ 3;
#X connect 0 0 8 0;
#X connect 1 0 10 0;
#X connect 2 0 9 0;
#X connect 3 0 2 0;
#X connect 4 0 6 0;
#X connect 6 0 3 0;
#X connect 6 1 0 0;
#X connect 7 0 1 1;
#X connect 8 0 7 0;
#X connect 9 0 1 0;
#X connect 10 0 5 0;
#X restore 430 288 pd synth;
#X obj 430 260 cyclone/midiparse;
#X obj 430 232 cyclone/midiflush;
#X obj 430 342 dac~;
#X obj 26 341 bng 15 250 50 0 empty empty empty 17 7 0 10 -262144 -1
-1;
#X text 133 611 Length;
#X floatatom 243 682 5 0 0 0 - - -;
#X obj 243 636 cnv 15 100 20 empty empty empty 20 12 0 14 -4032 -66577
0;
#X obj 134 730 cyclone/round 1 @nearest 1;
#X text 259 636 Density;
#X obj 429 207 bng 15 250 50 0 empty \$1_play_midi_score Play_midi_score
17 7 0 10 -262144 -1 -1;
#X obj 430 312 *~ 0.25;
#X obj 134 705 expr ($f1 * $f2);
#X msg 449 134 read \$1.mid;
#N canvas 597 256 263 397 remove_file_extension 0;
#X obj 31 100 list fromsymbol;
#X obj 31 225 list tosymbol;
#X obj 112 152 list length;
#X obj 31 127 t l l;
#X obj 112 176 - 4;
#X obj 31 199 list split 1;
#X obj 31 25 inlet;
#X obj 31 321 outlet;
#X connect 0 0 3 0;
#X connect 1 0 7 0;
#X connect 2 0 4 0;
#X connect 3 0 5 0;
#X connect 3 1 2 0;
#X connect 4 0 5 1;
#X connect 5 0 1 0;
#X connect 6 0 0 0;
#X restore 9 56 pd remove_file_extension;
#X obj 656 770 print;
#X obj 134 856 array define array_score_\$0;
#X obj 134 829 tabwrite array_score_\$0;
#X obj 585 159 array size array_score_\$0;
#X obj 537 658 array size array_score_\$0;
#X obj 522 368 text define text_score_\$0;
#X obj 340 368 text delete text_score_\$0;
#X obj 178 368 text set text_score_\$0;
#X obj 9 368 text size text_score_\$0;
#X obj 134 459 text get text_score_\$0;
#X obj 528 573 text get text_score_\$0;
#X obj 9 900 array get array_score_\$0;
#X obj 700 623 bng 15 250 50 0 empty empty empty 17 7 0 10 -262144
-1 -1;
#X obj 541 204 cnv 15 100 20 empty empty empty 20 12 0 14 -4032 -66577
0;
#X obj 243 657 r \$1_sld_density_snd;
#X msg 597 435 250;
#X connect 0 0 48 0;
#X connect 1 0 7 0;
#X connect 1 1 4 1;
#X connect 2 0 4 0;
#X connect 3 0 1 0;
#X connect 4 0 1 0;
#X connect 5 1 10 0;
#X connect 6 0 13 0;
#X connect 7 0 5 0;
#X connect 7 1 6 1;
#X connect 8 0 0 0;
#X connect 9 0 1 0;
#X connect 10 0 6 0;
#X connect 10 1 6 0;
#X connect 11 0 68 1;
#X connect 12 0 67 0;
#X connect 13 0 68 0;
#X connect 13 1 11 0;
#X connect 14 2 70 0;
#X connect 15 0 19 0;
#X connect 16 0 43 0;
#X connect 17 0 22 0;
#X connect 18 0 44 0;
#X connect 19 0 16 0;
#X connect 19 1 18 0;
#X connect 19 2 17 0;
#X connect 20 0 71 0;
#X connect 21 0 41 0;
#X connect 21 0 45 0;
#X connect 22 0 23 1;
#X connect 23 0 63 0;
#X connect 24 0 23 0;
#X connect 24 2 27 0;
#X connect 27 0 63 1;
#X connect 30 0 43 1;
#X connect 30 0 44 1;
#X connect 30 0 45 1;
#X connect 31 0 60 0;
#X connect 32 0 0 0;
#X connect 32 0 1 0;
#X connect 33 0 64 0;
#X connect 34 0 69 0;
#X connect 34 1 2 0;
#X connect 34 2 3 0;
#X connect 34 3 9 0;
#X connect 34 4 8 0;
#X connect 34 5 59 0;
#X connect 34 6 12 0;
#X connect 34 6 32 0;
#X connect 34 7 33 0;
#X connect 35 0 76 0;
#X connect 36 0 31 0;
#X connect 37 0 72 0;
#X connect 37 1 14 0;
#X connect 37 2 20 0;
#X connect 43 0 58 0;
#X connect 44 0 27 1;
#X connect 45 0 65 0;
#X connect 46 0 57 0;
#X connect 47 0 46 0;
#X connect 48 0 47 0;
#X connect 50 0 69 0;
#X connect 52 0 58 1;
#X connect 54 0 24 0;
#X connect 56 0 0 0;
#X connect 57 0 49 0;
#X connect 57 0 49 1;
#X connect 58 0 54 0;
#X connect 59 0 0 0;
#X connect 60 0 34 0;
#X connect 69 0 37 0;
#X connect 70 0 15 0;
#X connect 71 0 21 0;
#X connect 72 0 38 0;
#X connect 73 0 65 0;
#X connect 75 0 52 0;
#X connect 76 0 30 0;
