#N canvas 1179 328 546 639 10;
#X msg 119 104 read -resize \$1 audio_output;
#X obj 119 129 soundfiler;
#X obj 196 129 array define audio_output;
#X obj 119 426 phasor~;
#X floatatom 119 369 5 0 0 0 - - -;
#X obj 119 393 sig~ 1;
#X msg 169 393 0;
#X msg 119 201 bang;
#X obj 119 281 / 16000;
#X obj 119 338 expr 1 / $f1;
#X obj 119 306 t f b;
#X obj 119 451 *~ 200000;
#X obj 119 250 t f f;
#X text 177 282 Audio file sample rate;
#X obj 392 414 snapshot~;
#X obj 392 389 metro 5;
#X obj 392 339 loadbang;
#X msg 392 364 1;
#X obj 392 488 sel 1;
#X obj 392 463 change;
#X msg 169 370 0;
#X obj 119 225 array size audio_output;
#X obj 118 485 tabread4~ audio_output;
#X obj 392 438 >= 0.98;
#X obj 130 178 bng 15 250 50 0 empty play_DDSP_voice Play_DDSP_voice
17 7 0 10 -262144 -1 -1;
#X obj 117 578 dac~;
#X obj 392 574 stdout;
#X obj 449 488 sel 1;
#X obj 449 463 change;
#X obj 449 438 <= 0.02;
#X msg 392 511 end;
#X msg 449 511 start;
#X obj 13 17 r read_sf_subprocess;
#X obj 386 280 print;
#X obj 399 195 loadbang;
#X msg 399 218 \; pd dsp 1;
#X obj 119 76 symbol;
#X obj 13 40 route play stop filepath sample_rate volume;
#X obj 118 508 *~ 1;
#X connect 0 0 1 0;
#X connect 1 0 7 0;
#X connect 3 0 11 0;
#X connect 3 0 14 0;
#X connect 4 0 5 0;
#X connect 5 0 3 0;
#X connect 6 0 3 1;
#X connect 7 0 21 0;
#X connect 8 0 10 0;
#X connect 9 0 4 0;
#X connect 10 0 9 0;
#X connect 10 1 6 0;
#X connect 11 0 22 0;
#X connect 12 0 8 0;
#X connect 12 1 11 1;
#X connect 14 0 23 0;
#X connect 14 0 29 0;
#X connect 15 0 14 0;
#X connect 16 0 17 0;
#X connect 17 0 15 0;
#X connect 18 0 20 0;
#X connect 18 0 30 0;
#X connect 19 0 18 0;
#X connect 20 0 5 0;
#X connect 21 0 12 0;
#X connect 22 0 38 0;
#X connect 23 0 19 0;
#X connect 24 0 7 0;
#X connect 27 0 31 0;
#X connect 28 0 27 0;
#X connect 29 0 28 0;
#X connect 30 0 26 0;
#X connect 31 0 26 0;
#X connect 32 0 37 0;
#X connect 34 0 35 0;
#X connect 36 0 0 0;
#X connect 37 0 7 0;
#X connect 37 1 20 0;
#X connect 37 2 36 0;
#X connect 37 3 8 1;
#X connect 37 4 38 1;
#X connect 38 0 25 0;
#X connect 38 0 25 1;
