#N canvas 113 87 794 963 12;
#X obj 10 851 loadbang;
#X obj 10 927 loadbang;
#X obj 10 550 loadbang;
#X obj 10 629 loadbang;
#X obj 10 8 loadbang;
#X obj 10 86 loadbang;
#X obj 9 1002 loadbang;
#X obj 10 703 loadbang;
#X obj 10 164 loadbang;
#X obj 10 777 loadbang;
#X obj 10 473 loadbang;
#X obj 10 396 loadbang;
#X msg 10 802 1;
#X msg 10 421 1;
#X msg 10 498 1;
#X msg 10 33 1;
#X obj 10 58 s \$1_sld_pitch_scaler_rcv;
#X obj 10 136 s \$1_sld_ld_scaler_rcv;
#X obj 10 214 s \$1_sld_silence_rcv;
#X obj 10 446 s \$1_sld_mfcc_xtr_rcv;
#X obj 10 523 s \$1_sld_loudness_xtr_rcv;
#X obj 10 600 s \$1_sld_tone_rcv;
#X obj 10 679 s \$1_sld_noise_rcv;
#X obj 10 753 s \$1_toggle_primer_rcv;
#X obj 10 827 s \$1_sld_melody_xtr_rcv;
#X obj 10 901 s \$1_sld_tempo_rcv;
#X obj 10 977 s \$1_sld_density_rcv;
#X obj 9 1052 s \$1_sld_temperature_rcv;
#X obj 10 242 loadbang;
#X obj 10 292 s \$1_sld_volume_rcv;
#X msg 10 189 0;
#X msg 10 267 0.8;
#X msg 10 575 0.437;
#X msg 10 654 0.432;
#X msg 10 728 0;
#X msg 10 952 0;
#X msg 9 1027 1.39;
#X msg 10 111 -25;
#X msg 10 876 1.5;
#X obj 10 319 loadbang;
#X msg 10 344 0;
#X obj 10 369 s \$1_toggle_trigger_rcv;
#X connect 0 0 38 0;
#X connect 1 0 35 0;
#X connect 2 0 32 0;
#X connect 3 0 33 0;
#X connect 4 0 15 0;
#X connect 5 0 37 0;
#X connect 6 0 36 0;
#X connect 7 0 34 0;
#X connect 8 0 30 0;
#X connect 9 0 12 0;
#X connect 10 0 14 0;
#X connect 11 0 13 0;
#X connect 12 0 24 0;
#X connect 13 0 19 0;
#X connect 14 0 20 0;
#X connect 15 0 16 0;
#X connect 28 0 31 0;
#X connect 30 0 18 0;
#X connect 31 0 29 0;
#X connect 32 0 21 0;
#X connect 33 0 22 0;
#X connect 34 0 23 0;
#X connect 35 0 26 0;
#X connect 36 0 27 0;
#X connect 37 0 17 0;
#X connect 38 0 25 0;
#X connect 39 0 40 0;
#X connect 40 0 41 0;
