#N canvas 960 69 960 1011 12;
#X floatatom 246 127 5 0 0 0 - - -;
#X obj 74 388 spigot;
#X obj 75 254 *~ 0;
#X obj 74 311 t l l;
#X msg 113 339 \$2;
#X floatatom 152 338 5 0 0 0 - - -;
#X text 193 338 Pitch confidence threshold;
#X obj 219 555 timer;
#X obj 74 490 change;
#X obj 409 309 t b b;
#X obj 149 555 float;
#X msg 149 580 128 \$1 0;
#X obj 74 612 list prepend;
#X floatatom 290 153 5 0 0 0 - - -;
#X text 287 127 Audio gate volume threshold;
#X text 331 153 Delay time before closing the audio gate;
#N canvas 856 266 971 664 audio_gate 0;
#X obj 89 145 env~;
#X obj 89 229 sel 1;
#X floatatom 170 145 5 0 0 0 - - -;
#X msg 89 313 1;
#X msg 159 260 bang;
#X msg 159 313 0;
#X msg 119 260 stop;
#X floatatom 89 359 5 0 0 0 - - -;
#X obj 89 206 change;
#X obj 89 383 change;
#X floatatom 219 261 5 0 0 0 - - -;
#X text 211 145 Audio gate volume threshold;
#X text 260 261 Delay time before closing the audio gate;
#X obj 88 80 inlet~;
#X obj 89 454 outlet;
#X obj 170 80 inlet;
#X obj 219 80 inlet;
#X obj 89 181 > 70;
#X obj 159 287 delay 250;
#X connect 0 0 17 0;
#X connect 1 0 3 0;
#X connect 1 0 6 0;
#X connect 1 1 4 0;
#X connect 2 0 17 1;
#X connect 3 0 7 0;
#X connect 4 0 18 0;
#X connect 5 0 7 0;
#X connect 6 0 18 0;
#X connect 7 0 9 0;
#X connect 8 0 1 0;
#X connect 9 0 14 0;
#X connect 10 0 18 1;
#X connect 13 0 0 0;
#X connect 15 0 2 0;
#X connect 16 0 10 0;
#X connect 17 0 8 0;
#X connect 18 0 5 0;
#X restore 202 177 pd audio_gate;
#X obj 202 208 tgl 15 0 empty empty empty 17 7 0 10 -262144 -1 -1 0
1;
#X obj 409 281 sel 1;
#X obj 219 580 int;
#X msg 74 580 144 \$1 90;
#X obj 74 427 + 0.4999;
#X obj 74 452 int;
#X obj 74 515 t f b b;
#X obj 453 309 t b b b;
#X obj 74 740 textfile;
#X msg 195 677 clear;
#X obj 74 677 list prepend add;
#X obj 74 702 list trim;
#X obj 113 362 > 0.5;
#X obj 473 645 cyclone/seq;
#X obj 453 448 t b b b b;
#X obj 137 394 tgl 15 0 empty empty empty 17 7 0 10 -262144 -1 -1 0
1;
#X obj 76 103 *~ 0;
#X obj 76 30 inlet~;
#X obj 246 31 inlet;
#X obj 290 31 inlet;
#X obj 334 31 inlet;
#X obj 453 793 outlet;
#X text 459 816 Done;
#X obj 379 31 inlet;
#X obj 324 793 outlet;
#X obj 202 793 outlet;
#X text 126 814 Audio gate status;
#X text 269 815 Pitch confidence status;
#X obj 74 281 fluid.pitch~ -minfreq 80 -maxfreq 8000 -unit 1;
#X msg 453 736 /media/gabriel/Extra/SYNTHETIC/melody_generator/generated/voice_primer.mid
;
#X msg 513 474 write /media/gabriel/Extra/SYNTHETIC/melody_generator/generated/voice_primer.txt
;
#X msg 493 531 read /media/gabriel/Extra/SYNTHETIC/melody_generator/generated/voice_primer.txt
;
#X msg 473 588 write /media/gabriel/Extra/SYNTHETIC/melody_generator/generated/voice_primer.mid
;
#X obj 379 58 tgl 15 0 empty empty empty 17 7 0 10 -262144 -1 -1 0
1;
#X text 396 56 On/Off;
#X connect 0 0 16 1;
#X connect 1 0 21 0;
#X connect 2 0 45 0;
#X connect 3 0 1 0;
#X connect 3 1 4 0;
#X connect 4 0 29 0;
#X connect 5 0 29 1;
#X connect 7 0 19 0;
#X connect 8 0 23 0;
#X connect 9 0 7 0;
#X connect 9 1 26 0;
#X connect 10 0 11 0;
#X connect 11 0 12 0;
#X connect 12 0 27 0;
#X connect 13 0 16 2;
#X connect 16 0 2 1;
#X connect 16 0 17 0;
#X connect 16 0 18 0;
#X connect 16 0 42 0;
#X connect 18 0 9 0;
#X connect 18 1 24 0;
#X connect 19 0 12 1;
#X connect 20 0 12 0;
#X connect 21 0 22 0;
#X connect 22 0 8 0;
#X connect 23 0 20 0;
#X connect 23 0 10 1;
#X connect 23 1 10 0;
#X connect 23 2 7 1;
#X connect 24 0 31 0;
#X connect 24 1 10 0;
#X connect 24 2 7 1;
#X connect 26 0 25 0;
#X connect 27 0 28 0;
#X connect 28 0 25 0;
#X connect 29 0 1 1;
#X connect 29 0 32 0;
#X connect 31 0 46 0;
#X connect 31 1 49 0;
#X connect 31 2 48 0;
#X connect 31 3 47 0;
#X connect 32 0 41 0;
#X connect 33 0 16 0;
#X connect 33 0 2 0;
#X connect 34 0 33 0;
#X connect 35 0 0 0;
#X connect 36 0 13 0;
#X connect 37 0 5 0;
#X connect 40 0 50 0;
#X connect 45 0 3 0;
#X connect 46 0 38 0;
#X connect 47 0 25 0;
#X connect 48 0 30 0;
#X connect 49 0 30 0;
#X connect 50 0 33 1;
