#N canvas 330 87 1393 993 12;
#N canvas 2590 122 1244 1011 array2midi 0;
#X obj 32 25 inlet;
#X obj 52 514 cyclone/seq;
#X obj 32 316 t b b b b;
#X obj 32 930 outlet;
#X text 38 952 Done;
#N canvas 647 229 370 323 synth 0;
#X obj 234 124 / 127;
#X obj 219 204 *~;
#X obj 81 134 phasor~;
#X obj 81 102 mtof;
#X obj 81 31 inlet;
#X obj 219 273 outlet~;
#X obj 81 70 unpack float float;
#X obj 234 174 vline~;
#X obj 81 162 cyclone/triangle~ 0.9;
#X obj 219 236 /~ 3;
#X msg 234 149 \$1 10;
#X connect 0 0 10 0;
#X connect 1 0 9 0;
#X connect 2 0 8 0;
#X connect 3 0 2 0;
#X connect 4 0 6 0;
#X connect 6 0 3 0;
#X connect 6 1 0 0;
#X connect 7 0 1 1;
#X connect 8 0 1 0;
#X connect 9 0 5 0;
#X connect 10 0 7 0;
#X restore 101 653 pd synth;
#X obj 101 625 cyclone/midiparse;
#X obj 101 597 cyclone/midiflush;
#X obj 100 748 dac~;
#X obj 193 656 tgl 15 0 empty empty empty 17 7 0 10 -262144 -1 -1 0
1;
#X obj 41 296 bng 15 250 50 0 empty empty empty 17 7 0 10 -262144 -1
-1;
#X obj 540 566 array quantile pitch_offline-0;
#X msg 540 536 0.5;
#X obj 540 358 - 0;
#X obj 540 223 t f f;
#X floatatom 540 200 5 0 0 0 - - -;
#X obj 540 304 + 1;
#X obj 540 328 tabread bufamp_slices;
#X obj 696 328 tabread bufamp_slices;
#X floatatom 696 423 8 0 0 0 - - -;
#X text 755 425 Slice start;
#X text 599 424 Slice length;
#X obj 540 508 t b f;
#X obj 540 645 array get pitch_offline-0;
#X floatatom 540 727 5 0 0 0 - - -;
#X obj 714 254 array size pitch_offline-0;
#X msg 714 199 bang;
#X obj 714 224 t b b;
#X obj 714 285 / 1;
#X obj 696 448 * 1;
#X obj 696 473 int;
#X floatatom 540 422 8 0 0 0 - - -;
#X obj 540 448 * 1;
#X obj 540 473 int;
#X obj 540 595 + 1;
#X obj 431 173 cyclone/uzi 10 0;
#X floatatom 540 620 5 0 0 0 - - -;
#X text 579 620 Index;
#X obj 696 384 t f f;
#X obj 540 383 t f f;
#X obj 936 646 cyclone/sampstoms~;
#X floatatom 1059 698 5 0 0 0 - - -;
#X text 1098 700 Slice start (ms);
#X obj 758 645 cyclone/sampstoms~;
#X floatatom 881 697 5 0 0 0 - - -;
#X text 920 699 Slice length (ms);
#X obj 1059 672 int;
#X obj 881 671 int;
#X text 580 726 Value (midi);
#X obj 732 796 pack f f;
#X msg 732 822 \$2 144 \$1 90;
#X obj 828 796 pack f f;
#X msg 828 822 \$2 144 \$1 0;
#X text 919 822 Time \, ? \, Note \, Velocity;
#X obj 540 697 t f f;
#X obj 881 763 + 0;
#X obj 732 930 textfile;
#X msg 853 867 clear;
#X obj 732 867 list prepend add;
#X obj 732 892 list trim;
#X obj 431 133 t f b b;
#X floatatom 431 92 5 0 0 0 - - -;
#X obj 32 69 t b f;
#X obj 904 253 array size analysis_buffer;
#X obj 881 729 expr if($f1 < 100 \, $f1 \, $f1 - 100);
#X msg 92 400 write ../melody_generator/generated/voice_primer.txt
;
#X msg 72 429 read ../melody_generator/generated/voice_primer.txt;
#X msg 52 457 write ../melody_generator/generated/voice_primer.mid
;
#X msg 32 873 ./generated/voice_primer.mid;
#X obj 101 704 *~ 1;
#X obj 101 678 *~ 0.25;
#X obj 102 571 bng 15 250 50 0 empty play_primer_midi Play_primer_midi
17 7 0 10 -262144 -1 -1;
#X text 240 873 Path relative to the melody generator script;
#X msg 64 155 \$1;
#X obj 64 130 route add;
#X obj 32 179 float;
#X obj 32 204 > 250;
#X obj 32 229 sel 1;
#X obj 540 671 cyclone/clip 0 127;
#X connect 0 0 62 0;
#X connect 1 0 7 0;
#X connect 2 0 68 0;
#X connect 2 1 67 0;
#X connect 2 2 66 0;
#X connect 2 3 65 0;
#X connect 5 0 70 0;
#X connect 6 0 5 0;
#X connect 7 0 6 0;
#X connect 9 0 69 1;
#X connect 10 0 2 0;
#X connect 11 0 34 0;
#X connect 12 0 11 0;
#X connect 13 0 39 0;
#X connect 14 0 16 0;
#X connect 14 1 18 0;
#X connect 15 0 14 0;
#X connect 16 0 17 0;
#X connect 17 0 13 0;
#X connect 18 0 13 1;
#X connect 18 0 38 0;
#X connect 22 0 12 0;
#X connect 22 1 11 2;
#X connect 23 0 78 0;
#X connect 25 0 28 0;
#X connect 26 0 27 0;
#X connect 27 0 25 0;
#X connect 27 1 63 0;
#X connect 28 0 29 1;
#X connect 28 0 32 1;
#X connect 29 0 30 0;
#X connect 30 0 11 1;
#X connect 30 0 34 1;
#X connect 32 0 33 0;
#X connect 33 0 22 0;
#X connect 34 0 23 0;
#X connect 34 0 36 0;
#X connect 35 2 14 0;
#X connect 38 0 29 0;
#X connect 38 0 19 0;
#X connect 38 1 40 0;
#X connect 39 0 32 0;
#X connect 39 0 31 0;
#X connect 39 1 43 0;
#X connect 40 1 46 0;
#X connect 43 1 47 0;
#X connect 46 0 41 0;
#X connect 46 0 49 1;
#X connect 46 0 55 1;
#X connect 47 0 44 0;
#X connect 47 0 64 0;
#X connect 49 0 50 0;
#X connect 50 0 58 0;
#X connect 51 0 52 0;
#X connect 52 0 58 0;
#X connect 54 0 51 0;
#X connect 54 1 49 0;
#X connect 55 0 51 1;
#X connect 57 0 56 0;
#X connect 58 0 59 0;
#X connect 59 0 56 0;
#X connect 59 0 74 0;
#X connect 60 0 35 0;
#X connect 60 1 26 0;
#X connect 60 2 57 0;
#X connect 61 0 60 0;
#X connect 62 0 75 0;
#X connect 62 1 60 0;
#X connect 63 0 28 1;
#X connect 64 0 55 0;
#X connect 65 0 56 0;
#X connect 66 0 1 0;
#X connect 67 0 1 0;
#X connect 68 0 3 0;
#X connect 69 0 8 0;
#X connect 69 0 8 1;
#X connect 70 0 69 0;
#X connect 71 0 1 0;
#X connect 73 0 75 1;
#X connect 74 0 73 0;
#X connect 75 0 76 0;
#X connect 76 0 77 0;
#X connect 77 0 2 0;
#X connect 78 0 54 0;
#X connect 78 0 24 0;
#X restore 22 914 pd array2midi;
#N canvas 1116 651 352 201 voice_analysis_buffers 0;
#N canvas 0 50 450 250 (subpatch) 0;
#X array pitch_offline-0 65 float 2;
#X coords 0 127 65 0 300 25 1 0 0;
#X restore 15 27 graph;
#N canvas 0 50 450 250 (subpatch) 0;
#X array pitch_offline-1 65 float 2;
#X coords 0 1 65 0 300 25 1 0 0;
#X restore 15 72 graph;
#N canvas 0 50 450 250 (subpatch) 0;
#X array bufamp_slices 5 float 2;
#X coords 0 48000 5 0 300 25 1 0 0;
#X restore 15 128 graph;
#X restore 253 530 pd voice_analysis_buffers;
#X obj 22 943 outlet;
#X text 28 964 Done;
#X obj 22 836 cyclone/counter;
#X obj 22 861 sel 1;
#X msg 62 506 bang;
#X msg 22 645 bang;
#X floatatom 80 791 5 0 0 0 - - -;
#X text 117 791 number of slices found;
#X obj 22 740 array size bufamp_slices;
#X msg 42 573 bang;
#X obj 22 790 t b f;
#X obj 22 886 float;
#X obj 117 914 cnv 20 100 20 empty empty Array_to_MIDI 20 12 0 14 -260097
-66577 0;
#X obj 22 480 t b b b b;
#X msg 22 268 bang;
#X obj 22 293 random 0;
#X obj 22 67 inlet;
#X obj 229 64 inlet;
#X text 271 65 How many files to go back to (0-1);
#X obj 197 168 t f b;
#X obj 197 219 * 1;
#X obj 197 244 int;
#X obj 22 409 soundfiler;
#X obj 138 410 array define analysis_buffer;
#X msg 22 384 read -resize recorded/\$1.wav analysis_buffer;
#X msg 22 434 bang;
#X msg 62 530 \; analysis_buffer normalize;
#X obj 42 597 fluid.bufpitch -source analysis_buffer -features pitch_offline
-minfreq 20 -maxfreq 48000 -sr 48000 -fftsettings 4192 -algorithm 2
-unit 1, f 76;
#X obj 400 447 dac~;
#X obj 400 396 tabplay~ analysis_buffer;
#X obj 197 143 float;
#X obj 22 318 expr $f2 - $f1;
#X obj 229 244 - 1;
#X obj 22 12 loadbang;
#X obj 400 374 bng 15 250 50 0 empty play_analysis_buffer Play_analysis_buffer
17 7 0 10 -262144 -1 -1;
#X obj 400 421 *~ 0.1;
#X obj 22 37 t b 1 b;
#X obj 22 92 t b b b;
#X obj 803 663 list length;
#X floatatom 31 346 5 0 0 0 - - -;
#X obj 939 521 print;
#X obj 637 340 list fromsymbol;
#X obj 637 317 symbol;
#X obj 637 463 list tosymbol;
#X obj 637 294 list split 1;
#X obj 718 390 list length;
#X obj 637 365 t l l;
#X obj 637 488 symbol2list;
#X obj 637 544 list append;
#X obj 724 544 list;
#X msg 711 516 bang;
#X obj 614 219 t b s b;
#X obj 614 572 list;
#X obj 614 597 t l l;
#X msg 614 194 symbol ./recorded/*.wav;
#X obj 637 243 hcs/folder_list;
#X obj 637 267 hcs/split_path;
#X obj 718 414 - 4;
#X obj 637 437 list split 1;
#X obj 614 663 array set recorded_files\$0;
#X obj 803 712 array define recorded_files\$0;
#X obj 803 688 array size recorded_files\$0;
#X obj 229 193 array size recorded_files\$0;
#X msg 571 111 slowrampup \$1;
#X msg 676 111 slowrampdown \$1;
#X msg 794 111 fastrampup \$1;
#X msg 899 111 fastrampdown \$1;
#X msg 1018 111 onthreshold \$1;
#X msg 1129 111 offthreshold \$1;
#X msg 1246 111 minslicelength \$1;
#X floatatom 571 80 5 0 0 0 - - -;
#X floatatom 676 78 5 0 0 0 - - -;
#X floatatom 794 80 5 0 0 0 - - -;
#X floatatom 899 81 5 0 0 0 - - -;
#X floatatom 1018 81 5 0 0 0 - - -;
#X floatatom 1129 82 5 0 0 0 - - -;
#X floatatom 1246 82 5 0 0 0 - - -;
#X floatatom 1248 150 5 0 0 0 - - -;
#X msg 1248 179 highpassfreq \$1;
#X floatatom 1250 214 5 0 0 0 - - -;
#X msg 1250 243 floor \$1;
#X obj 22 669 fluid.bufampslice -source analysis_buffer -indices bufamp_slices
-slowrampup 4410 -slowrampdown 4410 -onthreshold 10 -offthreshold 5
-fastrampup 10 -fastrampdown 2205 -minslicelength 4410 -highpassfreq
20 -floor -60;
#X connect 0 0 2 0;
#X connect 4 0 5 0;
#X connect 5 0 13 0;
#X connect 6 0 28 0;
#X connect 7 0 83 0;
#X connect 10 0 12 0;
#X connect 10 0 8 0;
#X connect 11 0 29 0;
#X connect 12 0 4 0;
#X connect 12 1 13 1;
#X connect 13 0 0 0;
#X connect 15 0 7 0;
#X connect 15 1 11 0;
#X connect 15 2 6 0;
#X connect 15 3 4 2;
#X connect 16 0 17 0;
#X connect 17 0 33 0;
#X connect 18 0 39 0;
#X connect 19 0 32 1;
#X connect 21 0 22 0;
#X connect 21 1 64 0;
#X connect 22 0 23 0;
#X connect 23 0 17 1;
#X connect 24 0 27 0;
#X connect 26 0 24 0;
#X connect 27 0 15 0;
#X connect 29 0 4 0;
#X connect 31 0 37 0;
#X connect 32 0 21 0;
#X connect 33 0 26 0;
#X connect 33 0 41 0;
#X connect 34 0 33 1;
#X connect 35 0 38 0;
#X connect 36 0 31 0;
#X connect 37 0 30 1;
#X connect 37 0 30 0;
#X connect 38 0 39 0;
#X connect 38 1 32 1;
#X connect 38 2 56 0;
#X connect 39 0 16 0;
#X connect 39 1 32 0;
#X connect 39 2 56 0;
#X connect 40 0 63 0;
#X connect 43 0 48 0;
#X connect 44 0 43 0;
#X connect 45 0 49 0;
#X connect 46 0 44 0;
#X connect 47 0 59 0;
#X connect 48 0 60 0;
#X connect 48 1 47 0;
#X connect 49 0 50 0;
#X connect 50 0 51 0;
#X connect 50 0 54 1;
#X connect 51 0 50 1;
#X connect 52 0 50 1;
#X connect 53 0 54 0;
#X connect 53 1 57 0;
#X connect 53 2 52 0;
#X connect 54 0 55 0;
#X connect 55 0 61 0;
#X connect 55 1 40 0;
#X connect 56 0 53 0;
#X connect 57 0 58 0;
#X connect 58 1 46 0;
#X connect 59 0 60 1;
#X connect 60 0 45 0;
#X connect 64 0 22 1;
#X connect 64 0 34 0;
#X connect 65 0 83 0;
#X connect 66 0 83 0;
#X connect 67 0 83 0;
#X connect 68 0 83 0;
#X connect 69 0 83 0;
#X connect 70 0 83 0;
#X connect 71 0 83 0;
#X connect 72 0 65 0;
#X connect 73 0 66 0;
#X connect 74 0 67 0;
#X connect 75 0 68 0;
#X connect 76 0 69 0;
#X connect 77 0 70 0;
#X connect 78 0 71 0;
#X connect 79 0 80 0;
#X connect 80 0 83 0;
#X connect 81 0 82 0;
#X connect 82 0 83 0;
#X connect 83 0 10 0;
