#N canvas 960 96 960 1011 12;
#X floatatom 214 74 5 0 0 0 - - -;
#X floatatom 258 100 5 0 0 0 - - -;
#X text 255 74 Audio gate volume threshold;
#X text 299 103 Delay time before closing the audio gate;
#N canvas 1108 381 517 441 audio_gate 0;
#X obj 31 129 env~;
#X obj 31 213 sel 1;
#X floatatom 112 129 5 0 0 0 - - -;
#X msg 31 297 1;
#X msg 101 244 bang;
#X msg 101 297 0;
#X msg 61 244 stop;
#X floatatom 31 343 5 0 0 0 - - -;
#X obj 31 190 change;
#X obj 31 367 change;
#X floatatom 168 245 5 0 0 0 - - -;
#X text 153 129 Audio gate volume threshold;
#X text 209 245 Delay time before closing the audio gate;
#X obj 30 21 inlet~;
#X obj 31 395 outlet;
#X obj 112 21 inlet;
#X obj 168 21 inlet;
#X obj 112 54 * 100;
#X obj 31 165 > 70;
#X obj 30 54 hip~ 100;
#X obj 31 93 lop~ 300;
#X obj 101 271 delay 1000;
#X connect 0 0 18 0;
#X connect 1 0 3 0;
#X connect 1 0 6 0;
#X connect 1 1 4 0;
#X connect 2 0 18 1;
#X connect 3 0 7 0;
#X connect 4 0 21 0;
#X connect 5 0 7 0;
#X connect 6 0 21 0;
#X connect 7 0 9 0;
#X connect 8 0 1 0;
#X connect 9 0 14 0;
#X connect 10 0 21 1;
#X connect 13 0 19 0;
#X connect 15 0 17 0;
#X connect 16 0 10 0;
#X connect 17 0 2 0;
#X connect 18 0 8 0;
#X connect 19 0 20 0;
#X connect 20 0 0 0;
#X connect 21 0 5 0;
#X restore 170 124 pd audio_gate;
#X obj 170 150 tgl 15 0 empty empty empty 17 7 0 10 -262144 -1 -1 0
1;
#X obj 41 62 *~ 0;
#X obj 41 12 inlet~;
#X obj 214 13 inlet;
#X obj 258 13 inlet;
#X obj 303 13 inlet;
#X obj 303 36 tgl 15 0 empty empty empty 17 7 0 10 -262144 -1 -1 1
1;
#X text 320 34 On/Off;
#N canvas 0 50 450 250 (subpatch) 0;
#X array record_buffer 83776 float 2;
#X coords 0 1 83776 -1 350 50 1 0 0;
#X restore 39 446 graph;
#X msg 40 381 bang;
#X msg 78 381 stop;
#X obj 40 407 tabwrite~ record_buffer;
#X obj 210 382 mstosamps;
#X msg 187 214 1;
#X msg 32 214 0;
#X obj 210 312 timer;
#X msg 210 286 bang;
#X msg 250 286 bang;
#X obj 210 407 array size record_buffer;
#X obj 187 239 t b b b;
#X obj 32 239 t b b b;
#X obj 32 172 sel 0;
#X obj 399 476 dac~;
#X obj 270 334 loadbang;
#X obj 399 452 tabplay~ record_buffer;
#X obj 170 847 outlet;
#X text 169 868 Audio gate status;
#X msg 270 358 48000;
#X msg 292 286 10000;
#X obj 32 715 soundfiler;
#X obj 355 686 list fromsymbol;
#X obj 355 663 symbol;
#X obj 355 809 list tosymbol;
#X obj 355 640 list split 1;
#X obj 436 736 list length;
#X obj 355 711 t l l;
#X obj 355 834 symbol2list;
#X msg 32 690 write -wave recorded/\$1 record_buffer;
#X floatatom 32 665 5 0 0 0 - - -;
#X obj 355 890 list append;
#X obj 442 890 list;
#X msg 429 862 bang;
#X obj 332 565 t b s b;
#X obj 332 918 list;
#X obj 522 969 list length;
#X obj 332 943 t l l;
#X msg 32 587 bang;
#X obj 32 638 + 1;
#X obj 332 515 loadbang;
#X obj 32 505 t b b;
#X msg 32 825 bang;
#X obj 32 850 outlet;
#X text 19 871 New file recorded;
#X obj 399 432 bng 15 250 50 0 empty play_record_buffer Play_record_buffer
17 7 0 10 -262144 -1 -1;
#X obj 553 725 print;
#X msg 332 540 symbol ./recorded/*.wav;
#X obj 355 589 hcs/folder_list;
#X obj 355 613 hcs/split_path;
#X obj 436 760 - 4;
#X obj 355 783 list split 1;
#X obj 398 515 bng 15 250 50 0 empty empty empty 17 7 0 10 -262144
-1 -1;
#X obj 522 1018 array define recorded_files\$0;
#X obj 522 994 array size recorded_files\$0;
#X obj 332 970 array set recorded_files\$0;
#X obj 32 613 array max recorded_files\$0;
#X obj 18 144 tgl 15 0 empty empty empty 17 7 0 10 -262144 -1 -1 0
1;
#X obj 787 625 env~;
#N canvas 2554 351 664 495 process_rms 0;
#X obj 119 93 / 100;
#X obj 119 137 * 100;
#X obj 119 160 int;
#X obj 119 183 / 100;
#X obj 119 114 + 0.004;
#X obj 119 32 inlet;
#X obj 48 296 outlet;
#X obj 48 244 change;
#X obj 48 114 loadbang;
#X msg 48 137 1;
#X obj 48 218 float;
#X obj 48 160 metro 50;
#X connect 0 0 4 0;
#X connect 1 0 2 0;
#X connect 2 0 3 0;
#X connect 3 0 10 1;
#X connect 4 0 1 0;
#X connect 5 0 0 0;
#X connect 7 0 6 0;
#X connect 8 0 9 0;
#X connect 9 0 11 0;
#X connect 10 0 7 0;
#X connect 11 0 10 0;
#X restore 787 648 pd process_rms;
#X obj 787 730 spigot;
#X obj 826 675 sel 1;
#X obj 868 675 sel 0;
#X msg 826 700 1;
#X obj 787 755 float;
#X obj 868 700 t 0 0;
#X obj 787 873 outlet;
#X text 783 897 Input rms;
#X connect 0 0 4 1;
#X connect 1 0 4 2;
#X connect 4 0 5 0;
#X connect 4 0 26 0;
#X connect 4 0 30 0;
#X connect 4 0 74 0;
#X connect 4 0 75 0;
#X connect 6 0 4 0;
#X connect 6 0 16 0;
#X connect 6 0 71 0;
#X connect 7 0 6 0;
#X connect 8 0 0 0;
#X connect 9 0 1 0;
#X connect 10 0 11 0;
#X connect 11 0 6 1;
#X connect 14 0 16 0;
#X connect 15 0 16 0;
#X connect 17 0 23 0;
#X connect 18 0 24 0;
#X connect 19 0 25 0;
#X connect 20 0 17 0;
#X connect 21 0 20 0;
#X connect 22 0 20 1;
#X connect 24 0 14 0;
#X connect 24 1 21 0;
#X connect 24 2 33 0;
#X connect 25 0 54 0;
#X connect 25 1 22 0;
#X connect 25 2 15 0;
#X connect 26 0 19 0;
#X connect 26 1 18 0;
#X connect 28 0 32 0;
#X connect 29 0 27 0;
#X connect 29 0 27 1;
#X connect 32 0 17 1;
#X connect 33 0 17 0;
#X connect 34 0 55 0;
#X connect 35 0 40 0;
#X connect 36 0 35 0;
#X connect 37 0 41 0;
#X connect 38 0 36 0;
#X connect 39 0 63 0;
#X connect 40 0 64 0;
#X connect 40 1 39 0;
#X connect 41 0 44 0;
#X connect 42 0 34 0;
#X connect 43 0 42 0;
#X connect 44 0 45 0;
#X connect 44 0 48 1;
#X connect 45 0 44 1;
#X connect 46 0 44 1;
#X connect 47 0 48 0;
#X connect 47 1 61 0;
#X connect 47 2 46 0;
#X connect 48 0 50 0;
#X connect 49 0 67 0;
#X connect 50 0 68 0;
#X connect 50 1 49 0;
#X connect 51 0 69 0;
#X connect 52 0 43 0;
#X connect 53 0 60 0;
#X connect 54 0 51 0;
#X connect 54 1 60 0;
#X connect 55 0 56 0;
#X connect 58 0 29 0;
#X connect 60 0 47 0;
#X connect 61 0 62 0;
#X connect 62 1 38 0;
#X connect 63 0 64 1;
#X connect 64 0 37 0;
#X connect 65 0 60 0;
#X connect 69 0 52 0;
#X connect 70 0 26 0;
#X connect 71 0 72 0;
#X connect 72 0 73 0;
#X connect 73 0 77 0;
#X connect 74 0 76 0;
#X connect 75 0 78 0;
#X connect 76 0 73 1;
#X connect 77 0 79 0;
#X connect 78 0 77 0;
#X connect 78 1 73 1;
