#N struct 1012-draw-item float x float y float c float a float b;
#N struct 1013-rectangle float x float c;
#N struct 1013-pixel float x0 float y0 float x1 float y1;
#N canvas 2870 96 960 1104 12;
#X obj 927 49 cnv 15 300 600 empty empty TO_VOICE_GENERATOR 20 12 0
14 -261682 -66577 0;
#X obj 17 906 bng 15 250 50 0 \$1_play_midi_score empty Play_midi_score
17 7 0 10 -262144 -1 -1;
#X obj 17 926 bng 15 250 50 0 \$1_play_dataset_audio empty Play_dataset_audio
17 7 0 10 -262144 -1 -1;
#X obj 17 946 bng 15 250 50 0 \$1_play_user_audio empty Play_user_audio
17 7 0 10 -262144 -1 -1;
#X obj 17 966 bng 15 250 50 0 \$1_play_DDSP_voice empty Play_DDSP_voice
17 7 0 10 -262144 -1 -1;
#X obj 19 747 hsl 200 15 0.1 4 0 0 \$1_sld_tempo_snd \$1_sld_tempo_rcv
<-fast---------TEMPO--------slow-> -2 -8 0 10 -262144 -1 -1 7144 1
;
#X floatatom 16 767 5 0 0 0 - - -;
#X obj 19 804 hsl 200 15 0 10 0 0 \$1_sld_density_snd \$1_sld_density_rcv
<-scarse------DENSITY------dense-> -2 -8 0 10 -262144 -1 -1 5970 1
;
#X floatatom 16 824 5 0 0 0 - - -;
#X obj 21 457 hsl 200 15 0 1 0 0 \$1_sld_tone_snd \$1_sld_tone_rcv
<-high---------TONE----------low-> -2 -8 0 10 -262144 -1 -1 10686 1
;
#X floatatom 18 477 5 0 0 0 - - -;
#X obj 21 515 hsl 200 15 0 1 0 0 \$1_sld_noise_snd \$1_sld_noise_rcv
<-more---------NOISE--------less-> -2 -8 0 10 -262144 -1 -1 10686 1
;
#X floatatom 18 535 5 0 0 0 - - -;
#X obj 21 51 hsl 200 15 0.0625 4 0 0 \$1_sld_pitch_scaler_snd \$1_sld_pitch_scaler_rcv
<-low------PITCH-SCALER-----high-> -2 -8 0 10 -262144 -1 -1 4738 1
;
#X floatatom 18 71 6 0 0 0 - - -;
#X obj 21 108 hsl 200 15 -72 24 0 0 \$1_sld_ld_scaler_snd \$1_sld_ld_scaler_rcv
<-low--------LD-SCALER------high-> -2 -8 0 10 -262144 -1 -1 7048 1
;
#X floatatom 18 128 6 0 0 0 - - -;
#X obj 19 862 hsl 200 15 0.1 3 0 0 \$1_sld_temperature_snd \$1_sld_temperature_rcv
<-low-------TEMPERATURE-----high-> -2 -8 0 10 -262144 -1 -1 6176 1
;
#X floatatom 16 882 6 0 0 0 - - -;
#X obj 18 597 tgl 15 0 \$1_toggle_primer_snd \$1_toggle_primer_rcv
MELODY:_Invent/imitate 17 7 0 10 -262144 -1 -1 1 1;
#X obj 21 166 hsl 200 15 0 1 0 0 \$1_sld_silence_snd \$1_sld_silence_rcv
<-non-stop------SILENCE-----stop-> -2 -8 0 10 -262144 -1 -1 19900 1
;
#X floatatom 18 186 6 0 0 0 - - -;
#X obj 20 633 hsl 200 15 0 1 0 0 \$1_sld_primer_scaler_snd \$1_sld_primer_scaler_rcv
<-none------PRIMER_SCALER----all-> -2 -8 0 10 -262144 -1 -1 19900 1
;
#X floatatom 17 653 6 0 0 0 - - -;
#X obj 21 399 hsl 200 15 0 1 0 0 \$1_sld_loudness_xtr_snd \$1_sld_loudness_xtr_rcv
<-imitate-LOUDNESS-XTRPOL-invent-> -2 -8 0 10 -262144 -1 -1 0 1;
#X floatatom 18 419 6 0 0 0 - - -;
#X obj 21 342 hsl 200 15 0 1 0 0 \$1_sld_mfcc_xtr_snd \$1_sld_mfcc_xtr_rcv
<-imitate---MFCC-XTRPOL---invent-> -2 -8 0 10 -262144 -1 -1 0 1;
#X floatatom 18 362 6 0 0 0 - - -;
#X text 17 570 MELODY-----------------------;
#X text 16 304 TIMBRE-----------------------;
#X text 17 10 GENERAL----------------------;
#X obj 291 49 cnv 15 330 600 empty empty TO_MELODY_GENERATOR 20 12
0 14 -261682 -66577 0;
#X obj 278 180 bng 15 250 50 0 empty empty Predict 17 7 0 10 -262144
-1 -1;
#X floatatom 337 410 5 0 0 0 - - -;
#X floatatom 337 434 5 0 0 0 - - -;
#X text 378 410 Number of MIDI files to generate;
#X text 378 458 Melody temperature;
#X floatatom 337 458 5 0 0 0 - - -;
#X text 378 482 Melody primer MIDI (filepath);
#X text 378 435 Number of steps;
#X msg 337 482 none;
#X obj 337 206 cnv 15 100 20 empty empty empty 20 12 0 14 -4032 -66577
0;
#X text 343 206 Melody temperature;
#X floatatom 337 507 5 0.1 1 1 Primer_steps_scaler - -;
#X floatatom 337 531 5 0 1 1 Num_steps_scaler - -;
#X msg 337 384 ../melody_generator/generated;
#X obj 359 554 tgl 15 0 empty \$1_toggle_primer_snd PRIMER:End_of_last(OFF)/User(ON)
17 7 0 10 -262144 -1 -1 1 1;
#X obj 337 250 cnv 15 100 20 empty empty Primer_scaler 20 12 0 14 -4032
-66577 0;
#N canvas 2106 616 1734 291 osc_format 0;
#X obj 11 197 list trim;
#X obj 11 222 packOSC;
#X obj 153 123 list prepend /output_dir;
#X obj 330 123 list prepend /num_outputs;
#X obj 514 123 list prepend /num_steps;
#X obj 684 123 list prepend /temperature;
#X obj 866 123 list prepend /primer_midi;
#X obj 330 44 int;
#X obj 514 44 int;
#X obj 11 18 inlet;
#X obj 153 18 inlet;
#X obj 330 18 inlet;
#X obj 514 20 inlet;
#X obj 684 20 inlet;
#X obj 866 20 inlet;
#X obj 11 247 outlet;
#X obj 1049 20 inlet;
#X obj 1288 20 inlet;
#X obj 1049 123 list prepend /primer_steps_scaler;
#X obj 1288 123 list prepend /num_steps_scaler;
#X obj 1508 20 inlet;
#X obj 1508 123 list prepend /primer_toggle;
#X msg 11 123 /predict \$1;
#X obj 1631 20 loadbang;
#X obj 1631 43 symbol \$1;
#X obj 174 255 print;
#X obj 1508 90 list prepend voice;
#X obj 1288 91 list prepend voice;
#X obj 1049 93 list prepend voice;
#X obj 866 94 list prepend voice;
#X obj 684 94 list prepend voice;
#X obj 514 95 list prepend voice;
#X obj 330 97 list prepend voice;
#X obj 153 98 list prepend voice;
#X obj 11 98 list prepend voice;
#X connect 0 0 1 0;
#X connect 1 0 15 0;
#X connect 2 0 0 0;
#X connect 3 0 0 0;
#X connect 4 0 0 0;
#X connect 5 0 0 0;
#X connect 6 0 0 0;
#X connect 7 0 32 0;
#X connect 8 0 31 0;
#X connect 9 0 34 0;
#X connect 10 0 33 0;
#X connect 11 0 7 0;
#X connect 12 0 8 0;
#X connect 13 0 30 0;
#X connect 14 0 29 0;
#X connect 16 0 28 0;
#X connect 17 0 27 0;
#X connect 18 0 0 0;
#X connect 19 0 0 0;
#X connect 20 0 26 0;
#X connect 21 0 0 0;
#X connect 22 0 0 0;
#X connect 23 0 24 0;
#X connect 24 0 26 1;
#X connect 24 0 27 1;
#X connect 24 0 28 1;
#X connect 24 0 29 1;
#X connect 24 0 30 1;
#X connect 24 0 31 1;
#X connect 24 0 32 1;
#X connect 24 0 33 1;
#X connect 24 0 34 1;
#X connect 26 0 21 0;
#X connect 27 0 19 0;
#X connect 28 0 18 0;
#X connect 29 0 6 0;
#X connect 30 0 5 0;
#X connect 31 0 4 0;
#X connect 32 0 3 0;
#X connect 33 0 2 0;
#X connect 34 0 22 0;
#X restore 278 585 pd osc_format;
#X obj 278 664 outlet;
#X text 326 664 TO MELODY GENERATOR;
#X obj 337 227 r \$1_sld_temperature_snd;
#X obj 624 49 cnv 15 300 360 empty empty FROM_MELODY_GENERATOR 20 12
0 14 -261682 -66577 0;
#X obj 646 14 inlet;
#X obj 646 122 route \$1;
#X obj 678 346 bng 15 250 50 0 empty empty Buffers_filled 17 7 0 10
-262144 -1 -1;
#N canvas 1048 416 497 274 ddsp_buffers 0;
#X obj 143 207 array define \$1_audio_source;
#X obj 143 182 array define \$1_phoneme;
#X obj 143 102 array define \$1_pitch-0;
#X obj 143 131 array define \$1_pitch-1;
#X obj 8 8 array define \$1_user-loudness-0;
#X obj 8 37 array define \$1_user-loudness-1;
#X obj 234 8 array define \$1_dataset-loudness-0;
#X obj 234 37 array define \$1_dataset-loudness-1;
#N canvas 1445 360 475 615 mfcc 0;
#X obj 15 7 array define \$1_user-mfcc-0;
#X obj 15 67 array define \$1_user-mfcc-3;
#X obj 15 47 array define \$1_user-mfcc-2;
#X obj 15 27 array define \$1_user-mfcc-1;
#X obj 15 87 array define \$1_user-mfcc-4;
#X obj 15 107 array define \$1_user-mfcc-5;
#X obj 15 127 array define \$1_user-mfcc-6;
#X obj 15 147 array define \$1_user-mfcc-7;
#X obj 15 167 array define \$1_user-mfcc-8;
#X obj 15 187 array define \$1_user-mfcc-9;
#X obj 15 207 array define \$1_user-mfcc-10;
#X obj 15 227 array define \$1_user-mfcc-11;
#X obj 15 247 array define \$1_user-mfcc-12;
#X obj 15 267 array define \$1_user-mfcc-13;
#X obj 15 287 array define \$1_user-mfcc-14;
#X obj 15 307 array define \$1_user-mfcc-15;
#X obj 15 327 array define \$1_user-mfcc-16;
#X obj 15 347 array define \$1_user-mfcc-17;
#X obj 15 367 array define \$1_user-mfcc-18;
#X obj 15 387 array define \$1_user-mfcc-19;
#X obj 15 407 array define \$1_user-mfcc-20;
#X obj 15 427 array define \$1_user-mfcc-21;
#X obj 15 447 array define \$1_user-mfcc-22;
#X obj 15 467 array define \$1_user-mfcc-23;
#X obj 15 487 array define \$1_user-mfcc-24;
#X obj 15 507 array define \$1_user-mfcc-25;
#X obj 15 527 array define \$1_user-mfcc-26;
#X obj 15 547 array define \$1_user-mfcc-27;
#X obj 15 567 array define \$1_user-mfcc-28;
#X obj 15 587 array define \$1_user-mfcc-29;
#X obj 226 7 array define \$1_dataset-mfcc-0;
#X obj 226 27 array define \$1_dataset-mfcc-1;
#X obj 226 47 array define \$1_dataset-mfcc-2;
#X obj 226 67 array define \$1_dataset-mfcc-3;
#X obj 226 87 array define \$1_dataset-mfcc-4;
#X obj 226 107 array define \$1_dataset-mfcc-5;
#X obj 226 127 array define \$1_dataset-mfcc-6;
#X obj 226 147 array define \$1_dataset-mfcc-7;
#X obj 226 167 array define \$1_dataset-mfcc-8;
#X obj 226 187 array define \$1_dataset-mfcc-9;
#X obj 226 207 array define \$1_dataset-mfcc-10;
#X obj 226 227 array define \$1_dataset-mfcc-11;
#X obj 226 247 array define \$1_dataset-mfcc-12;
#X obj 226 267 array define \$1_dataset-mfcc-13;
#X obj 226 287 array define \$1_dataset-mfcc-14;
#X obj 226 307 array define \$1_dataset-mfcc-15;
#X obj 226 327 array define \$1_dataset-mfcc-16;
#X obj 226 347 array define \$1_dataset-mfcc-17;
#X obj 226 367 array define \$1_dataset-mfcc-18;
#X obj 226 387 array define \$1_dataset-mfcc-19;
#X obj 226 407 array define \$1_dataset-mfcc-20;
#X obj 226 427 array define \$1_dataset-mfcc-21;
#X obj 226 447 array define \$1_dataset-mfcc-22;
#X obj 226 467 array define \$1_dataset-mfcc-23;
#X obj 226 487 array define \$1_dataset-mfcc-24;
#X obj 226 507 array define \$1_dataset-mfcc-25;
#X obj 226 527 array define \$1_dataset-mfcc-26;
#X obj 226 547 array define \$1_dataset-mfcc-27;
#X obj 226 567 array define \$1_dataset-mfcc-28;
#X obj 226 587 array define \$1_dataset-mfcc-29;
#X restore 205 67 pd mfcc;
#X restore 678 366 pd ddsp_buffers;
#X obj 646 152 midi2array \$1;
#X obj 646 186 generate_buffer_content_v2 \$1;
#X obj 646 320 t b b;
#X obj 953 499 symbol \$1;
#X obj 953 164 cnv 15 100 20 empty empty Loudness_scaler 20 12 0 14
-4032 -66577 0;
#X obj 953 81 cnv 15 100 20 empty empty Pitch_scaler 20 12 0 14 -4032
-66577 0;
#X obj 953 333 cnv 15 100 20 empty empty Loudness_extrapolate 20 12
0 14 -4032 -66577 0;
#X obj 953 248 cnv 15 100 20 empty empty MFCC_extrapolate 20 12 0 14
-4032 -66577 0;
#X obj 953 269 r \$1_sld_mfcc_xtr_snd;
#X obj 953 353 r \$1_sld_loudness_xtr_snd;
#X obj 953 101 r \$1_sld_pitch_scaler_snd;
#X obj 953 184 r \$1_sld_ld_scaler_snd;
#X obj 953 209 list prepend /loudness_scaler \$1;
#X obj 953 127 list prepend /pitch_scaler \$1;
#X obj 953 381 list prepend /loudness_extrapolate \$1;
#X obj 953 297 list prepend /mfcc_extrapolate \$1;
#X text 951 448 Voice generator parameters;
#N canvas 960 96 960 1104 send_audio_features 0;
#X obj 1440 1614 print;
#X msg 1256 164 \; \$1_pitch-0 write audio_features/\$1_f0.txt;
#X obj 1691 211 array size audio_source;
#X obj 1691 287 list prepend /num_samples;
#N canvas 977 298 450 523 uzi_dataset_mfccs 0;
#X msg 78 169 30;
#X obj 53 63 bng 15 250 50 0 empty empty empty 17 7 0 10 -262144 -1
-1;
#X obj 53 86 t b b;
#X obj 78 146 loadbang;
#X obj 53 29 inlet;
#X obj 53 111 cyclone/uzi 30 0;
#X obj 53 193 cyclone/counter;
#X obj 270 30 inlet;
#X obj 53 280 pack f s;
#X msg 53 306 \$2 \$1;
#X obj 53 330 unpack s f;
#X obj 53 400 pack s f;
#X obj 53 424 outlet;
#X connect 0 0 6 1;
#X connect 1 0 2 0;
#X connect 2 0 5 0;
#X connect 2 1 6 2;
#X connect 3 0 0 0;
#X connect 4 0 1 0;
#X connect 5 0 6 0;
#X connect 6 0 8 0;
#X connect 7 0 8 1;
#X connect 8 0 9 0;
#X connect 9 0 10 0;
#X connect 10 0 11 0;
#X connect 10 1 11 1;
#X connect 11 0 12 0;
#X restore 220 143 pd uzi_dataset_mfccs;
#X obj 8 8 inlet;
#X obj 8 684 outlet;
#X text 13 704 Done;
#X obj 1691 151 t b s s;
#X obj 1691 236 list prepend voice;
#X msg 1714 178 symbol \$1_audio_source;
#X obj 8 40 t s s s s s s s s s;
#X msg 266 192 \; \$1_dataset-mfcc-\$2 write audio_features/\$1_dataset_mfcc-\$2.txt
;
#X obj 9 346 list prepend /predict;
#X msg 1210 207 ../main/audio_features/\$1_f0.txt;
#X obj 1210 231 list prepend voice;
#X obj 1210 273 list prepend /f0;
#X obj 1210 136 t s s s;
#X obj 1212 399 list prepend voice;
#X obj 1212 304 t s s s;
#X msg 1258 332 \; \$1_pitch-1 write audio_features/\$1_f0_confidence.txt
;
#X msg 1212 375 ../main/audio_features/\$1_f0_confidence.txt;
#X obj 1212 441 list prepend /f0_confidence;
#X obj 1212 564 list prepend voice;
#X obj 1212 469 t s s s;
#X msg 1258 497 \; \$1_phoneme write audio_features/\$1_phonemes.txt
;
#X msg 1212 540 ../main/audio_features/\$1_phonemes.txt;
#X obj 1212 606 list prepend /phonemes;
#X obj 717 240 list prepend voice;
#X obj 717 132 t s s s;
#X msg 763 160 \; \$1_dataset-loudness-0 write audio_features/\$1_dataset_loudness.txt
;
#X msg 717 216 ../main/audio_features/\$1_dataset_loudness.txt;
#X obj 717 269 list prepend /dataset_loudness;
#X obj 717 406 list prepend voice;
#X obj 717 298 t s s s;
#X msg 763 326 \; \$1_user-loudness-0 write audio_features/\$1_user_loudness.txt
;
#X msg 717 382 ../main/audio_features/\$1_user_loudness.txt;
#X obj 717 435 list prepend /user_loudness;
#X obj 220 112 t b s s;
#X obj 220 313 list prepend voice;
#X msg 220 289 ../main/audio_features/\$1_dataset_mfcc-\$2.txt;
#X obj 220 345 list prepend /dataset_mfcc-0;
#X obj 220 167 t l l l;
#X msg 243 256 /dataset_mfcc-\$2;
#X obj 220 375 t b s s;
#X obj 220 576 list prepend voice;
#X obj 220 430 t l l l;
#N canvas 977 298 450 523 uzi_user_mfccs 0;
#X msg 78 169 30;
#X obj 53 63 bng 15 250 50 0 empty empty empty 17 7 0 10 -262144 -1
-1;
#X obj 53 86 t b b;
#X obj 78 146 loadbang;
#X obj 53 29 inlet;
#X obj 53 111 cyclone/uzi 30 0;
#X obj 53 193 cyclone/counter;
#X obj 270 30 inlet;
#X obj 53 280 pack f s;
#X msg 53 306 \$2 \$1;
#X obj 53 330 unpack s f;
#X obj 53 400 pack s f;
#X obj 53 424 outlet;
#X connect 0 0 6 1;
#X connect 1 0 2 0;
#X connect 2 0 5 0;
#X connect 2 1 6 2;
#X connect 3 0 0 0;
#X connect 4 0 1 0;
#X connect 5 0 6 0;
#X connect 6 0 8 0;
#X connect 7 0 8 1;
#X connect 8 0 9 0;
#X connect 9 0 10 0;
#X connect 10 0 11 0;
#X connect 10 1 11 1;
#X connect 11 0 12 0;
#X restore 220 406 pd uzi_user_mfccs;
#X msg 266 455 \; \$1_user-mfcc-\$2 write audio_features/\$1_user_mfcc-\$2.txt
;
#X msg 243 519 /user_mfcc-\$2;
#X msg 220 552 ../main/audio_features/\$1_user_mfcc-\$2.txt;
#X obj 220 608 list prepend /user_mfcc-0;
#N canvas 0 96 450 300 archive 0;
#X obj 1240 342 list prepend /f0;
#X obj 1042 342 list prepend /f0_confidence;
#X obj 881 342 list prepend /phonemes;
#X obj 1387 253 array size audio_source;
#X obj 1387 342 list prepend /num_samples;
#X obj 881 254 array get phoneme;
#X obj 1042 253 array get pitch-1;
#X obj 1240 253 array get pitch-0;
#X obj 663 342 list prepend /dataset_loudness;
#X obj 465 342 list prepend /user_loudness;
#N canvas 2602 439 450 523 uzi_dataset_mfccs 0;
#X msg 78 169 30;
#X obj 53 63 bng 15 250 50 0 empty empty empty 17 7 0 10 -262144 -1
-1;
#X obj 53 86 t b b;
#X obj 78 146 loadbang;
#X obj 53 231 t b f f;
#X obj 53 29 inlet;
#X obj 53 380 outlet;
#X obj 107 380 outlet;
#X obj 162 380 outlet;
#X obj 53 111 cyclone/uzi 30 0;
#X obj 53 193 cyclone/counter;
#X msg 162 332 /dataset_mfcc-\$1;
#X obj 270 30 inlet;
#X obj 76 260 pack f s;
#X msg 107 296 symbol \$2_dataset-mfcc-\$1;
#X connect 0 0 10 1;
#X connect 1 0 2 0;
#X connect 2 0 9 0;
#X connect 2 1 10 2;
#X connect 3 0 0 0;
#X connect 4 0 6 0;
#X connect 4 1 13 0;
#X connect 4 2 11 0;
#X connect 5 0 1 0;
#X connect 9 0 10 0;
#X connect 10 0 4 0;
#X connect 11 0 8 0;
#X connect 12 0 13 1;
#X connect 13 0 14 0;
#X connect 14 0 7 0;
#X restore 258 221 pd uzi_dataset_mfccs;
#X obj 258 252 array get dataset-mfcc-0;
#N canvas 3096 450 450 523 uzi_user_mfccs 0;
#X msg 78 172 30;
#X obj 53 63 bng 15 250 50 0 empty empty empty 17 7 0 10 -262144 -1
-1;
#X obj 53 86 t b b;
#X obj 78 149 loadbang;
#X obj 53 231 t b f f;
#X obj 53 29 inlet;
#X obj 53 378 outlet;
#X obj 107 378 outlet;
#X obj 162 378 outlet;
#X obj 53 111 cyclone/uzi 30 0;
#X obj 53 196 cyclone/counter;
#X msg 162 330 /user_mfcc-\$1;
#X obj 270 30 inlet;
#X obj 76 260 pack f s;
#X msg 107 294 symbol \$2_user-mfcc-\$1;
#X connect 0 0 10 1;
#X connect 1 0 2 0;
#X connect 2 0 9 0;
#X connect 2 1 10 2;
#X connect 3 0 0 0;
#X connect 4 0 6 0;
#X connect 4 1 13 0;
#X connect 4 2 11 0;
#X connect 5 0 1 0;
#X connect 9 0 10 0;
#X connect 10 0 4 0;
#X connect 11 0 8 0;
#X connect 12 0 13 1;
#X connect 13 0 14 0;
#X connect 14 0 7 0;
#X restore 54 221 pd uzi_user_mfccs;
#X obj 54 252 array get user-mfcc-0;
#X obj 465 252 array get user-loudness-0;
#X obj 663 252 array get dataset-loudness-0;
#X obj 258 342 list prepend /dataset_mfcc-0;
#X obj 54 342 list prepend /user_mfcc-0;
#X obj 138 12 loadbang;
#N canvas 2828 249 543 449 delayed_trigers 0;
#X obj 6 8 inlet;
#X obj 362 122 del 0;
#X obj 312 145 del 0;
#X obj 262 174 del 0;
#X obj 212 204 del 0;
#X obj 162 233 del 0;
#X obj 112 263 del 0;
#X obj 62 293 del 0;
#X floatatom 394 96 5 0 0 0 - - -;
#X obj 394 46 loadbang;
#X msg 394 71 20;
#X obj 62 394 outlet;
#X obj 112 394 outlet;
#X obj 162 394 outlet;
#X obj 212 394 outlet;
#X obj 262 394 outlet;
#X obj 312 394 outlet;
#X obj 362 394 outlet;
#X obj 443 80 del 0;
#X obj 443 394 outlet;
#X obj 395 9 inlet;
#X obj 13 322 del 0;
#X obj 13 394 outlet;
#X obj 6 33 t b s;
#X obj 443 364 list;
#X obj 362 364 list;
#X obj 312 364 list;
#X obj 262 364 list;
#X obj 212 364 list;
#X obj 162 364 list;
#X obj 112 364 list;
#X obj 62 364 list;
#X obj 13 364 list;
#X connect 0 0 23 0;
#X connect 1 0 2 0;
#X connect 1 0 25 0;
#X connect 2 0 3 0;
#X connect 2 0 26 0;
#X connect 3 0 4 0;
#X connect 3 0 27 0;
#X connect 4 0 5 0;
#X connect 4 0 28 0;
#X connect 5 0 6 0;
#X connect 5 0 29 0;
#X connect 6 0 7 0;
#X connect 6 0 30 0;
#X connect 7 0 21 0;
#X connect 7 0 31 0;
#X connect 8 0 7 1;
#X connect 8 0 6 1;
#X connect 8 0 5 1;
#X connect 8 0 4 1;
#X connect 8 0 3 1;
#X connect 8 0 2 1;
#X connect 8 0 1 1;
#X connect 8 0 21 1;
#X connect 9 0 10 0;
#X connect 10 0 8 0;
#X connect 18 0 1 0;
#X connect 18 0 24 0;
#X connect 20 0 8 0;
#X connect 21 0 32 0;
#X connect 23 0 18 0;
#X connect 23 1 24 1;
#X connect 23 1 25 1;
#X connect 23 1 26 1;
#X connect 23 1 27 1;
#X connect 23 1 28 1;
#X connect 23 1 29 1;
#X connect 23 1 30 1;
#X connect 23 1 31 1;
#X connect 23 1 32 1;
#X connect 24 0 19 0;
#X connect 25 0 17 0;
#X connect 26 0 16 0;
#X connect 27 0 15 0;
#X connect 28 0 14 0;
#X connect 29 0 13 0;
#X connect 30 0 12 0;
#X connect 31 0 11 0;
#X connect 32 0 22 0;
#X restore 15 72 pd delayed_trigers;
#X text 20 447 Done;
#X text 170 36 Millisencondes between bangs;
#X obj 1387 193 t b s s;
#X obj 1387 278 list prepend voice;
#X msg 1410 220 symbol \$1_audio_source;
#X obj 1240 278 list prepend voice;
#X obj 1042 280 list prepend voice;
#X obj 881 280 list prepend voice;
#X obj 663 278 list prepend voice;
#X obj 465 278 list prepend voice;
#X obj 1240 194 t b s s;
#X obj 1042 193 t b s s;
#X obj 881 193 t b s s;
#X obj 663 194 t b s s;
#X obj 465 193 t b s s;
#X msg 1263 221 symbol \$1_pitch-0;
#X msg 1065 220 symbol \$1_pitch-1;
#X msg 904 220 symbol \$1_phoneme;
#X msg 686 221 symbol \$1_dataset-loudness-0;
#X msg 488 220 symbol \$1_user-loudness-0;
#X obj 258 190 t b s s;
#X obj 258 278 list prepend voice;
#X obj 54 191 t b s s;
#X obj 54 279 list prepend voice;
#X msg 412 88 symbol voice2;
#X msg 404 127 symbol voice2;
#X msg 594 84 symbol voice2;
#X msg 138 37 50;
#X msg 1168 148 write;
#X obj 15 427 outlet#;
#X obj 15 13 inlet#;
#X obj 1602 14 inlet#;
#X obj 1602 425 outlet#;
#X connect 0 0 52 0;
#X connect 1 0 52 0;
#X connect 2 0 52 0;
#X connect 3 0 23 0;
#X connect 4 0 52 0;
#X connect 5 0 27 0;
#X connect 6 0 26 0;
#X connect 7 0 25 0;
#X connect 8 0 52 0;
#X connect 9 0 52 0;
#X connect 10 0 11 0;
#X connect 10 1 11 2;
#X connect 10 2 16 1;
#X connect 11 0 41 0;
#X connect 12 0 13 0;
#X connect 12 1 13 2;
#X connect 12 2 17 1;
#X connect 13 0 43 0;
#X connect 14 0 29 0;
#X connect 15 0 28 0;
#X connect 16 0 52 0;
#X connect 17 0 52 0;
#X connect 18 0 47 0;
#X connect 19 0 49 0;
#X connect 19 1 42 0;
#X connect 19 2 40 0;
#X connect 19 3 34 0;
#X connect 19 4 33 0;
#X connect 19 5 32 0;
#X connect 19 6 31 0;
#X connect 19 7 30 0;
#X connect 19 8 22 0;
#X connect 22 0 3 0;
#X connect 22 1 24 0;
#X connect 22 2 23 1;
#X connect 23 0 4 0;
#X connect 24 0 3 1;
#X connect 25 0 0 0;
#X connect 26 0 1 0;
#X connect 27 0 2 0;
#X connect 28 0 8 0;
#X connect 29 0 9 0;
#X connect 30 0 7 0;
#X connect 30 1 35 0;
#X connect 30 2 25 1;
#X connect 31 0 6 0;
#X connect 31 1 36 0;
#X connect 31 2 26 1;
#X connect 32 0 5 0;
#X connect 32 1 37 0;
#X connect 32 2 27 1;
#X connect 33 0 15 0;
#X connect 33 1 38 0;
#X connect 33 2 28 1;
#X connect 34 0 14 0;
#X connect 34 1 39 0;
#X connect 34 2 29 1;
#X connect 35 0 7 2;
#X connect 36 0 6 2;
#X connect 37 0 5 2;
#X connect 38 0 15 2;
#X connect 39 0 14 2;
#X connect 40 0 10 0;
#X connect 40 1 10 1;
#X connect 40 2 41 1;
#X connect 41 0 16 0;
#X connect 42 0 12 0;
#X connect 42 1 12 1;
#X connect 42 2 43 1;
#X connect 43 0 17 0;
#X connect 44 0 42 0;
#X connect 45 0 40 0;
#X connect 46 0 34 0;
#X connect 46 0 33 0;
#X connect 47 0 19 1;
#X connect 48 0 6 0;
#X connect 50 0 19 0;
#X connect 51 0 52 0;
#X restore 831 7 pd archive;
#X msg 1385 93 symbol voice0;
#X msg 1376 277 symbol voice0;
#X msg 1735 112 symbol voice0;
#X msg 1463 444 symbol voice0;
#X msg 879 51 symbol voice0;
#X msg 968 282 symbol voice0;
#X msg 502 353 symbol voice0;
#X msg 506 91 symbol voice0;
#X connect 2 0 9 0;
#X connect 3 0 6 0;
#X connect 4 0 42 0;
#X connect 5 0 11 0;
#X connect 8 0 2 0;
#X connect 8 1 10 0;
#X connect 8 2 9 1;
#X connect 9 0 3 0;
#X connect 10 0 2 1;
#X connect 11 0 13 0;
#X connect 11 1 44 0;
#X connect 11 2 38 0;
#X connect 11 3 34 0;
#X connect 11 4 29 0;
#X connect 11 5 24 0;
#X connect 11 6 19 0;
#X connect 11 7 17 0;
#X connect 11 8 8 0;
#X connect 13 0 6 0;
#X connect 14 0 15 0;
#X connect 15 0 16 0;
#X connect 16 0 6 0;
#X connect 17 0 14 0;
#X connect 17 1 15 1;
#X connect 17 2 1 0;
#X connect 18 0 22 0;
#X connect 19 0 21 0;
#X connect 19 1 18 1;
#X connect 19 2 20 0;
#X connect 21 0 18 0;
#X connect 22 0 6 0;
#X connect 23 0 27 0;
#X connect 24 0 26 0;
#X connect 24 1 23 1;
#X connect 24 2 25 0;
#X connect 26 0 23 0;
#X connect 27 0 6 0;
#X connect 28 0 32 0;
#X connect 29 0 31 0;
#X connect 29 1 28 1;
#X connect 29 2 30 0;
#X connect 31 0 28 0;
#X connect 32 0 6 0;
#X connect 33 0 37 0;
#X connect 34 0 36 0;
#X connect 34 1 33 1;
#X connect 34 2 35 0;
#X connect 36 0 33 0;
#X connect 37 0 6 0;
#X connect 38 0 4 0;
#X connect 38 1 4 1;
#X connect 38 2 39 1;
#X connect 39 0 41 0;
#X connect 40 0 39 0;
#X connect 41 0 6 0;
#X connect 42 0 40 0;
#X connect 42 1 43 0;
#X connect 42 2 12 0;
#X connect 43 0 41 1;
#X connect 44 0 47 0;
#X connect 44 1 47 1;
#X connect 44 2 45 1;
#X connect 45 0 51 0;
#X connect 46 0 50 0;
#X connect 46 1 49 0;
#X connect 46 2 48 0;
#X connect 47 0 46 0;
#X connect 49 0 51 1;
#X connect 50 0 45 0;
#X connect 51 0 6 0;
#X connect 53 0 17 0;
#X connect 54 0 19 0;
#X connect 55 0 8 0;
#X connect 56 0 24 0;
#X connect 57 0 29 0;
#X connect 58 0 34 0;
#X connect 59 0 44 0;
#X connect 60 0 38 0;
#X restore 953 548 pd send_audio_features;
#N canvas 666 194 317 259 osc_format 0;
#X obj 11 162 list trim;
#X obj 11 187 packOSC;
#X obj 11 18 inlet;
#X obj 11 212 outlet;
#X obj 202 186 print;
#X connect 0 0 1 0;
#X connect 1 0 3 0;
#X connect 2 0 0 0;
#X restore 953 620 pd osc_format;
#X obj 953 428 list;
#X text 952 518 Name of voice who's buffers are filled;
#X obj 953 661 outlet;
#X text 1003 661 TO VOICE GENERATOR;
#X obj 1230 49 cnv 15 300 420 empty empty FROM_AUDIO_PROCESS 20 12
0 14 -261682 -66577 0;
#X obj 1317 14 inlet;
#X obj 1349 186 bng 15 250 50 0 empty empty empty 17 7 0 10 -262144
-1 -1;
#X obj 1317 160 t b b;
#X obj 278 14 inlet;
#X obj 1317 111 route /\$1;
#X obj 1403 186 bng 15 250 50 0 empty empty empty 17 7 0 10 -262144
-1 -1;
#X obj 1371 160 t b b;
#X obj 1317 136 route start stop;
#X obj 1350 366 r \$1_sld_silence_snd;
#X obj 1350 345 cnv 15 100 20 empty empty Silence 20 12 0 14 -4032
-66577 0;
#X obj 1230 472 cnv 15 300 150 empty empty TO_AUDIO_PROCESS 20 12 0
14 -261682 -66577 0;
#X obj 1247 516 cnv 15 100 20 empty empty Silence 20 12 0 14 -4032
-66577 0;
#X obj 1247 636 outlet;
#X text 1297 636 TO AUDIO PROCESS;
#X obj 21 222 hsl 200 15 0 1 0 0 \$1_sld_volume_snd \$1_sld_volume_rcv
<-low----------VOLUME-------high-> -2 -8 0 10 -262144 -1 -1 0 1;
#X floatatom 18 242 6 0 0 0 - - -;
#X obj 1247 537 r \$1_sld_volume_snd;
#X obj 1247 562 list prepend /volume \$1;
#X obj 18 271 tgl 15 0 \$1_toggle_trigger_snd \$1_toggle_trigger_rcv
Trigger_switch:_new_primer/end_of_file 17 7 0 10 -262144 -1 -1 0 1
;
#N canvas 1297 500 328 363 trig_delay 0;
#X msg 91 257 bang;
#X obj 91 142 delay 500;
#X obj 91 165 spigot;
#X obj 149 96 t f f;
#X obj 198 119 < 1;
#X floatatom 149 74 5 0 0 0 - - -;
#X obj 91 187 bng 15 250 50 0 empty empty empty 17 7 0 10 -262144 -1
-1;
#X obj 149 119 * 5000;
#X obj 198 142 change;
#X obj 198 165 sel 1;
#X obj 91 21 inlet;
#X obj 149 21 inlet;
#X obj 91 282 outlet;
#X obj 214 20 loadbang;
#X msg 214 45 1;
#X connect 0 0 12 0;
#X connect 1 0 2 0;
#X connect 2 0 6 0;
#X connect 2 0 0 0;
#X connect 3 0 7 0;
#X connect 3 1 4 0;
#X connect 4 0 2 1;
#X connect 4 0 8 0;
#X connect 5 0 3 0;
#X connect 7 0 1 1;
#X connect 8 0 9 0;
#X connect 9 0 0 0;
#X connect 10 0 1 0;
#X connect 11 0 5 0;
#X connect 13 0 14 0;
#X connect 14 0 5 0;
#X restore 1262 394 pd trig_delay;
#X obj 1262 426 cnv 15 100 20 empty empty Trigger 20 12 0 14 -4032
-66577 0;
#X obj 1316 265 cnv 15 100 20 empty empty New_primer 20 12 0 14 -4032
-66577 0;
#X obj 1316 286 r new_primer;
#X obj 1262 311 cyclone/switch 2;
#X obj 1262 285 + 1;
#X obj 1410 160 cnv 15 100 20 empty empty End_of_file 20 12 0 14 -4032
-66577 0;
#X obj 1262 265 tgl 15 0 empty empty empty 17 7 0 10 -262144 -1 -1
0 1;
#X obj 1262 240 r \$1_toggle_trigger_snd;
#X obj 1262 219 cnv 15 100 20 empty empty Trigger_switch 20 12 0 14
-4032 -66577 0;
#X obj 1262 447 s \$1_trigger;
#X obj 336 105 cnv 15 100 20 empty empty Trigger 20 12 0 14 -4032 -66577
0;
#X obj 336 126 r \$1_trigger;
#X obj 337 271 r \$1_sld_primer_scaler_snd;
#X obj 20 689 hsl 200 15 0 1 0 0 \$1_sld_melody_scaler_snd \$1_sld_melody_scaler_rcv
<-none------MELODY_SCALER----all-> -2 -8 0 10 -262144 -1 -1 0 1;
#X floatatom 17 709 6 0 0 0 - - -;
#X obj 337 295 cnv 15 100 20 empty empty Melody_scaler 20 12 0 14 -4032
-66577 0;
#X obj 337 316 r \$1_sld_melody_scaler_snd;
#X obj 719 271 bng 15 250 50 0 empty empty empty 17 7 0 10 -262144
-1 -1;
#X obj 673 463 loadbang;
#X obj 673 515 symbol \$1;
#X msg 673 540 \$1;
#X obj 673 566 route voice0 voice5;
#X obj 673 488 delay 2500;
#N canvas 2914 537 450 300 rdm_delay 0;
#X obj 87 85 random 20;
#X obj 87 60 loadbang;
#X obj 41 60 inlet;
#X obj 41 112 delay 0;
#X obj 41 159 outlet;
#X connect 0 0 3 1;
#X connect 1 0 0 0;
#X connect 2 0 3 0;
#X connect 3 0 4 0;
#X restore 278 353 pd rdm_delay;
#X obj 506 857 print;
#X connect 5 0 6 0;
#X connect 7 0 8 0;
#X connect 9 0 10 0;
#X connect 11 0 12 0;
#X connect 13 0 14 0;
#X connect 15 0 16 0;
#X connect 17 0 18 0;
#X connect 20 0 21 0;
#X connect 22 0 23 0;
#X connect 24 0 25 0;
#X connect 26 0 27 0;
#X connect 32 0 124 0;
#X connect 33 0 48 2;
#X connect 34 0 48 3;
#X connect 37 0 48 4;
#X connect 40 0 48 5;
#X connect 43 0 48 6;
#X connect 44 0 48 7;
#X connect 45 0 48 1;
#X connect 46 0 48 8;
#X connect 48 0 49 0;
#X connect 51 0 37 0;
#X connect 53 0 54 0;
#X connect 54 0 57 0;
#X connect 57 0 58 0;
#X connect 57 1 58 1;
#X connect 58 0 59 0;
#X connect 59 0 60 0;
#X connect 59 1 55 0;
#X connect 60 0 74 0;
#X connect 65 0 72 0;
#X connect 66 0 71 0;
#X connect 67 0 70 0;
#X connect 68 0 69 0;
#X connect 69 0 76 0;
#X connect 70 0 76 0;
#X connect 71 0 76 0;
#X connect 72 0 76 0;
#X connect 74 0 75 0;
#X connect 75 0 78 0;
#X connect 76 0 75 0;
#X connect 81 0 85 0;
#X connect 83 1 82 0;
#X connect 84 0 32 0;
#X connect 85 0 88 0;
#X connect 87 0 104 2;
#X connect 87 1 86 0;
#X connect 88 0 83 0;
#X connect 88 1 87 0;
#X connect 89 0 100 1;
#X connect 95 0 96 0;
#X connect 97 0 98 0;
#X connect 98 0 93 0;
#X connect 100 0 110 0;
#X connect 103 0 104 1;
#X connect 104 0 100 0;
#X connect 105 0 104 0;
#X connect 107 0 105 0;
#X connect 108 0 107 0;
#X connect 112 0 32 0;
#X connect 113 0 43 0;
#X connect 114 0 115 0;
#X connect 117 0 44 0;
#X connect 118 0 59 0;
#X connect 119 0 123 0;
#X connect 120 0 121 0;
#X connect 121 0 122 0;
#X connect 122 0 40 0;
#X connect 122 1 40 0;
#X connect 123 0 120 0;
#X connect 124 0 48 0;
